{"glyphs":{"0":{"ha":865,"x_min":0,"x_max":0,"o":"m 433 -18 b 805 491 667 -18 805 179 b 433 997 805 801 667 997 b 59 490 199 997 59 800 b 433 -18 59 178 198 -18 z m 433 109 b 213 490 293 109 213 254 b 433 869 213 723 294 869 b 652 490 571 869 652 724 b 433 109 652 254 572 109 z "},"1":{"ha":634,"x_min":0,"x_max":0,"o":"m 323 0 l 472 0 l 472 979 l 322 979 l 64 795 l 64 646 l 320 828 l 323 828 z "},"2":{"ha":804,"x_min":0,"x_max":0,"o":"m 68 692 l 68 690 l 212 690 l 212 692 b 399 871 212 794 292 871 b 580 715 501 871 580 802 b 429 463 580 639 549 587 l 76 103 l 76 0 l 745 0 l 745 128 l 281 128 l 281 132 l 526 378 b 730 723 669 524 730 609 b 404 997 730 878 591 997 b 68 692 210 997 68 868 z "},"3":{"ha":841,"x_min":0,"x_max":0,"o":"m 289 443 l 411 443 b 620 272 540 443 620 378 b 415 109 620 176 534 109 b 205 267 292 109 214 173 l 59 267 b 415 -18 68 98 204 -18 b 774 270 619 -18 774 99 b 532 507 774 407 680 497 l 532 510 b 734 741 654 532 734 619 b 414 997 734 892 599 997 b 79 715 220 997 90 886 l 222 715 b 407 872 231 811 301 872 b 585 721 523 872 585 812 b 407 562 585 629 513 562 l 289 562 z "},"4":{"ha":862,"x_min":0,"x_max":0,"o":"m 541 0 l 687 0 l 687 193 l 821 193 l 821 321 l 687 321 l 687 979 l 467 979 b 52 326 247 660 136 484 l 52 193 l 541 193 z m 193 322 b 540 861 271 464 370 616 l 543 861 l 543 319 l 193 319 z "},"5":{"ha":833,"x_min":0,"x_max":0,"o":"m 427 -18 b 785 321 637 -18 785 121 b 463 649 785 511 650 649 b 244 550 367 649 287 612 l 241 550 l 268 850 l 728 850 l 728 979 l 146 979 l 94 425 l 233 425 b 429 528 271 490 345 528 b 637 317 551 528 637 440 b 428 109 637 195 551 109 b 224 272 319 109 235 175 l 79 272 b 427 -18 88 101 231 -18 z "},"6":{"ha":854,"x_min":0,"x_max":0,"o":"m 444 -19 b 802 319 652 -19 802 123 b 477 643 802 505 663 643 b 208 484 355 643 251 579 l 205 484 b 450 870 206 730 296 870 b 636 738 539 870 612 818 l 788 738 b 451 998 758 894 624 998 b 60 476 206 998 60 804 b 120 187 60 361 80 265 b 444 -19 184 55 300 -19 z m 443 109 b 236 317 326 109 236 201 b 444 519 236 433 325 519 b 650 315 564 519 650 433 b 443 109 650 200 558 109 z "},"7":{"ha":772,"x_min":0,"x_max":0,"o":"m 130 0 l 290 0 l 715 847 l 715 979 l 49 979 l 49 850 l 565 850 l 565 847 z "},"8":{"ha":859,"x_min":0,"x_max":0,"o":"m 429 -18 b 800 264 646 -18 800 98 b 582 516 800 389 712 489 l 582 519 b 760 739 690 551 760 635 b 429 997 760 888 622 997 b 98 739 237 997 98 888 b 277 519 98 634 168 549 l 277 516 b 59 264 147 489 59 389 b 429 -18 59 99 211 -18 z m 429 104 b 216 275 304 104 216 176 b 429 448 216 376 304 448 b 642 275 554 448 642 376 b 429 104 642 176 554 104 z m 429 570 b 249 723 323 570 249 634 b 429 876 249 812 323 876 b 610 723 535 876 610 812 b 429 570 610 634 534 570 z "},"9":{"ha":854,"x_min":0,"x_max":0,"o":"m 404 -18 b 795 503 650 -18 795 176 b 734 792 795 618 774 714 b 410 998 671 924 555 998 b 52 659 203 998 52 855 b 377 336 52 473 191 336 b 646 496 503 336 606 399 b 646 496 646 496 646 496 b 647 496 646 496 647 496 b 648 496 648 496 648 496 b 406 108 648 249 559 108 b 218 241 316 108 241 161 l 66 241 b 404 -18 95 86 230 -18 z m 410 460 b 203 664 291 460 203 547 b 412 868 203 778 295 868 b 619 661 528 868 619 777 b 410 460 619 546 530 460 z "}," ":{"ha":281,"x_min":0,"x_max":0,"o":""},"A":{"ha":906,"x_min":0,"x_max":0,"o":"m 728 0 l 888 0 l 535 979 l 371 979 l 18 0 l 176 0 l 265 264 l 638 264 z m 450 816 l 454 816 l 600 387 l 304 387 z "},"À":{"ha":906,"x_min":0,"x_max":0,"o":"m 728 0 l 888 0 l 535 979 l 371 979 l 18 0 l 176 0 l 265 264 l 638 264 z m 450 816 l 454 816 l 600 387 l 304 387 z m 385 1059 l 508 1059 l 357 1259 l 207 1259 z "},"Á":{"ha":906,"x_min":0,"x_max":0,"o":"m 728 0 l 888 0 l 535 979 l 371 979 l 18 0 l 176 0 l 265 264 l 638 264 z m 450 816 l 454 816 l 600 387 l 304 387 z m 520 1057 l 699 1257 l 548 1257 l 397 1057 z "},"Ä":{"ha":906,"x_min":0,"x_max":0,"o":"m 728 0 l 888 0 l 535 979 l 371 979 l 18 0 l 176 0 l 265 264 l 638 264 z m 450 816 l 454 816 l 600 387 l 304 387 z m 323 1080 b 403 1159 367 1080 403 1115 b 323 1238 403 1203 367 1238 b 242 1159 278 1238 242 1203 b 323 1080 242 1115 278 1080 z m 584 1080 b 664 1159 628 1080 664 1115 b 584 1238 664 1203 628 1238 b 503 1159 539 1238 503 1203 b 584 1080 503 1115 539 1080 z "},"Ǟ":{"ha":906,"x_min":0,"x_max":0,"o":"m 728 0 l 888 0 l 535 979 l 371 979 l 18 0 l 176 0 l 265 264 l 638 264 z m 450 816 l 454 816 l 600 387 l 304 387 z m 328 1206 b 250 1129 284 1206 250 1172 b 328 1052 250 1086 284 1052 b 405 1129 370 1052 405 1086 b 328 1206 405 1172 370 1206 z m 231 1385 l 231 1299 l 675 1299 l 675 1385 z m 578 1206 b 501 1129 536 1206 501 1172 b 578 1052 501 1086 536 1052 b 656 1129 622 1052 656 1086 b 578 1206 656 1172 622 1206 z "},"Å":{"ha":906,"x_min":0,"x_max":0,"o":"m 728 0 l 888 0 l 535 979 l 371 979 l 18 0 l 176 0 l 265 264 l 638 264 z m 450 816 l 454 816 l 600 387 l 304 387 z m 453 1029 b 586 1161 526 1029 586 1088 b 453 1293 586 1234 526 1293 b 320 1161 380 1293 320 1234 b 453 1029 320 1088 380 1029 z m 453 1094 b 386 1161 416 1094 386 1124 b 453 1227 386 1198 416 1227 b 520 1161 490 1227 520 1198 b 453 1094 520 1124 490 1094 z "},"Ǻ":{"ha":906,"x_min":0,"x_max":0,"o":"m 728 0 l 888 0 l 535 979 l 371 979 l 18 0 l 176 0 l 265 264 l 638 264 z m 450 816 l 454 816 l 600 387 l 304 387 z m 453 1014 b 582 1142 525 1014 582 1071 b 453 1270 582 1213 525 1270 b 324 1142 381 1270 324 1213 b 453 1014 324 1071 381 1014 z m 453 1077 b 389 1142 417 1077 389 1106 b 453 1206 389 1178 417 1206 b 517 1142 489 1206 517 1178 b 453 1077 517 1106 489 1077 z m 485 1434 l 399 1306 l 510 1306 l 611 1434 z "},"Ã":{"ha":906,"x_min":0,"x_max":0,"o":"m 728 0 l 888 0 l 535 979 l 371 979 l 18 0 l 176 0 l 265 264 l 638 264 z m 450 816 l 454 816 l 600 387 l 304 387 z m 545 1067 b 680 1246 622 1067 680 1135 l 589 1246 b 543 1154 589 1185 572 1154 b 365 1253 493 1154 461 1253 b 229 1076 286 1253 229 1190 l 319 1076 b 367 1166 317 1133 336 1166 b 545 1067 419 1166 454 1067 z "},"Ằ":{"ha":906,"x_min":0,"x_max":0,"o":"m 728 0 l 888 0 l 535 979 l 371 979 l 18 0 l 176 0 l 265 264 l 638 264 z m 450 816 l 454 816 l 600 387 l 304 387 z m 680 1238 l 581 1238 b 453 1129 574 1174 524 1129 b 326 1238 382 1129 332 1174 l 227 1238 b 453 1046 233 1128 321 1046 b 680 1238 585 1046 673 1128 z m 526 1253 l 408 1407 l 273 1407 l 410 1253 z "},"Ǡ":{"ha":906,"x_min":0,"x_max":0,"o":"m 728 0 l 888 0 l 535 979 l 371 979 l 18 0 l 176 0 l 265 264 l 638 264 z m 450 816 l 454 816 l 600 387 l 304 387 z m 453 1063 b 537 1146 500 1063 537 1100 b 453 1228 537 1192 500 1228 b 369 1146 406 1228 369 1192 b 453 1063 369 1100 406 1063 z m 675 1385 l 231 1385 l 231 1299 l 675 1299 z "},"Ḁ":{"ha":906,"x_min":0,"x_max":0,"o":"m 728 0 l 888 0 l 535 979 l 371 979 l 18 0 l 176 0 l 265 264 l 638 264 z m 450 816 l 454 816 l 600 387 l 304 387 z m 453 -335 b 589 -201 528 -335 589 -275 b 453 -65 589 -126 528 -65 b 317 -201 378 -65 317 -126 b 453 -335 317 -275 378 -335 z m 453 -268 b 385 -201 416 -268 385 -238 b 453 -133 385 -163 416 -133 b 521 -201 490 -133 521 -163 b 453 -268 521 -238 490 -268 z "},"Â":{"ha":906,"x_min":0,"x_max":0,"o":"m 728 0 l 888 0 l 535 979 l 371 979 l 18 0 l 176 0 l 265 264 l 638 264 z m 450 816 l 454 816 l 600 387 l 304 387 z m 397 1251 l 208 1044 l 334 1044 l 451 1174 l 455 1174 l 572 1044 l 698 1044 l 509 1251 z "},"Ậ":{"ha":906,"x_min":0,"x_max":0,"o":"m 728 0 l 888 0 l 535 979 l 371 979 l 18 0 l 176 0 l 265 264 l 638 264 z m 450 816 l 454 816 l 600 387 l 304 387 z m 397 1251 l 208 1044 l 334 1044 l 451 1174 l 455 1174 l 572 1044 l 698 1044 l 509 1251 z m 453 -280 b 542 -191 503 -280 542 -240 b 453 -102 542 -142 503 -102 b 364 -191 404 -102 364 -142 b 453 -280 364 -240 404 -280 z "},"Ấ":{"ha":906,"x_min":0,"x_max":0,"o":"m 728 0 l 888 0 l 535 979 l 371 979 l 18 0 l 176 0 l 265 264 l 638 264 z m 450 816 l 454 816 l 600 387 l 304 387 z m 392 1225 l 204 1044 l 335 1044 l 451 1158 l 455 1158 l 571 1044 l 702 1044 l 514 1225 z m 555 1253 l 671 1253 l 807 1407 l 673 1407 z "},"Ẫ":{"ha":906,"x_min":0,"x_max":0,"o":"m 728 0 l 888 0 l 535 979 l 371 979 l 18 0 l 176 0 l 265 264 l 638 264 z m 450 816 l 454 816 l 600 387 l 304 387 z m 538 1255 b 674 1406 616 1255 674 1318 l 585 1406 b 533 1336 581 1362 561 1336 b 368 1421 486 1336 462 1421 b 232 1270 286 1421 232 1359 l 321 1270 b 373 1341 324 1314 342 1341 b 538 1255 420 1341 444 1255 z m 392 1219 l 204 1044 l 335 1044 l 451 1153 l 455 1153 l 571 1044 l 702 1044 l 514 1219 z "},"Ầ":{"ha":906,"x_min":0,"x_max":0,"o":"m 728 0 l 888 0 l 535 979 l 371 979 l 18 0 l 176 0 l 265 264 l 638 264 z m 450 816 l 454 816 l 600 387 l 304 387 z m 392 1225 l 204 1044 l 335 1044 l 451 1158 l 455 1158 l 571 1044 l 702 1044 l 514 1225 z m 701 1253 l 582 1407 l 448 1407 l 584 1253 z "},"Ẩ":{"ha":906,"x_min":0,"x_max":0,"o":"m 728 0 l 888 0 l 535 979 l 371 979 l 18 0 l 176 0 l 265 264 l 638 264 z m 450 816 l 454 816 l 600 387 l 304 387 z m 392 1225 l 204 1044 l 335 1044 l 451 1158 l 455 1158 l 571 1044 l 702 1044 l 514 1225 z m 536 1328 b 597 1339 551 1335 574 1339 b 652 1296 629 1339 652 1321 b 600 1234 652 1270 633 1246 l 656 1183 b 742 1302 709 1202 742 1251 b 614 1412 742 1369 690 1412 b 536 1396 587 1412 556 1406 z "},"Ă":{"ha":906,"x_min":0,"x_max":0,"o":"m 728 0 l 888 0 l 535 979 l 371 979 l 18 0 l 176 0 l 265 264 l 638 264 z m 450 816 l 454 816 l 600 387 l 304 387 z m 227 1256 b 453 1045 234 1143 315 1045 b 680 1256 591 1045 672 1143 l 581 1256 b 453 1130 573 1178 524 1130 b 326 1256 382 1130 333 1178 z "},"Ắ":{"ha":906,"x_min":0,"x_max":0,"o":"m 728 0 l 888 0 l 535 979 l 371 979 l 18 0 l 176 0 l 265 264 l 638 264 z m 450 816 l 454 816 l 600 387 l 304 387 z m 227 1238 b 453 1046 233 1128 321 1046 b 680 1238 585 1046 673 1128 l 581 1238 b 453 1129 574 1174 524 1129 b 326 1238 382 1129 332 1174 z m 380 1253 l 496 1253 l 633 1407 l 498 1407 z "},"Ẵ":{"ha":906,"x_min":0,"x_max":0,"o":"m 728 0 l 888 0 l 535 979 l 371 979 l 18 0 l 176 0 l 265 264 l 638 264 z m 450 816 l 454 816 l 600 387 l 304 387 z m 227 1227 b 453 1046 233 1134 321 1046 b 680 1227 585 1046 673 1134 l 581 1227 b 453 1129 574 1175 524 1129 b 326 1227 382 1129 332 1175 z m 538 1255 b 674 1406 616 1255 674 1318 l 585 1406 b 533 1336 581 1362 561 1336 b 368 1421 486 1336 462 1421 b 232 1271 286 1421 232 1359 l 321 1271 b 373 1341 324 1314 342 1341 b 538 1255 420 1341 444 1255 z "},"Ẳ":{"ha":906,"x_min":0,"x_max":0,"o":"m 728 0 l 888 0 l 535 979 l 371 979 l 18 0 l 176 0 l 265 264 l 638 264 z m 450 816 l 454 816 l 600 387 l 304 387 z m 340 1364 b 407 1378 357 1372 383 1378 b 467 1331 441 1378 467 1358 b 406 1263 467 1302 443 1274 l 450 1205 b 560 1339 515 1229 560 1283 b 425 1454 560 1409 507 1454 b 340 1436 392 1454 359 1447 z m 227 1238 b 453 1046 233 1126 324 1046 b 680 1238 582 1046 673 1126 l 581 1238 b 453 1129 574 1173 522 1129 b 326 1238 384 1129 332 1173 z "},"Ặ":{"ha":906,"x_min":0,"x_max":0,"o":"m 728 0 l 888 0 l 535 979 l 371 979 l 18 0 l 176 0 l 265 264 l 638 264 z m 450 816 l 454 816 l 600 387 l 304 387 z m 227 1256 b 453 1045 234 1143 315 1045 b 680 1256 591 1045 672 1143 l 581 1256 b 453 1130 573 1178 524 1130 b 326 1256 382 1130 333 1178 z m 453 -280 b 542 -191 503 -280 542 -240 b 453 -102 542 -142 503 -102 b 364 -191 404 -102 364 -142 b 453 -280 364 -240 404 -280 z "},"Ȃ":{"ha":906,"x_min":0,"x_max":0,"o":"m 728 0 l 888 0 l 535 979 l 371 979 l 18 0 l 176 0 l 265 264 l 638 264 z m 450 816 l 454 816 l 600 387 l 304 387 z m 227 1045 l 326 1045 b 453 1171 333 1123 382 1171 b 581 1045 524 1171 573 1123 l 680 1045 b 453 1256 672 1158 591 1256 b 227 1045 315 1256 234 1158 z "},"Ǎ":{"ha":906,"x_min":0,"x_max":0,"o":"m 728 0 l 888 0 l 535 979 l 371 979 l 18 0 l 176 0 l 265 264 l 638 264 z m 450 816 l 454 816 l 600 387 l 304 387 z m 397 1049 l 509 1049 l 698 1256 l 572 1256 l 455 1126 l 451 1126 l 334 1256 l 208 1256 z "},"Ȧ":{"ha":906,"x_min":0,"x_max":0,"o":"m 728 0 l 888 0 l 535 979 l 371 979 l 18 0 l 176 0 l 265 264 l 638 264 z m 450 816 l 454 816 l 600 387 l 304 387 z m 453 1069 b 542 1158 503 1069 542 1109 b 453 1246 542 1207 503 1246 b 364 1158 404 1246 364 1207 b 453 1069 364 1109 404 1069 z "},"Ạ":{"ha":906,"x_min":0,"x_max":0,"o":"m 728 0 l 888 0 l 535 979 l 371 979 l 18 0 l 176 0 l 265 264 l 638 264 z m 450 816 l 454 816 l 600 387 l 304 387 z m 453 -280 b 542 -191 503 -280 542 -240 b 453 -102 542 -142 503 -102 b 364 -191 404 -102 364 -142 b 453 -280 364 -240 404 -280 z "},"Ả":{"ha":906,"x_min":0,"x_max":0,"o":"m 728 0 l 888 0 l 535 979 l 371 979 l 18 0 l 176 0 l 265 264 l 638 264 z m 450 816 l 454 816 l 600 387 l 304 387 z m 338 1196 b 408 1208 358 1204 385 1208 b 469 1161 444 1208 469 1188 b 406 1092 469 1132 444 1104 l 454 1032 b 568 1168 522 1057 568 1109 b 426 1285 568 1240 511 1285 b 338 1270 394 1285 362 1280 z "},"Ȁ":{"ha":906,"x_min":0,"x_max":0,"o":"m 728 0 l 888 0 l 535 979 l 371 979 l 18 0 l 176 0 l 265 264 l 638 264 z m 450 816 l 454 816 l 600 387 l 304 387 z m 503 1057 l 627 1057 l 476 1257 l 326 1257 z m 267 1057 l 390 1057 l 239 1257 l 89 1257 z "},"Ā":{"ha":906,"x_min":0,"x_max":0,"o":"m 728 0 l 888 0 l 535 979 l 371 979 l 18 0 l 176 0 l 265 264 l 638 264 z m 450 816 l 454 816 l 600 387 l 304 387 z m 675 1191 l 231 1191 l 231 1105 l 675 1105 z "},"Ą":{"ha":906,"x_min":0,"x_max":0,"o":"m 450 816 l 454 816 l 600 387 l 304 387 z m 865 -287 l 865 -196 b 811 -202 850 -199 831 -202 b 730 -136 765 -202 730 -180 b 871 -1 730 -87 782 -36 l 888 1 l 535 979 l 371 979 l 18 0 l 176 0 l 265 264 l 638 264 l 726 5 b 614 -165 645 -47 614 -105 b 779 -300 614 -245 684 -300 b 865 -287 818 -300 850 -294 z "},"B":{"ha":857,"x_min":0,"x_max":0,"o":"m 483 0 b 817 277 691 0 817 104 b 594 516 817 407 727 501 l 594 522 b 768 734 692 538 768 631 b 481 979 768 882 654 979 l 90 979 l 90 0 z m 242 854 l 444 854 b 616 713 554 854 616 804 b 412 562 616 616 544 562 l 242 562 z m 242 124 l 242 446 l 443 446 b 661 286 587 446 661 392 b 452 124 661 180 589 124 z "},"Ḇ":{"ha":857,"x_min":0,"x_max":0,"o":"m 483 0 b 817 277 691 0 817 104 b 594 516 817 407 727 501 l 594 522 b 768 734 692 538 768 631 b 481 979 768 882 654 979 l 90 979 l 90 0 z m 242 854 l 444 854 b 616 713 554 854 616 804 b 412 562 616 616 544 562 l 242 562 z m 242 124 l 242 446 l 443 446 b 661 286 587 446 661 392 b 452 124 661 180 589 124 z m 618 -151 l 174 -151 l 174 -237 l 618 -237 z "},"Ḅ":{"ha":857,"x_min":0,"x_max":0,"o":"m 483 0 b 817 277 691 0 817 104 b 594 516 817 407 727 501 l 594 522 b 768 734 692 538 768 631 b 481 979 768 882 654 979 l 90 979 l 90 0 z m 242 854 l 444 854 b 616 713 554 854 616 804 b 412 562 616 616 544 562 l 242 562 z m 242 124 l 242 446 l 443 446 b 661 286 587 446 661 392 b 452 124 661 180 589 124 z m 396 -280 b 485 -191 446 -280 485 -240 b 396 -102 485 -142 446 -102 b 307 -191 347 -102 307 -142 b 396 -280 307 -240 347 -280 z "},"Ḃ":{"ha":857,"x_min":0,"x_max":0,"o":"m 483 0 b 817 277 691 0 817 104 b 594 516 817 407 727 501 l 594 522 b 768 734 692 538 768 631 b 481 979 768 882 654 979 l 90 979 l 90 0 z m 242 854 l 444 854 b 616 713 554 854 616 804 b 412 562 616 616 544 562 l 242 562 z m 242 124 l 242 446 l 443 446 b 661 286 587 446 661 392 b 452 124 661 180 589 124 z m 396 1069 b 485 1158 446 1069 485 1109 b 396 1246 485 1207 446 1246 b 307 1158 347 1246 307 1207 b 396 1069 307 1109 347 1069 z "},"C":{"ha":966,"x_min":0,"x_max":0,"o":"m 503 -16 b 919 304 728 -16 882 102 l 768 304 b 504 117 737 186 640 117 b 210 490 324 117 210 261 b 503 862 210 716 326 862 b 768 654 636 862 741 780 l 918 654 b 503 995 892 859 725 995 b 55 490 230 995 55 800 b 503 -16 55 178 229 -16 z "},"Ć":{"ha":966,"x_min":0,"x_max":0,"o":"m 503 -16 b 919 304 728 -16 882 102 l 768 304 b 504 117 737 186 640 117 b 210 490 324 117 210 261 b 503 862 210 716 326 862 b 768 654 636 862 741 780 l 918 654 b 503 995 892 859 725 995 b 55 490 230 995 55 800 b 503 -16 55 178 229 -16 z m 568 1059 l 746 1259 l 595 1259 l 445 1059 z "},"Č":{"ha":966,"x_min":0,"x_max":0,"o":"m 503 -16 b 919 304 728 -16 882 102 l 768 304 b 504 117 737 186 640 117 b 210 490 324 117 210 261 b 503 862 210 716 326 862 b 768 654 636 862 741 780 l 918 654 b 503 995 892 859 725 995 b 55 490 230 995 55 800 b 503 -16 55 178 229 -16 z m 444 1050 l 557 1050 l 745 1257 l 619 1257 l 503 1127 l 498 1127 l 382 1257 l 256 1257 z "},"Ĉ":{"ha":966,"x_min":0,"x_max":0,"o":"m 503 -16 b 919 304 728 -16 882 102 l 768 304 b 504 117 737 186 640 117 b 210 490 324 117 210 261 b 503 862 210 716 326 862 b 768 654 636 862 741 780 l 918 654 b 503 995 892 859 725 995 b 55 490 230 995 55 800 b 503 -16 55 178 229 -16 z m 444 1252 l 256 1045 l 382 1045 l 498 1175 l 503 1175 l 619 1045 l 745 1045 l 557 1252 z "},"Ċ":{"ha":966,"x_min":0,"x_max":0,"o":"m 503 -16 b 919 304 728 -16 882 102 l 768 304 b 504 117 737 186 640 117 b 210 490 324 117 210 261 b 503 862 210 716 326 862 b 768 654 636 862 741 780 l 918 654 b 503 995 892 859 725 995 b 55 490 230 995 55 800 b 503 -16 55 178 229 -16 z m 500 1070 b 589 1159 550 1070 589 1110 b 500 1248 589 1208 550 1248 b 412 1159 451 1248 412 1208 b 500 1070 412 1110 451 1070 z "},"Ç":{"ha":966,"x_min":0,"x_max":0,"o":"m 768 304 b 504 117 737 186 640 117 b 210 490 324 117 210 261 b 503 862 210 716 326 862 b 768 654 636 862 741 780 l 918 654 b 503 995 892 859 725 995 b 55 490 230 995 55 800 b 459 -14 55 195 210 5 l 424 -100 l 424 -154 l 469 -154 b 563 -195 535 -154 563 -165 b 481 -240 563 -224 535 -240 b 399 -232 453 -240 414 -235 l 399 -306 b 499 -315 417 -311 460 -316 b 661 -193 593 -314 661 -272 b 522 -83 661 -123 606 -84 l 553 -14 b 919 304 751 2 884 117 z "},"Ḉ":{"ha":966,"x_min":0,"x_max":0,"o":"m 746 1259 l 595 1259 l 445 1059 l 568 1059 z m 768 304 b 504 117 737 186 640 117 b 210 490 324 117 210 261 b 503 862 210 716 326 862 b 768 654 636 862 741 780 l 918 654 b 503 995 892 859 725 995 b 55 490 230 995 55 800 b 459 -14 55 195 210 5 l 424 -100 l 424 -154 l 469 -154 b 563 -195 535 -154 563 -165 b 481 -240 563 -224 535 -240 b 399 -232 453 -240 414 -235 l 399 -306 b 499 -315 417 -311 460 -316 b 661 -193 593 -314 661 -272 b 522 -83 661 -123 606 -84 l 553 -14 b 919 304 751 2 884 117 z "},"D":{"ha":953,"x_min":0,"x_max":0,"o":"m 90 979 l 90 0 l 435 0 b 899 491 727 0 899 182 b 435 979 899 800 726 979 z m 242 848 l 421 848 b 743 490 628 848 743 720 b 421 132 743 258 629 132 l 242 132 z "},"Ḋ":{"ha":953,"x_min":0,"x_max":0,"o":"m 90 979 l 90 0 l 435 0 b 899 491 727 0 899 182 b 435 979 899 800 726 979 z m 242 848 l 421 848 b 743 490 628 848 743 720 b 421 132 743 258 629 132 l 242 132 z m 396 1069 b 485 1158 446 1069 485 1109 b 396 1246 485 1207 446 1246 b 307 1158 347 1246 307 1207 b 396 1069 307 1109 347 1069 z "},"Ḓ":{"ha":953,"x_min":0,"x_max":0,"o":"m 90 979 l 90 0 l 435 0 b 899 491 727 0 899 182 b 435 979 899 800 726 979 z m 242 848 l 421 848 b 743 490 628 848 743 720 b 421 132 743 258 629 132 l 242 132 z m 340 -90 l 151 -296 l 277 -296 l 394 -166 l 398 -166 l 515 -296 l 641 -296 l 452 -90 z "},"Ḑ":{"ha":953,"x_min":0,"x_max":0,"o":"m 90 979 l 90 0 l 435 0 b 899 491 727 0 899 182 b 435 979 899 800 726 979 z m 242 848 l 421 848 b 743 490 628 848 743 720 b 421 132 743 258 629 132 l 242 132 z m 377 -326 l 477 -87 l 348 -87 l 269 -326 z "},"Ḏ":{"ha":953,"x_min":0,"x_max":0,"o":"m 90 979 l 90 0 l 435 0 b 899 491 727 0 899 182 b 435 979 899 800 726 979 z m 242 848 l 421 848 b 743 490 628 848 743 720 b 421 132 743 258 629 132 l 242 132 z m 618 -151 l 174 -151 l 174 -237 l 618 -237 z "},"Ď":{"ha":953,"x_min":0,"x_max":0,"o":"m 90 979 l 90 0 l 435 0 b 899 491 727 0 899 182 b 435 979 899 800 726 979 z m 242 848 l 421 848 b 743 490 628 848 743 720 b 421 132 743 258 629 132 l 242 132 z m 340 1049 l 452 1049 l 641 1256 l 515 1256 l 398 1126 l 394 1126 l 277 1256 l 151 1256 z "},"Ḍ":{"ha":953,"x_min":0,"x_max":0,"o":"m 90 979 l 90 0 l 435 0 b 899 491 727 0 899 182 b 435 979 899 800 726 979 z m 242 848 l 421 848 b 743 490 628 848 743 720 b 421 132 743 258 629 132 l 242 132 z m 396 -280 b 485 -191 446 -280 485 -240 b 396 -102 485 -142 446 -102 b 307 -191 347 -102 307 -142 b 396 -280 307 -240 347 -280 z "},"Đ":{"ha":963,"x_min":0,"x_max":0,"o":"m 252 132 l 252 439 l 435 439 l 435 564 l 252 564 l 252 848 l 431 848 b 753 490 638 848 753 720 b 431 132 753 258 639 132 z m 100 979 l 100 564 l 20 564 l 20 439 l 100 439 l 100 0 l 446 0 b 909 491 737 0 909 182 b 446 979 909 800 736 979 z "},"E":{"ha":777,"x_min":0,"x_max":0,"o":"m 711 132 l 242 132 l 242 435 l 686 435 l 686 562 l 242 562 l 242 848 l 711 848 l 711 979 l 90 979 l 90 0 l 711 0 z "},"È":{"ha":777,"x_min":0,"x_max":0,"o":"m 711 132 l 242 132 l 242 435 l 686 435 l 686 562 l 242 562 l 242 848 l 711 848 l 711 979 l 90 979 l 90 0 l 711 0 z m 333 1059 l 456 1059 l 305 1259 l 155 1259 z "},"Ȅ":{"ha":777,"x_min":0,"x_max":0,"o":"m 711 132 l 242 132 l 242 435 l 686 435 l 686 562 l 242 562 l 242 848 l 711 848 l 711 979 l 90 979 l 90 0 l 711 0 z m 451 1057 l 574 1057 l 424 1257 l 273 1257 z m 215 1057 l 338 1057 l 187 1257 l 37 1257 z "},"É":{"ha":777,"x_min":0,"x_max":0,"o":"m 711 132 l 242 132 l 242 435 l 686 435 l 686 562 l 242 562 l 242 848 l 711 848 l 711 979 l 90 979 l 90 0 l 711 0 z m 468 1057 l 646 1257 l 496 1257 l 345 1057 z "},"Ê":{"ha":777,"x_min":0,"x_max":0,"o":"m 711 132 l 242 132 l 242 435 l 686 435 l 686 562 l 242 562 l 242 848 l 711 848 l 711 979 l 90 979 l 90 0 l 711 0 z m 345 1251 l 156 1044 l 282 1044 l 399 1174 l 403 1174 l 519 1044 l 646 1044 l 457 1251 z "},"Ể":{"ha":777,"x_min":0,"x_max":0,"o":"m 711 132 l 242 132 l 242 435 l 686 435 l 686 562 l 242 562 l 242 848 l 711 848 l 711 979 l 90 979 l 90 0 l 711 0 z m 340 1225 l 152 1044 l 283 1044 l 399 1158 l 403 1158 l 519 1044 l 650 1044 l 462 1225 z m 484 1328 b 545 1339 499 1335 522 1339 b 600 1296 576 1339 600 1321 b 547 1234 600 1270 581 1246 l 604 1183 b 690 1302 657 1202 690 1251 b 562 1412 690 1369 638 1412 b 484 1396 534 1412 504 1406 z "},"Ề":{"ha":777,"x_min":0,"x_max":0,"o":"m 711 132 l 242 132 l 242 435 l 686 435 l 686 562 l 242 562 l 242 848 l 711 848 l 711 979 l 90 979 l 90 0 l 711 0 z m 340 1225 l 152 1044 l 283 1044 l 399 1158 l 403 1158 l 519 1044 l 650 1044 l 462 1225 z m 648 1253 l 530 1407 l 396 1407 l 532 1253 z "},"Ễ":{"ha":777,"x_min":0,"x_max":0,"o":"m 711 132 l 242 132 l 242 435 l 686 435 l 686 562 l 242 562 l 242 848 l 711 848 l 711 979 l 90 979 l 90 0 l 711 0 z m 486 1255 b 622 1406 564 1255 622 1318 l 532 1406 b 481 1336 529 1362 509 1336 b 316 1421 434 1336 410 1421 b 180 1270 233 1421 180 1359 l 269 1270 b 321 1341 272 1314 290 1341 b 486 1255 368 1341 392 1255 z m 340 1219 l 152 1044 l 283 1044 l 399 1153 l 403 1153 l 519 1044 l 650 1044 l 462 1219 z "},"Ệ":{"ha":777,"x_min":0,"x_max":0,"o":"m 711 132 l 242 132 l 242 435 l 686 435 l 686 562 l 242 562 l 242 848 l 711 848 l 711 979 l 90 979 l 90 0 l 711 0 z m 345 1251 l 156 1044 l 282 1044 l 399 1174 l 403 1174 l 519 1044 l 646 1044 l 457 1251 z m 401 -280 b 490 -191 450 -280 490 -240 b 401 -102 490 -142 450 -102 b 312 -191 351 -102 312 -142 b 401 -280 312 -240 351 -280 z "},"Ế":{"ha":777,"x_min":0,"x_max":0,"o":"m 711 132 l 242 132 l 242 435 l 686 435 l 686 562 l 242 562 l 242 848 l 711 848 l 711 979 l 90 979 l 90 0 l 711 0 z m 340 1225 l 152 1044 l 283 1044 l 399 1158 l 403 1158 l 519 1044 l 650 1044 l 462 1225 z m 503 1253 l 619 1253 l 755 1407 l 621 1407 z "},"Ë":{"ha":777,"x_min":0,"x_max":0,"o":"m 711 132 l 242 132 l 242 435 l 686 435 l 686 562 l 242 562 l 242 848 l 711 848 l 711 979 l 90 979 l 90 0 l 711 0 z m 271 1080 b 351 1159 315 1080 351 1115 b 271 1238 351 1203 315 1238 b 190 1159 226 1238 190 1203 b 271 1080 190 1115 226 1080 z m 532 1080 b 612 1159 576 1080 612 1115 b 532 1238 612 1203 576 1238 b 451 1159 487 1238 451 1203 b 532 1080 451 1115 487 1080 z "},"Ẹ":{"ha":777,"x_min":0,"x_max":0,"o":"m 711 132 l 242 132 l 242 435 l 686 435 l 686 562 l 242 562 l 242 848 l 711 848 l 711 979 l 90 979 l 90 0 l 711 0 z m 401 -280 b 490 -191 450 -280 490 -240 b 401 -102 490 -142 450 -102 b 312 -191 351 -102 312 -142 b 401 -280 312 -240 351 -280 z "},"Ȇ":{"ha":777,"x_min":0,"x_max":0,"o":"m 711 132 l 242 132 l 242 435 l 686 435 l 686 562 l 242 562 l 242 848 l 711 848 l 711 979 l 90 979 l 90 0 l 711 0 z m 174 1045 l 273 1045 b 401 1171 281 1123 330 1171 b 528 1045 471 1171 521 1123 l 627 1045 b 401 1256 620 1158 538 1256 b 174 1045 263 1256 182 1158 z "},"Ẻ":{"ha":777,"x_min":0,"x_max":0,"o":"m 711 132 l 242 132 l 242 435 l 686 435 l 686 562 l 242 562 l 242 848 l 711 848 l 711 979 l 90 979 l 90 0 l 711 0 z m 286 1196 b 355 1208 306 1204 333 1208 b 417 1161 391 1208 417 1188 b 354 1092 417 1132 391 1104 l 401 1032 b 516 1168 469 1057 516 1109 b 374 1285 516 1240 458 1285 b 286 1270 342 1285 310 1280 z "},"Ě":{"ha":777,"x_min":0,"x_max":0,"o":"m 711 132 l 242 132 l 242 435 l 686 435 l 686 562 l 242 562 l 242 848 l 711 848 l 711 979 l 90 979 l 90 0 l 711 0 z m 345 1049 l 457 1049 l 646 1256 l 519 1256 l 403 1126 l 399 1126 l 282 1256 l 156 1256 z "},"Ē":{"ha":777,"x_min":0,"x_max":0,"o":"m 711 132 l 242 132 l 242 435 l 686 435 l 686 562 l 242 562 l 242 848 l 711 848 l 711 979 l 90 979 l 90 0 l 711 0 z m 623 1191 l 179 1191 l 179 1105 l 623 1105 z "},"Ḕ":{"ha":777,"x_min":0,"x_max":0,"o":"m 711 132 l 242 132 l 242 435 l 686 435 l 686 562 l 242 562 l 242 848 l 711 848 l 711 979 l 90 979 l 90 0 l 711 0 z m 179 1082 l 623 1082 l 623 1168 l 179 1168 z m 460 1253 l 342 1407 l 208 1407 l 344 1253 z "},"Ḗ":{"ha":777,"x_min":0,"x_max":0,"o":"m 711 132 l 242 132 l 242 435 l 686 435 l 686 562 l 242 562 l 242 848 l 711 848 l 711 979 l 90 979 l 90 0 l 711 0 z m 623 1082 l 623 1168 l 179 1168 l 179 1082 z m 345 1253 l 461 1253 l 597 1407 l 463 1407 z "},"Ẽ":{"ha":777,"x_min":0,"x_max":0,"o":"m 711 132 l 242 132 l 242 435 l 686 435 l 686 562 l 242 562 l 242 848 l 711 848 l 711 979 l 90 979 l 90 0 l 711 0 z m 492 1067 b 627 1246 570 1067 627 1135 l 537 1246 b 490 1154 537 1185 519 1154 b 313 1253 441 1154 409 1253 b 176 1076 233 1253 176 1190 l 267 1076 b 315 1166 264 1133 283 1166 b 492 1067 367 1166 401 1067 z "},"Ḙ":{"ha":777,"x_min":0,"x_max":0,"o":"m 711 132 l 242 132 l 242 435 l 686 435 l 686 562 l 242 562 l 242 848 l 711 848 l 711 979 l 90 979 l 90 0 l 711 0 z m 345 -90 l 156 -296 l 282 -296 l 399 -166 l 403 -166 l 519 -296 l 646 -296 l 457 -90 z "},"Ĕ":{"ha":777,"x_min":0,"x_max":0,"o":"m 711 132 l 242 132 l 242 435 l 686 435 l 686 562 l 242 562 l 242 848 l 711 848 l 711 979 l 90 979 l 90 0 l 711 0 z m 174 1256 b 401 1045 182 1143 263 1045 b 627 1256 538 1045 620 1143 l 528 1256 b 401 1130 521 1178 471 1130 b 273 1256 330 1130 281 1178 z "},"Ḛ":{"ha":777,"x_min":0,"x_max":0,"o":"m 711 132 l 242 132 l 242 435 l 686 435 l 686 562 l 242 562 l 242 848 l 711 848 l 711 979 l 90 979 l 90 0 l 711 0 z m 492 -247 b 627 -68 570 -247 627 -180 l 537 -68 b 490 -161 537 -129 519 -161 b 313 -62 441 -161 409 -62 b 176 -239 233 -62 176 -125 l 267 -239 b 315 -148 264 -181 283 -148 b 492 -247 367 -148 401 -247 z "},"Ė":{"ha":777,"x_min":0,"x_max":0,"o":"m 711 132 l 242 132 l 242 435 l 686 435 l 686 562 l 242 562 l 242 848 l 711 848 l 711 979 l 90 979 l 90 0 l 711 0 z m 401 1069 b 490 1158 450 1069 490 1109 b 401 1246 490 1207 450 1246 b 312 1158 351 1246 312 1207 b 401 1069 312 1109 351 1069 z "},"Ȩ":{"ha":777,"x_min":0,"x_max":0,"o":"m 711 848 l 711 979 l 90 979 l 90 0 l 366 0 l 324 -100 l 324 -154 l 370 -154 b 463 -195 435 -154 463 -165 b 381 -240 463 -224 435 -240 b 300 -232 353 -240 315 -235 l 300 -306 b 399 -315 317 -311 360 -316 b 562 -193 493 -314 562 -272 b 422 -83 562 -123 507 -84 l 459 0 l 711 0 l 711 132 l 242 132 l 242 435 l 686 435 l 686 562 l 242 562 l 242 848 z "},"Ḝ":{"ha":777,"x_min":0,"x_max":0,"o":"m 528 1256 b 401 1130 521 1178 471 1130 b 273 1256 330 1130 281 1178 l 174 1256 b 401 1045 182 1143 263 1045 b 627 1256 538 1045 620 1143 z m 711 848 l 711 979 l 90 979 l 90 0 l 366 0 l 324 -100 l 324 -154 l 370 -154 b 463 -195 435 -154 463 -165 b 381 -240 463 -224 435 -240 b 300 -232 353 -240 315 -235 l 300 -306 b 399 -315 317 -311 360 -316 b 562 -193 493 -314 562 -272 b 422 -83 562 -123 507 -84 l 459 0 l 711 0 l 711 132 l 242 132 l 242 435 l 686 435 l 686 562 l 242 562 l 242 848 z "},"Ę":{"ha":777,"x_min":0,"x_max":0,"o":"m 90 0 l 532 0 l 532 -3 b 431 -165 467 -48 431 -104 b 595 -300 431 -246 500 -300 b 682 -287 635 -300 667 -294 l 682 -196 b 628 -202 667 -199 647 -202 b 547 -136 582 -202 547 -180 b 694 2 547 -88 602 -32 l 711 7 l 711 132 l 242 132 l 242 435 l 686 435 l 686 562 l 242 562 l 242 848 l 711 848 l 711 979 l 90 979 z "},"F":{"ha":743,"x_min":0,"x_max":0,"o":"m 242 0 l 242 410 l 663 410 l 663 538 l 242 538 l 242 848 l 701 848 l 701 979 l 90 979 l 90 0 z "},"Ḟ":{"ha":743,"x_min":0,"x_max":0,"o":"m 242 0 l 242 410 l 663 410 l 663 538 l 242 538 l 242 848 l 701 848 l 701 979 l 90 979 l 90 0 z m 393 1069 b 481 1158 442 1069 481 1109 b 393 1246 481 1207 442 1246 b 304 1158 343 1246 304 1207 b 393 1069 304 1109 343 1069 z "},"G":{"ha":991,"x_min":0,"x_max":0,"o":"m 933 407 l 933 507 l 530 507 l 530 384 l 783 384 l 783 367 b 513 117 781 218 671 117 b 210 495 326 117 210 261 b 510 862 210 725 323 862 b 770 671 637 862 733 792 l 926 671 b 509 995 892 866 727 995 b 55 494 231 995 55 802 b 511 -16 55 180 231 -16 b 933 407 777 -16 933 142 z "},"Ǵ":{"ha":991,"x_min":0,"x_max":0,"o":"m 933 407 l 933 507 l 530 507 l 530 384 l 783 384 l 783 367 b 513 117 781 218 671 117 b 210 495 326 117 210 261 b 510 862 210 725 323 862 b 770 671 637 862 733 792 l 926 671 b 509 995 892 866 727 995 b 55 494 231 995 55 802 b 511 -16 55 180 231 -16 b 933 407 777 -16 933 142 z m 574 1057 l 752 1257 l 602 1257 l 451 1057 z "},"Ǧ":{"ha":991,"x_min":0,"x_max":0,"o":"m 933 407 l 933 507 l 530 507 l 530 384 l 783 384 l 783 367 b 513 117 781 218 671 117 b 210 495 326 117 210 261 b 510 862 210 725 323 862 b 770 671 637 862 733 792 l 926 671 b 509 995 892 866 727 995 b 55 494 231 995 55 802 b 511 -16 55 180 231 -16 b 933 407 777 -16 933 142 z m 450 1049 l 563 1049 l 751 1256 l 625 1256 l 509 1126 l 505 1126 l 388 1256 l 262 1256 z "},"Ĝ":{"ha":991,"x_min":0,"x_max":0,"o":"m 933 407 l 933 507 l 530 507 l 530 384 l 783 384 l 783 367 b 513 117 781 218 671 117 b 210 495 326 117 210 261 b 510 862 210 725 323 862 b 770 671 637 862 733 792 l 926 671 b 509 995 892 866 727 995 b 55 494 231 995 55 802 b 511 -16 55 180 231 -16 b 933 407 777 -16 933 142 z m 450 1251 l 262 1044 l 388 1044 l 505 1174 l 509 1174 l 625 1044 l 751 1044 l 563 1251 z "},"Ğ":{"ha":991,"x_min":0,"x_max":0,"o":"m 933 407 l 933 507 l 530 507 l 530 384 l 783 384 l 783 367 b 513 117 781 218 671 117 b 210 495 326 117 210 261 b 510 862 210 725 323 862 b 770 671 637 862 733 792 l 926 671 b 509 995 892 866 727 995 b 55 494 231 995 55 802 b 511 -16 55 180 231 -16 b 933 407 777 -16 933 142 z m 280 1256 b 507 1045 288 1143 369 1045 b 733 1256 644 1045 726 1143 l 634 1256 b 507 1130 627 1178 577 1130 b 379 1256 436 1130 387 1178 z "},"Ḡ":{"ha":991,"x_min":0,"x_max":0,"o":"m 933 407 l 933 507 l 530 507 l 530 384 l 783 384 l 783 367 b 513 117 781 218 671 117 b 210 495 326 117 210 261 b 510 862 210 725 323 862 b 770 671 637 862 733 792 l 926 671 b 509 995 892 866 727 995 b 55 494 231 995 55 802 b 511 -16 55 180 231 -16 b 933 407 777 -16 933 142 z m 728 1191 l 285 1191 l 285 1105 l 728 1105 z "},"Ġ":{"ha":991,"x_min":0,"x_max":0,"o":"m 933 407 l 933 507 l 530 507 l 530 384 l 783 384 l 783 367 b 513 117 781 218 671 117 b 210 495 326 117 210 261 b 510 862 210 725 323 862 b 770 671 637 862 733 792 l 926 671 b 509 995 892 866 727 995 b 55 494 231 995 55 802 b 511 -16 55 180 231 -16 b 933 407 777 -16 933 142 z m 507 1069 b 595 1158 556 1069 595 1109 b 507 1246 595 1207 556 1246 b 418 1158 457 1246 418 1207 b 507 1069 418 1109 457 1069 z "},"Ģ":{"ha":991,"x_min":0,"x_max":0,"o":"m 933 407 l 933 507 l 530 507 l 530 384 l 783 384 l 783 367 b 513 117 781 218 671 117 b 210 495 326 117 210 261 b 510 862 210 725 323 862 b 770 671 637 862 733 792 l 926 671 b 509 995 892 866 727 995 b 55 494 231 995 55 802 b 511 -16 55 180 231 -16 b 933 407 777 -16 933 142 z m 488 -326 l 587 -87 l 458 -87 l 380 -326 z "},"H":{"ha":986,"x_min":0,"x_max":0,"o":"m 897 0 l 897 979 l 745 979 l 745 565 l 242 565 l 242 979 l 90 979 l 90 0 l 242 0 l 242 433 l 745 433 l 745 0 z "},"Ḧ":{"ha":986,"x_min":0,"x_max":0,"o":"m 897 0 l 897 979 l 745 979 l 745 565 l 242 565 l 242 979 l 90 979 l 90 0 l 242 0 l 242 433 l 745 433 l 745 0 z m 363 1080 b 443 1159 407 1080 443 1115 b 363 1238 443 1203 407 1238 b 282 1159 318 1238 282 1203 b 363 1080 282 1115 318 1080 z m 624 1080 b 704 1159 668 1080 704 1115 b 624 1238 704 1203 668 1238 b 543 1159 579 1238 543 1203 b 624 1080 543 1115 579 1080 z "},"Ȟ":{"ha":986,"x_min":0,"x_max":0,"o":"m 897 0 l 897 979 l 745 979 l 745 565 l 242 565 l 242 979 l 90 979 l 90 0 l 242 0 l 242 433 l 745 433 l 745 0 z m 437 1049 l 549 1049 l 738 1256 l 612 1256 l 495 1126 l 491 1126 l 374 1256 l 248 1256 z "},"Ĥ":{"ha":986,"x_min":0,"x_max":0,"o":"m 897 0 l 897 979 l 745 979 l 745 565 l 242 565 l 242 979 l 90 979 l 90 0 l 242 0 l 242 433 l 745 433 l 745 0 z m 437 1251 l 248 1044 l 374 1044 l 491 1174 l 495 1174 l 612 1044 l 738 1044 l 549 1251 z "},"Ḥ":{"ha":986,"x_min":0,"x_max":0,"o":"m 897 0 l 897 979 l 745 979 l 745 565 l 242 565 l 242 979 l 90 979 l 90 0 l 242 0 l 242 433 l 745 433 l 745 0 z m 493 -280 b 582 -191 543 -280 582 -240 b 493 -102 582 -142 543 -102 b 404 -191 444 -102 404 -142 b 493 -280 404 -240 444 -280 z "},"Ḣ":{"ha":986,"x_min":0,"x_max":0,"o":"m 897 0 l 897 979 l 745 979 l 745 565 l 242 565 l 242 979 l 90 979 l 90 0 l 242 0 l 242 433 l 745 433 l 745 0 z m 493 1069 b 582 1158 543 1069 582 1109 b 493 1246 582 1207 543 1246 b 404 1158 444 1246 404 1207 b 493 1069 404 1109 444 1069 z "},"Ḫ":{"ha":986,"x_min":0,"x_max":0,"o":"m 897 0 l 897 979 l 745 979 l 745 565 l 242 565 l 242 979 l 90 979 l 90 0 l 242 0 l 242 433 l 745 433 l 745 0 z m 267 -75 b 493 -286 274 -188 355 -286 b 720 -75 631 -286 712 -188 l 621 -75 b 493 -201 613 -153 564 -201 b 366 -75 422 -201 373 -153 z "},"Ḩ":{"ha":986,"x_min":0,"x_max":0,"o":"m 745 979 l 745 565 l 242 565 l 242 979 l 90 979 l 90 0 l 148 0 l 106 -100 l 106 -154 l 152 -154 b 245 -195 218 -154 245 -165 b 163 -240 245 -224 218 -240 b 82 -232 136 -240 97 -235 l 82 -306 b 182 -315 100 -311 142 -316 b 344 -193 275 -314 344 -272 b 205 -83 344 -123 289 -84 l 241 0 l 242 0 l 242 433 l 745 433 l 745 0 l 897 0 l 897 979 z "},"Ħ":{"ha":993,"x_min":0,"x_max":0,"o":"m 748 565 l 245 565 l 245 724 l 748 724 z m 984 837 l 900 837 l 900 979 l 748 979 l 748 837 l 245 837 l 245 979 l 94 979 l 94 837 l 9 837 l 9 724 l 94 724 l 94 0 l 245 0 l 245 433 l 748 433 l 748 0 l 900 0 l 900 724 l 984 724 z "},"I":{"ha":332,"x_min":0,"x_max":0,"o":"m 242 0 l 242 979 l 90 979 l 90 0 z "},"İ":{"ha":332,"x_min":0,"x_max":0,"o":"m 242 0 l 242 979 l 90 979 l 90 0 z m 166 1069 b 255 1158 216 1069 255 1109 b 166 1246 255 1207 216 1246 b 77 1158 117 1246 77 1207 b 166 1069 77 1109 117 1069 z "},"Ì":{"ha":332,"x_min":0,"x_max":0,"o":"m 242 0 l 242 979 l 90 979 l 90 0 z m 98 1059 l 221 1059 l 71 1259 l -80 1259 z "},"Ȉ":{"ha":332,"x_min":0,"x_max":0,"o":"m 242 0 l 242 979 l 90 979 l 90 0 z m 216 1057 l 340 1057 l 189 1257 l 39 1257 z m -20 1057 l 103 1057 l -47 1257 l -198 1257 z "},"Í":{"ha":332,"x_min":0,"x_max":0,"o":"m 242 0 l 242 979 l 90 979 l 90 0 z m 233 1057 l 412 1257 l 261 1257 l 111 1057 z "},"Î":{"ha":332,"x_min":0,"x_max":0,"o":"m 242 0 l 242 979 l 90 979 l 90 0 z m 110 1251 l -79 1044 l 47 1044 l 164 1174 l 168 1174 l 285 1044 l 411 1044 l 222 1251 z "},"Ǐ":{"ha":332,"x_min":0,"x_max":0,"o":"m 242 0 l 242 979 l 90 979 l 90 0 z m 110 1049 l 222 1049 l 411 1256 l 285 1256 l 168 1126 l 164 1126 l 47 1256 l -79 1256 z "},"Ï":{"ha":332,"x_min":0,"x_max":0,"o":"m 242 0 l 242 979 l 90 979 l 90 0 z m 36 1080 b 116 1159 80 1080 116 1115 b 36 1238 116 1203 80 1238 b -45 1159 -9 1238 -45 1203 b 36 1080 -45 1115 -9 1080 z m 297 1080 b 377 1159 341 1080 377 1115 b 297 1238 377 1203 341 1238 b 216 1159 252 1238 216 1203 b 297 1080 216 1115 252 1080 z "},"Ḯ":{"ha":332,"x_min":0,"x_max":0,"o":"m 242 0 l 242 979 l 90 979 l 90 0 z m 102 1253 l 218 1253 l 353 1407 l 220 1407 z m 41 1052 b 118 1129 83 1052 118 1086 b 41 1206 118 1172 83 1206 b -37 1129 -3 1206 -37 1172 b 41 1052 -37 1086 -3 1052 z m 292 1052 b 370 1129 335 1052 370 1086 b 292 1206 370 1172 335 1206 b 214 1129 249 1206 214 1172 b 292 1052 214 1086 249 1052 z "},"Ĭ":{"ha":332,"x_min":0,"x_max":0,"o":"m 242 0 l 242 979 l 90 979 l 90 0 z m -60 1256 b 166 1045 -53 1143 28 1045 b 393 1256 304 1045 385 1143 l 294 1256 b 166 1130 286 1178 237 1130 b 39 1256 96 1130 46 1178 z "},"Ị":{"ha":332,"x_min":0,"x_max":0,"o":"m 242 0 l 242 979 l 90 979 l 90 0 z m 166 -280 b 255 -191 216 -280 255 -240 b 166 -102 255 -142 216 -102 b 77 -191 117 -102 77 -142 b 166 -280 77 -240 117 -280 z "},"Ȋ":{"ha":332,"x_min":0,"x_max":0,"o":"m 242 0 l 242 979 l 90 979 l 90 0 z m -60 1045 l 39 1045 b 166 1171 46 1123 96 1171 b 294 1045 237 1171 286 1123 l 393 1045 b 166 1256 385 1158 304 1256 b -60 1045 28 1256 -53 1158 z "},"Ī":{"ha":332,"x_min":0,"x_max":0,"o":"m 242 0 l 242 979 l 90 979 l 90 0 z m 388 1191 l -56 1191 l -56 1105 l 388 1105 z "},"Ḭ":{"ha":332,"x_min":0,"x_max":0,"o":"m 242 0 l 242 979 l 90 979 l 90 0 z m 258 -247 b 393 -68 335 -247 393 -180 l 302 -68 b 256 -161 302 -129 285 -161 b 78 -62 206 -161 174 -62 b -58 -239 -1 -62 -58 -125 l 32 -239 b 80 -148 30 -181 49 -148 b 258 -247 132 -148 167 -247 z "},"Ỉ":{"ha":332,"x_min":0,"x_max":0,"o":"m 242 0 l 242 979 l 90 979 l 90 0 z m 52 1196 b 121 1208 71 1204 98 1208 b 182 1161 157 1208 182 1188 b 119 1092 182 1132 157 1104 l 167 1032 b 281 1168 235 1057 281 1109 b 139 1285 281 1240 224 1285 b 52 1270 107 1285 75 1280 z "},"Ĩ":{"ha":332,"x_min":0,"x_max":0,"o":"m 242 0 l 242 979 l 90 979 l 90 0 z m 258 1067 b 393 1246 335 1067 393 1135 l 302 1246 b 256 1154 302 1185 285 1154 b 78 1253 206 1154 174 1253 b -58 1076 -1 1253 -58 1190 l 32 1076 b 80 1166 30 1133 49 1166 b 258 1067 132 1166 167 1067 z "},"Į":{"ha":332,"x_min":0,"x_max":0,"o":"m 90 -9 b 3 -165 35 -55 3 -108 b 166 -300 3 -245 72 -300 b 254 -287 210 -300 240 -294 l 254 -196 b 200 -202 239 -199 218 -202 b 117 -136 153 -202 117 -180 b 234 -1 117 -86 172 -37 l 242 2 l 242 979 l 90 979 z "},"J":{"ha":719,"x_min":0,"x_max":0,"o":"m 26 251 b 322 -22 26 88 146 -22 b 627 285 513 -22 627 91 l 627 979 l 475 979 l 475 286 b 321 114 475 174 420 114 b 175 251 236 114 177 170 z "},"Ĵ":{"ha":719,"x_min":0,"x_max":0,"o":"m 26 251 b 322 -22 26 88 146 -22 b 627 285 513 -22 627 91 l 627 979 l 475 979 l 475 286 b 321 114 475 174 420 114 b 175 251 236 114 177 170 z m 495 1251 l 307 1044 l 433 1044 l 549 1174 l 553 1174 l 670 1044 l 796 1044 l 608 1251 z "},"K":{"ha":877,"x_min":0,"x_max":0,"o":"m 242 0 l 242 326 l 342 441 l 682 0 l 870 0 l 450 545 l 838 979 l 657 979 l 248 513 l 242 513 l 242 979 l 90 979 l 90 0 z "},"Ḱ":{"ha":877,"x_min":0,"x_max":0,"o":"m 242 0 l 242 326 l 342 441 l 682 0 l 870 0 l 450 545 l 838 979 l 657 979 l 248 513 l 242 513 l 242 979 l 90 979 l 90 0 z m 494 1057 l 672 1257 l 522 1257 l 371 1057 z "},"Ǩ":{"ha":877,"x_min":0,"x_max":0,"o":"m 242 0 l 242 326 l 342 441 l 682 0 l 870 0 l 450 545 l 838 979 l 657 979 l 248 513 l 242 513 l 242 979 l 90 979 l 90 0 z m 370 1049 l 483 1049 l 671 1256 l 545 1256 l 429 1126 l 425 1126 l 308 1256 l 182 1256 z "},"Ḳ":{"ha":877,"x_min":0,"x_max":0,"o":"m 242 0 l 242 326 l 342 441 l 682 0 l 870 0 l 450 545 l 838 979 l 657 979 l 248 513 l 242 513 l 242 979 l 90 979 l 90 0 z m 427 -280 b 515 -191 476 -280 515 -240 b 427 -102 515 -142 476 -102 b 338 -191 377 -102 338 -142 b 427 -280 338 -240 377 -280 z "},"Ḵ":{"ha":877,"x_min":0,"x_max":0,"o":"m 242 0 l 242 326 l 342 441 l 682 0 l 870 0 l 450 545 l 838 979 l 657 979 l 248 513 l 242 513 l 242 979 l 90 979 l 90 0 z m 648 -151 l 205 -151 l 205 -237 l 648 -237 z "},"Ķ":{"ha":877,"x_min":0,"x_max":0,"o":"m 242 0 l 242 326 l 342 441 l 682 0 l 870 0 l 450 545 l 838 979 l 657 979 l 248 513 l 242 513 l 242 979 l 90 979 l 90 0 z m 408 -326 l 507 -87 l 378 -87 l 300 -326 z "},"L":{"ha":738,"x_min":0,"x_max":0,"o":"m 698 132 l 242 132 l 242 979 l 90 979 l 90 0 l 698 0 z "},"Ĺ":{"ha":738,"x_min":0,"x_max":0,"o":"m 698 132 l 242 132 l 242 979 l 90 979 l 90 0 l 698 0 z m 233 1057 l 412 1257 l 261 1257 l 111 1057 z "},"Ḽ":{"ha":738,"x_min":0,"x_max":0,"o":"m 698 132 l 242 132 l 242 979 l 90 979 l 90 0 l 698 0 z m 335 -90 l 146 -296 l 273 -296 l 389 -166 l 393 -166 l 510 -296 l 636 -296 l 448 -90 z "},"Ḷ":{"ha":738,"x_min":0,"x_max":0,"o":"m 698 132 l 242 132 l 242 979 l 90 979 l 90 0 l 698 0 z m 391 -280 b 480 -191 441 -280 480 -240 b 391 -102 480 -142 441 -102 b 302 -191 342 -102 302 -142 b 391 -280 302 -240 342 -280 z "},"Ḹ":{"ha":738,"x_min":0,"x_max":0,"o":"m 698 132 l 242 132 l 242 979 l 90 979 l 90 0 l 698 0 z m 391 -280 b 480 -191 441 -280 480 -240 b 391 -102 480 -142 441 -102 b 302 -191 342 -102 302 -142 b 391 -280 302 -240 342 -280 z m 388 1191 l -56 1191 l -56 1105 l 388 1105 z "},"Ḻ":{"ha":738,"x_min":0,"x_max":0,"o":"m 698 132 l 242 132 l 242 979 l 90 979 l 90 0 l 698 0 z m 613 -151 l 170 -151 l 170 -237 l 613 -237 z "},"Ļ":{"ha":738,"x_min":0,"x_max":0,"o":"m 698 132 l 242 132 l 242 979 l 90 979 l 90 0 l 698 0 z m 372 -326 l 472 -87 l 343 -87 l 264 -326 z "},"Ľ":{"ha":738,"x_min":0,"x_max":0,"o":"m 420 979 l 420 644 l 520 644 l 554 979 z m 698 132 l 242 132 l 242 979 l 90 979 l 90 0 l 698 0 z "},"Ł":{"ha":741,"x_min":0,"x_max":0,"o":"m 245 132 l 245 531 l 463 634 l 463 745 l 245 642 l 245 979 l 94 979 l 94 570 l 16 534 l 16 422 l 94 459 l 94 0 l 701 0 l 701 132 z "},"M":{"ha":1171,"x_min":0,"x_max":0,"o":"m 1080 0 l 1080 979 l 904 979 l 588 206 l 583 206 l 266 979 l 90 979 l 90 0 l 229 0 l 229 720 l 233 720 l 529 7 l 642 7 l 937 720 l 941 720 l 941 0 z "},"Ḿ":{"ha":1171,"x_min":0,"x_max":0,"o":"m 1080 0 l 1080 979 l 904 979 l 588 206 l 583 206 l 266 979 l 90 979 l 90 0 l 229 0 l 229 720 l 233 720 l 529 7 l 642 7 l 937 720 l 941 720 l 941 0 z m 652 1057 l 831 1257 l 680 1257 l 530 1057 z "},"Ṁ":{"ha":1171,"x_min":0,"x_max":0,"o":"m 1080 0 l 1080 979 l 904 979 l 588 206 l 583 206 l 266 979 l 90 979 l 90 0 l 229 0 l 229 720 l 233 720 l 529 7 l 642 7 l 937 720 l 941 720 l 941 0 z m 585 1069 b 674 1158 635 1069 674 1109 b 585 1246 674 1207 635 1246 b 496 1158 536 1246 496 1207 b 585 1069 496 1109 536 1069 z "},"Ṃ":{"ha":1171,"x_min":0,"x_max":0,"o":"m 1080 0 l 1080 979 l 904 979 l 588 206 l 583 206 l 266 979 l 90 979 l 90 0 l 229 0 l 229 720 l 233 720 l 529 7 l 642 7 l 937 720 l 941 720 l 941 0 z m 585 -280 b 674 -191 635 -280 674 -240 b 585 -102 674 -142 635 -102 b 496 -191 536 -102 496 -142 b 585 -280 496 -240 536 -280 z "},"N":{"ha":979,"x_min":0,"x_max":0,"o":"m 238 0 l 238 721 l 244 721 l 751 0 l 888 0 l 888 979 l 741 979 l 741 257 l 735 257 l 228 979 l 90 979 l 90 0 z "},"Ǹ":{"ha":979,"x_min":0,"x_max":0,"o":"m 238 0 l 238 721 l 244 721 l 751 0 l 888 0 l 888 979 l 741 979 l 741 257 l 735 257 l 228 979 l 90 979 l 90 0 z m 422 1059 l 545 1059 l 394 1259 l 243 1259 z "},"Ń":{"ha":979,"x_min":0,"x_max":0,"o":"m 238 0 l 238 721 l 244 721 l 751 0 l 888 0 l 888 979 l 741 979 l 741 257 l 735 257 l 228 979 l 90 979 l 90 0 z m 557 1057 l 735 1257 l 585 1257 l 434 1057 z "},"Ñ":{"ha":979,"x_min":0,"x_max":0,"o":"m 238 0 l 238 721 l 244 721 l 751 0 l 888 0 l 888 979 l 741 979 l 741 257 l 735 257 l 228 979 l 90 979 l 90 0 z m 581 1067 b 716 1246 659 1067 716 1135 l 626 1246 b 579 1154 626 1185 608 1154 b 401 1253 530 1154 498 1253 b 265 1076 322 1253 265 1190 l 355 1076 b 404 1166 353 1133 372 1166 b 581 1067 456 1166 490 1067 z "},"Ṇ":{"ha":979,"x_min":0,"x_max":0,"o":"m 238 0 l 238 721 l 244 721 l 751 0 l 888 0 l 888 979 l 741 979 l 741 257 l 735 257 l 228 979 l 90 979 l 90 0 z m 490 -280 b 578 -191 539 -280 578 -240 b 490 -102 578 -142 539 -102 b 401 -191 440 -102 401 -142 b 490 -280 401 -240 440 -280 z "},"Ṅ":{"ha":979,"x_min":0,"x_max":0,"o":"m 238 0 l 238 721 l 244 721 l 751 0 l 888 0 l 888 979 l 741 979 l 741 257 l 735 257 l 228 979 l 90 979 l 90 0 z m 490 1069 b 578 1158 539 1069 578 1109 b 490 1246 578 1207 539 1246 b 401 1158 440 1246 401 1207 b 490 1069 401 1109 440 1069 z "},"Ň":{"ha":979,"x_min":0,"x_max":0,"o":"m 238 0 l 238 721 l 244 721 l 751 0 l 888 0 l 888 979 l 741 979 l 741 257 l 735 257 l 228 979 l 90 979 l 90 0 z m 433 1049 l 546 1049 l 734 1256 l 608 1256 l 492 1126 l 488 1126 l 371 1256 l 245 1256 z "},"Ṋ":{"ha":979,"x_min":0,"x_max":0,"o":"m 238 0 l 238 721 l 244 721 l 751 0 l 888 0 l 888 979 l 741 979 l 741 257 l 735 257 l 228 979 l 90 979 l 90 0 z m 433 -90 l 245 -296 l 371 -296 l 488 -166 l 492 -166 l 608 -296 l 734 -296 l 546 -90 z "},"Ṉ":{"ha":979,"x_min":0,"x_max":0,"o":"m 238 0 l 238 721 l 244 721 l 751 0 l 888 0 l 888 979 l 741 979 l 741 257 l 735 257 l 228 979 l 90 979 l 90 0 z m 711 -151 l 268 -151 l 268 -237 l 711 -237 z "},"Ņ":{"ha":979,"x_min":0,"x_max":0,"o":"m 238 0 l 238 721 l 244 721 l 751 0 l 888 0 l 888 979 l 741 979 l 741 257 l 735 257 l 228 979 l 90 979 l 90 0 z m 471 -326 l 570 -87 l 441 -87 l 363 -326 z "},"O":{"ha":1026,"x_min":0,"x_max":0,"o":"m 513 995 b 55 489 231 995 55 800 b 513 -16 55 178 231 -16 b 972 489 795 -16 972 178 b 513 995 972 800 795 995 z m 513 861 b 816 489 699 861 816 718 b 513 117 816 261 699 117 b 210 489 328 117 210 261 b 513 861 210 718 328 861 z "},"Ö":{"ha":1026,"x_min":0,"x_max":0,"o":"m 513 995 b 55 489 231 995 55 800 b 513 -16 55 178 231 -16 b 972 489 795 -16 972 178 b 513 995 972 800 795 995 z m 513 861 b 816 489 699 861 816 718 b 513 117 816 261 699 117 b 210 489 328 117 210 261 b 513 861 210 718 328 861 z m 383 1080 b 463 1159 427 1080 463 1115 b 383 1238 463 1203 427 1238 b 302 1159 338 1238 302 1203 b 383 1080 302 1115 338 1080 z m 644 1080 b 724 1159 688 1080 724 1115 b 644 1238 724 1203 688 1238 b 564 1159 600 1238 564 1203 b 644 1080 564 1115 600 1080 z "},"Ø":{"ha":1026,"x_min":0,"x_max":0,"o":"m 755 731 b 816 489 795 669 816 587 b 513 117 816 261 699 117 b 345 168 448 117 391 135 z m 285 227 b 210 489 237 291 210 380 b 513 861 210 718 328 861 b 701 795 588 861 652 838 z m 929 969 l 861 1013 l 787 913 b 513 995 714 966 621 995 b 55 489 231 995 55 800 b 194 104 55 323 105 191 l 127 13 l 196 -37 l 260 51 b 513 -16 330 7 415 -16 b 972 489 795 -16 972 178 b 848 859 972 644 928 771 z "},"Õ":{"ha":1026,"x_min":0,"x_max":0,"o":"m 513 995 b 55 489 231 995 55 800 b 513 -16 55 178 231 -16 b 972 489 795 -16 972 178 b 513 995 972 800 795 995 z m 513 861 b 816 489 699 861 816 718 b 513 117 816 261 699 117 b 210 489 328 117 210 261 b 513 861 210 718 328 861 z m 605 1067 b 740 1246 682 1067 740 1135 l 650 1246 b 603 1154 650 1185 632 1154 b 425 1253 553 1154 522 1253 b 289 1076 346 1253 289 1190 l 379 1076 b 427 1166 377 1133 396 1166 b 605 1067 479 1166 514 1067 z "},"Ó":{"ha":1026,"x_min":0,"x_max":0,"o":"m 513 995 b 55 489 231 995 55 800 b 513 -16 55 178 231 -16 b 972 489 795 -16 972 178 b 513 995 972 800 795 995 z m 513 861 b 816 489 699 861 816 718 b 513 117 816 261 699 117 b 210 489 328 117 210 261 b 513 861 210 718 328 861 z m 581 1057 l 759 1257 l 608 1257 l 458 1057 z "},"Ô":{"ha":1026,"x_min":0,"x_max":0,"o":"m 513 995 b 55 489 231 995 55 800 b 513 -16 55 178 231 -16 b 972 489 795 -16 972 178 b 513 995 972 800 795 995 z m 513 861 b 816 489 699 861 816 718 b 513 117 816 261 699 117 b 210 489 328 117 210 261 b 513 861 210 718 328 861 z m 457 1251 l 269 1044 l 395 1044 l 511 1174 l 515 1174 l 632 1044 l 758 1044 l 570 1251 z "},"Ò":{"ha":1026,"x_min":0,"x_max":0,"o":"m 513 995 b 55 489 231 995 55 800 b 513 -16 55 178 231 -16 b 972 489 795 -16 972 178 b 513 995 972 800 795 995 z m 513 861 b 816 489 699 861 816 718 b 513 117 816 261 699 117 b 210 489 328 117 210 261 b 513 861 210 718 328 861 z m 446 1059 l 568 1059 l 418 1259 l 267 1259 z "},"Ổ":{"ha":1026,"x_min":0,"x_max":0,"o":"m 513 995 b 55 489 231 995 55 800 b 513 -16 55 178 231 -16 b 972 489 795 -16 972 178 b 513 995 972 800 795 995 z m 513 861 b 816 489 699 861 816 718 b 513 117 816 261 699 117 b 210 489 328 117 210 261 b 513 861 210 718 328 861 z m 452 1225 l 264 1044 l 395 1044 l 511 1158 l 515 1158 l 631 1044 l 762 1044 l 574 1225 z m 596 1328 b 657 1339 612 1335 635 1339 b 712 1296 689 1339 712 1321 b 660 1234 712 1270 693 1246 l 716 1183 b 802 1302 770 1202 802 1251 b 674 1412 802 1369 751 1412 b 596 1396 647 1412 616 1406 z "},"Ồ":{"ha":1026,"x_min":0,"x_max":0,"o":"m 513 995 b 55 489 231 995 55 800 b 513 -16 55 178 231 -16 b 972 489 795 -16 972 178 b 513 995 972 800 795 995 z m 513 861 b 816 489 699 861 816 718 b 513 117 816 261 699 117 b 210 489 328 117 210 261 b 513 861 210 718 328 861 z m 452 1225 l 264 1044 l 395 1044 l 511 1158 l 515 1158 l 631 1044 l 762 1044 l 574 1225 z m 761 1253 l 642 1407 l 509 1407 l 644 1253 z "},"Ọ":{"ha":1026,"x_min":0,"x_max":0,"o":"m 513 995 b 55 489 231 995 55 800 b 513 -16 55 178 231 -16 b 972 489 795 -16 972 178 b 513 995 972 800 795 995 z m 513 861 b 816 489 699 861 816 718 b 513 117 816 261 699 117 b 210 489 328 117 210 261 b 513 861 210 718 328 861 z m 513 -280 b 602 -191 563 -280 602 -240 b 513 -102 602 -142 563 -102 b 425 -191 464 -102 425 -142 b 513 -280 425 -240 464 -280 z "},"Ȍ":{"ha":1026,"x_min":0,"x_max":0,"o":"m 513 995 b 55 489 231 995 55 800 b 513 -16 55 178 231 -16 b 972 489 795 -16 972 178 b 513 995 972 800 795 995 z m 513 861 b 816 489 699 861 816 718 b 513 117 816 261 699 117 b 210 489 328 117 210 261 b 513 861 210 718 328 861 z m 564 1057 l 687 1057 l 536 1257 l 386 1257 z m 328 1057 l 450 1057 l 300 1257 l 149 1257 z "},"Ṍ":{"ha":1026,"x_min":0,"x_max":0,"o":"m 513 995 b 55 489 231 995 55 800 b 513 -16 55 178 231 -16 b 972 489 795 -16 972 178 b 513 995 972 800 795 995 z m 513 861 b 816 489 699 861 816 718 b 513 117 816 261 699 117 b 210 489 328 117 210 261 b 513 861 210 718 328 861 z m 602 1045 b 731 1215 675 1045 731 1110 l 645 1215 b 600 1129 644 1160 628 1129 b 427 1226 547 1129 514 1226 b 296 1058 349 1226 296 1164 l 382 1058 b 429 1142 380 1109 399 1142 b 602 1045 479 1142 513 1045 z m 458 1264 l 574 1264 l 709 1407 l 576 1407 z "},"Ṓ":{"ha":1026,"x_min":0,"x_max":0,"o":"m 513 995 b 55 489 231 995 55 800 b 513 -16 55 178 231 -16 b 972 489 795 -16 972 178 b 513 995 972 800 795 995 z m 513 861 b 816 489 699 861 816 718 b 513 117 816 261 699 117 b 210 489 328 117 210 261 b 513 861 210 718 328 861 z m 735 1082 l 735 1168 l 292 1168 l 292 1082 z m 458 1253 l 574 1253 l 709 1407 l 576 1407 z "},"Ỗ":{"ha":1026,"x_min":0,"x_max":0,"o":"m 513 995 b 55 489 231 995 55 800 b 513 -16 55 178 231 -16 b 972 489 795 -16 972 178 b 513 995 972 800 795 995 z m 513 861 b 816 489 699 861 816 718 b 513 117 816 261 699 117 b 210 489 328 117 210 261 b 513 861 210 718 328 861 z m 598 1255 b 734 1406 677 1255 734 1318 l 645 1406 b 593 1336 642 1362 621 1336 b 429 1421 547 1336 522 1421 b 292 1270 346 1421 292 1359 l 382 1270 b 433 1341 385 1314 403 1341 b 598 1255 480 1341 505 1255 z m 452 1219 l 264 1044 l 395 1044 l 511 1153 l 515 1153 l 631 1044 l 762 1044 l 574 1219 z "},"Ȱ":{"ha":1026,"x_min":0,"x_max":0,"o":"m 513 995 b 55 489 231 995 55 800 b 513 -16 55 178 231 -16 b 972 489 795 -16 972 178 b 513 995 972 800 795 995 z m 513 861 b 816 489 699 861 816 718 b 513 117 816 261 699 117 b 210 489 328 117 210 261 b 513 861 210 718 328 861 z m 513 1063 b 597 1146 561 1063 597 1100 b 513 1228 597 1192 561 1228 b 429 1146 466 1228 429 1192 b 513 1063 429 1100 466 1063 z m 735 1385 l 292 1385 l 292 1299 l 735 1299 z "},"Ṑ":{"ha":1026,"x_min":0,"x_max":0,"o":"m 513 995 b 55 489 231 995 55 800 b 513 -16 55 178 231 -16 b 972 489 795 -16 972 178 b 513 995 972 800 795 995 z m 513 861 b 816 489 699 861 816 718 b 513 117 816 261 699 117 b 210 489 328 117 210 261 b 513 861 210 718 328 861 z m 292 1082 l 735 1082 l 735 1168 l 292 1168 z m 572 1253 l 454 1407 l 321 1407 l 456 1253 z "},"Ǒ":{"ha":1026,"x_min":0,"x_max":0,"o":"m 513 995 b 55 489 231 995 55 800 b 513 -16 55 178 231 -16 b 972 489 795 -16 972 178 b 513 995 972 800 795 995 z m 513 861 b 816 489 699 861 816 718 b 513 117 816 261 699 117 b 210 489 328 117 210 261 b 513 861 210 718 328 861 z m 457 1049 l 570 1049 l 758 1256 l 632 1256 l 515 1126 l 511 1126 l 395 1256 l 269 1256 z "},"Ǿ":{"ha":1026,"x_min":0,"x_max":0,"o":"m 774 1257 l 623 1257 l 473 1057 l 595 1057 z m 755 731 b 816 489 795 669 816 587 b 513 117 816 261 699 117 b 345 168 448 117 391 135 z m 285 227 b 210 489 237 291 210 380 b 513 861 210 718 328 861 b 701 795 588 861 652 838 z m 929 969 l 861 1013 l 787 913 b 513 995 714 966 621 995 b 55 489 231 995 55 800 b 194 104 55 323 105 191 l 127 13 l 196 -37 l 260 51 b 513 -16 330 7 415 -16 b 972 489 795 -16 972 178 b 848 859 972 644 928 771 z "},"Ő":{"ha":1026,"x_min":0,"x_max":0,"o":"m 513 995 b 55 489 231 995 55 800 b 513 -16 55 178 231 -16 b 972 489 795 -16 972 178 b 513 995 972 800 795 995 z m 513 861 b 816 489 699 861 816 718 b 513 117 816 261 699 117 b 210 489 328 117 210 261 b 513 861 210 718 328 861 z m 699 1057 l 878 1257 l 727 1257 l 576 1057 z m 463 1057 l 641 1257 l 490 1257 l 340 1057 z "},"Ŏ":{"ha":1026,"x_min":0,"x_max":0,"o":"m 513 995 b 55 489 231 995 55 800 b 513 -16 55 178 231 -16 b 972 489 795 -16 972 178 b 513 995 972 800 795 995 z m 513 861 b 816 489 699 861 816 718 b 513 117 816 261 699 117 b 210 489 328 117 210 261 b 513 861 210 718 328 861 z m 287 1256 b 513 1045 294 1143 376 1045 b 740 1256 651 1045 732 1143 l 641 1256 b 513 1130 633 1178 584 1130 b 386 1256 443 1130 393 1178 z "},"Ȏ":{"ha":1026,"x_min":0,"x_max":0,"o":"m 513 995 b 55 489 231 995 55 800 b 513 -16 55 178 231 -16 b 972 489 795 -16 972 178 b 513 995 972 800 795 995 z m 513 861 b 816 489 699 861 816 718 b 513 117 816 261 699 117 b 210 489 328 117 210 261 b 513 861 210 718 328 861 z m 287 1045 l 386 1045 b 513 1171 393 1123 443 1171 b 641 1045 584 1171 633 1123 l 740 1045 b 513 1256 732 1158 651 1256 b 287 1045 376 1256 294 1158 z "},"Ỏ":{"ha":1026,"x_min":0,"x_max":0,"o":"m 513 995 b 55 489 231 995 55 800 b 513 -16 55 178 231 -16 b 972 489 795 -16 972 178 b 513 995 972 800 795 995 z m 513 861 b 816 489 699 861 816 718 b 513 117 816 261 699 117 b 210 489 328 117 210 261 b 513 861 210 718 328 861 z m 399 1196 b 468 1208 418 1204 446 1208 b 530 1161 504 1208 530 1188 b 467 1092 530 1132 504 1104 l 514 1032 b 629 1168 582 1057 629 1109 b 486 1285 629 1240 571 1285 b 399 1270 454 1285 422 1280 z "},"Ȫ":{"ha":1026,"x_min":0,"x_max":0,"o":"m 513 995 b 55 489 231 995 55 800 b 513 -16 55 178 231 -16 b 972 489 795 -16 972 178 b 513 995 972 800 795 995 z m 513 861 b 816 489 699 861 816 718 b 513 117 816 261 699 117 b 210 489 328 117 210 261 b 513 861 210 718 328 861 z m 388 1206 b 310 1129 345 1206 310 1172 b 388 1052 310 1086 345 1052 b 465 1129 431 1052 465 1086 b 388 1206 465 1172 431 1206 z m 292 1385 l 292 1299 l 735 1299 l 735 1385 z m 639 1206 b 562 1129 596 1206 562 1172 b 639 1052 562 1086 596 1052 b 717 1129 682 1052 717 1086 b 639 1206 717 1172 682 1206 z "},"Ȭ":{"ha":1026,"x_min":0,"x_max":0,"o":"m 513 995 b 55 489 231 995 55 800 b 513 -16 55 178 231 -16 b 972 489 795 -16 972 178 b 513 995 972 800 795 995 z m 513 861 b 816 489 699 861 816 718 b 513 117 816 261 699 117 b 210 489 328 117 210 261 b 513 861 210 718 328 861 z m 602 1045 b 731 1215 675 1045 731 1110 l 645 1215 b 600 1129 644 1160 628 1129 b 427 1226 547 1129 514 1226 b 296 1058 349 1226 296 1164 l 382 1058 b 429 1142 380 1109 399 1142 b 602 1045 479 1142 513 1045 z m 735 1385 l 292 1385 l 292 1299 l 735 1299 z "},"Ȯ":{"ha":1026,"x_min":0,"x_max":0,"o":"m 513 995 b 55 489 231 995 55 800 b 513 -16 55 178 231 -16 b 972 489 795 -16 972 178 b 513 995 972 800 795 995 z m 513 861 b 816 489 699 861 816 718 b 513 117 816 261 699 117 b 210 489 328 117 210 261 b 513 861 210 718 328 861 z m 513 1069 b 602 1158 563 1069 602 1109 b 513 1246 602 1207 563 1246 b 425 1158 464 1246 425 1207 b 513 1069 425 1109 464 1069 z "},"Ộ":{"ha":1026,"x_min":0,"x_max":0,"o":"m 513 995 b 55 489 231 995 55 800 b 513 -16 55 178 231 -16 b 972 489 795 -16 972 178 b 513 995 972 800 795 995 z m 513 861 b 816 489 699 861 816 718 b 513 117 816 261 699 117 b 210 489 328 117 210 261 b 513 861 210 718 328 861 z m 457 1251 l 269 1044 l 395 1044 l 511 1174 l 515 1174 l 632 1044 l 758 1044 l 570 1251 z m 513 -280 b 602 -191 563 -280 602 -240 b 513 -102 602 -142 563 -102 b 425 -191 464 -102 425 -142 b 513 -280 425 -240 464 -280 z "},"Ố":{"ha":1026,"x_min":0,"x_max":0,"o":"m 513 995 b 55 489 231 995 55 800 b 513 -16 55 178 231 -16 b 972 489 795 -16 972 178 b 513 995 972 800 795 995 z m 513 861 b 816 489 699 861 816 718 b 513 117 816 261 699 117 b 210 489 328 117 210 261 b 513 861 210 718 328 861 z m 452 1225 l 264 1044 l 395 1044 l 511 1158 l 515 1158 l 631 1044 l 762 1044 l 574 1225 z m 616 1253 l 732 1253 l 867 1407 l 734 1407 z "},"Ṏ":{"ha":1026,"x_min":0,"x_max":0,"o":"m 513 995 b 55 489 231 995 55 800 b 513 -16 55 178 231 -16 b 972 489 795 -16 972 178 b 513 995 972 800 795 995 z m 513 861 b 816 489 699 861 816 718 b 513 117 816 261 699 117 b 210 489 328 117 210 261 b 513 861 210 718 328 861 z m 602 1046 b 731 1212 675 1046 731 1111 l 645 1212 b 600 1129 644 1160 628 1129 b 427 1225 547 1129 514 1225 b 296 1059 349 1225 296 1164 l 382 1059 b 429 1142 380 1110 399 1142 b 602 1046 479 1142 513 1046 z m 388 1426 b 310 1349 345 1426 310 1392 b 388 1272 310 1306 345 1272 b 465 1349 431 1272 465 1306 b 388 1426 465 1392 431 1426 z m 639 1426 b 562 1349 596 1426 562 1392 b 639 1272 562 1306 596 1272 b 717 1349 682 1272 717 1306 b 639 1426 717 1392 682 1426 z "},"Ō":{"ha":1026,"x_min":0,"x_max":0,"o":"m 513 995 b 55 489 231 995 55 800 b 513 -16 55 178 231 -16 b 972 489 795 -16 972 178 b 513 995 972 800 795 995 z m 513 861 b 816 489 699 861 816 718 b 513 117 816 261 699 117 b 210 489 328 117 210 261 b 513 861 210 718 328 861 z m 735 1191 l 292 1191 l 292 1105 l 735 1105 z "},"Ǫ":{"ha":1026,"x_min":0,"x_max":0,"o":"m 672 -300 b 758 -287 711 -300 744 -294 l 758 -196 b 705 -202 744 -199 724 -202 b 623 -136 659 -202 623 -181 b 753 24 623 -88 674 -42 b 972 489 901 151 972 294 b 513 995 972 800 795 995 b 55 489 231 995 55 800 b 513 -16 55 178 231 -16 b 604 -6 542 -16 580 -10 l 604 -9 b 508 -167 545 -50 508 -106 b 672 -300 508 -246 577 -300 z m 513 861 b 816 489 699 861 816 718 b 513 117 816 261 699 117 b 210 489 328 117 210 261 b 513 861 210 718 328 861 z "},"Ǭ":{"ha":1026,"x_min":0,"x_max":0,"o":"m 672 -300 b 758 -287 711 -300 744 -294 l 758 -196 b 705 -202 744 -199 724 -202 b 623 -136 659 -202 623 -181 b 753 24 623 -88 674 -42 b 972 489 901 151 972 294 b 513 995 972 800 795 995 b 55 489 231 995 55 800 b 513 -16 55 178 231 -16 b 604 -6 542 -16 580 -10 l 604 -9 b 508 -167 545 -50 508 -106 b 672 -300 508 -246 577 -300 z m 513 861 b 816 489 699 861 816 718 b 513 117 816 261 699 117 b 210 489 328 117 210 261 b 513 861 210 718 328 861 z m 735 1191 l 292 1191 l 292 1105 l 735 1105 z "},"Ơ":{"ha":1040,"x_min":0,"x_max":0,"o":"m 513 -16 b 972 489 795 -16 972 178 b 828 860 972 641 910 800 l 828 864 l 869 864 b 998 988 947 864 998 913 l 998 1128 l 873 1128 l 873 1027 b 799 966 873 983 852 966 b 513 995 695 966 621 995 b 55 489 231 995 55 800 b 513 -16 55 178 231 -16 z m 513 117 b 210 489 328 117 210 261 b 513 861 210 718 328 861 b 816 489 699 861 816 718 b 513 117 816 261 699 117 z "},"Ợ":{"ha":1040,"x_min":0,"x_max":0,"o":"m 513 -16 b 972 489 795 -16 972 178 b 828 860 972 641 910 800 l 828 864 l 869 864 b 998 988 947 864 998 913 l 998 1128 l 873 1128 l 873 1027 b 799 966 873 983 852 966 b 513 995 695 966 621 995 b 55 489 231 995 55 800 b 513 -16 55 178 231 -16 z m 513 117 b 210 489 328 117 210 261 b 513 861 210 718 328 861 b 816 489 699 861 816 718 b 513 117 816 261 699 117 z m 513 -280 b 602 -191 563 -280 602 -240 b 513 -102 602 -142 563 -102 b 425 -191 464 -102 425 -142 b 513 -280 425 -240 464 -280 z "},"Ở":{"ha":1040,"x_min":0,"x_max":0,"o":"m 513 -16 b 972 489 795 -16 972 178 b 828 860 972 641 910 800 l 828 864 l 869 864 b 998 988 947 864 998 913 l 998 1128 l 873 1128 l 873 1027 b 799 966 873 983 852 966 b 513 995 695 966 621 995 b 55 489 231 995 55 800 b 513 -16 55 178 231 -16 z m 513 117 b 210 489 328 117 210 261 b 513 861 210 718 328 861 b 816 489 699 861 816 718 b 513 117 816 261 699 117 z m 399 1196 b 468 1208 418 1204 446 1208 b 530 1161 504 1208 530 1188 b 467 1092 530 1132 504 1104 l 514 1032 b 629 1168 582 1057 629 1109 b 486 1285 629 1240 571 1285 b 399 1270 454 1285 422 1280 z "},"Ỡ":{"ha":1040,"x_min":0,"x_max":0,"o":"m 513 -16 b 972 489 795 -16 972 178 b 828 860 972 641 910 800 l 828 864 l 869 864 b 998 988 947 864 998 913 l 998 1128 l 873 1128 l 873 1027 b 799 966 873 983 852 966 b 513 995 695 966 621 995 b 55 489 231 995 55 800 b 513 -16 55 178 231 -16 z m 513 117 b 210 489 328 117 210 261 b 513 861 210 718 328 861 b 816 489 699 861 816 718 b 513 117 816 261 699 117 z m 605 1067 b 740 1246 682 1067 740 1135 l 650 1246 b 603 1154 650 1185 632 1154 b 425 1253 553 1154 522 1253 b 289 1076 346 1253 289 1190 l 379 1076 b 427 1166 377 1133 396 1166 b 605 1067 479 1166 514 1067 z "},"Ờ":{"ha":1040,"x_min":0,"x_max":0,"o":"m 513 -16 b 972 489 795 -16 972 178 b 828 860 972 641 910 800 l 828 864 l 869 864 b 998 988 947 864 998 913 l 998 1128 l 873 1128 l 873 1027 b 799 966 873 983 852 966 b 513 995 695 966 621 995 b 55 489 231 995 55 800 b 513 -16 55 178 231 -16 z m 513 117 b 210 489 328 117 210 261 b 513 861 210 718 328 861 b 816 489 699 861 816 718 b 513 117 816 261 699 117 z m 446 1059 l 568 1059 l 418 1259 l 267 1259 z "},"Ớ":{"ha":1040,"x_min":0,"x_max":0,"o":"m 513 -16 b 972 489 795 -16 972 178 b 828 860 972 641 910 800 l 828 864 l 869 864 b 998 988 947 864 998 913 l 998 1128 l 873 1128 l 873 1027 b 799 966 873 983 852 966 b 513 995 695 966 621 995 b 55 489 231 995 55 800 b 513 -16 55 178 231 -16 z m 513 117 b 210 489 328 117 210 261 b 513 861 210 718 328 861 b 816 489 699 861 816 718 b 513 117 816 261 699 117 z m 581 1057 l 759 1257 l 608 1257 l 458 1057 z "},"P":{"ha":822,"x_min":0,"x_max":0,"o":"m 90 979 l 90 0 l 242 0 l 242 334 l 452 334 b 779 657 644 334 779 466 b 457 979 779 848 647 979 z m 242 850 l 417 850 b 624 656 549 850 624 780 b 416 462 624 533 549 462 l 242 462 z "},"Ṗ":{"ha":822,"x_min":0,"x_max":0,"o":"m 90 979 l 90 0 l 242 0 l 242 334 l 452 334 b 779 657 644 334 779 466 b 457 979 779 848 647 979 z m 242 850 l 417 850 b 624 656 549 850 624 780 b 416 462 624 533 549 462 l 242 462 z m 363 1069 b 452 1158 412 1069 452 1109 b 363 1246 452 1207 412 1246 b 274 1158 313 1246 274 1207 b 363 1069 274 1109 313 1069 z "},"Ṕ":{"ha":822,"x_min":0,"x_max":0,"o":"m 90 979 l 90 0 l 242 0 l 242 334 l 452 334 b 779 657 644 334 779 466 b 457 979 779 848 647 979 z m 242 850 l 417 850 b 624 656 549 850 624 780 b 416 462 624 533 549 462 l 242 462 z m 430 1057 l 608 1257 l 458 1257 l 307 1057 z "},"Q":{"ha":1026,"x_min":0,"x_max":0,"o":"m 513 -16 b 687 13 576 -16 635 -7 l 770 -104 l 929 -104 l 802 77 b 972 489 911 162 972 306 b 513 995 972 800 795 995 b 55 489 231 995 55 800 b 513 -16 55 177 231 -16 z m 513 117 b 210 489 328 117 210 261 b 513 862 210 718 328 862 b 816 489 699 862 816 718 b 711 201 816 363 778 263 l 642 295 l 488 295 l 605 130 b 513 117 576 121 546 117 z "},"R":{"ha":852,"x_min":0,"x_max":0,"o":"m 242 851 l 451 851 b 640 675 568 851 640 785 b 455 499 640 564 572 499 l 242 499 z m 242 376 l 451 376 l 451 376 l 650 0 l 825 0 l 606 400 b 796 680 726 440 796 547 b 469 979 796 862 671 979 l 90 979 l 90 0 l 242 0 z "},"Ř":{"ha":852,"x_min":0,"x_max":0,"o":"m 242 851 l 451 851 b 640 675 568 851 640 785 b 455 499 640 564 572 499 l 242 499 z m 242 376 l 451 376 l 451 376 l 650 0 l 825 0 l 606 400 b 796 680 726 440 796 547 b 469 979 796 862 671 979 l 90 979 l 90 0 l 242 0 z m 326 1049 l 439 1049 l 627 1256 l 501 1256 l 385 1126 l 380 1126 l 264 1256 l 138 1256 z "},"Ṟ":{"ha":852,"x_min":0,"x_max":0,"o":"m 242 851 l 451 851 b 640 675 568 851 640 785 b 455 499 640 564 572 499 l 242 499 z m 242 376 l 451 376 l 451 376 l 650 0 l 825 0 l 606 400 b 796 680 726 440 796 547 b 469 979 796 862 671 979 l 90 979 l 90 0 l 242 0 z m 604 -151 l 161 -151 l 161 -237 l 604 -237 z "},"Ṝ":{"ha":852,"x_min":0,"x_max":0,"o":"m 242 851 l 451 851 b 640 675 568 851 640 785 b 455 499 640 564 572 499 l 242 499 z m 242 376 l 451 376 l 451 376 l 650 0 l 825 0 l 606 400 b 796 680 726 440 796 547 b 469 979 796 862 671 979 l 90 979 l 90 0 l 242 0 z m 382 -280 b 471 -191 432 -280 471 -240 b 382 -102 471 -142 432 -102 b 294 -191 333 -102 294 -142 b 382 -280 294 -240 333 -280 z m 604 1191 l 161 1191 l 161 1105 l 604 1105 z "},"Ȑ":{"ha":852,"x_min":0,"x_max":0,"o":"m 242 851 l 451 851 b 640 675 568 851 640 785 b 455 499 640 564 572 499 l 242 499 z m 242 376 l 451 376 l 451 376 l 650 0 l 825 0 l 606 400 b 796 680 726 440 796 547 b 469 979 796 862 671 979 l 90 979 l 90 0 l 242 0 z m 433 1057 l 556 1057 l 406 1257 l 255 1257 z m 197 1057 l 319 1057 l 169 1257 l 18 1257 z "},"Ȓ":{"ha":852,"x_min":0,"x_max":0,"o":"m 242 851 l 451 851 b 640 675 568 851 640 785 b 455 499 640 564 572 499 l 242 499 z m 242 376 l 451 376 l 451 376 l 650 0 l 825 0 l 606 400 b 796 680 726 440 796 547 b 469 979 796 862 671 979 l 90 979 l 90 0 l 242 0 z m 156 1045 l 255 1045 b 382 1171 262 1123 312 1171 b 510 1045 453 1171 503 1123 l 609 1045 b 382 1256 602 1158 520 1256 b 156 1045 245 1256 163 1158 z "},"Ŕ":{"ha":852,"x_min":0,"x_max":0,"o":"m 242 851 l 451 851 b 640 675 568 851 640 785 b 455 499 640 564 572 499 l 242 499 z m 242 376 l 451 376 l 451 376 l 650 0 l 825 0 l 606 400 b 796 680 726 440 796 547 b 469 979 796 862 671 979 l 90 979 l 90 0 l 242 0 z m 450 1057 l 628 1257 l 477 1257 l 327 1057 z "},"Ṛ":{"ha":852,"x_min":0,"x_max":0,"o":"m 242 851 l 451 851 b 640 675 568 851 640 785 b 455 499 640 564 572 499 l 242 499 z m 242 376 l 451 376 l 451 376 l 650 0 l 825 0 l 606 400 b 796 680 726 440 796 547 b 469 979 796 862 671 979 l 90 979 l 90 0 l 242 0 z m 382 -280 b 471 -191 432 -280 471 -240 b 382 -102 471 -142 432 -102 b 294 -191 333 -102 294 -142 b 382 -280 294 -240 333 -280 z "},"Ṙ":{"ha":852,"x_min":0,"x_max":0,"o":"m 242 851 l 451 851 b 640 675 568 851 640 785 b 455 499 640 564 572 499 l 242 499 z m 242 376 l 451 376 l 451 376 l 650 0 l 825 0 l 606 400 b 796 680 726 440 796 547 b 469 979 796 862 671 979 l 90 979 l 90 0 l 242 0 z m 382 1069 b 471 1158 432 1069 471 1109 b 382 1246 471 1207 432 1246 b 294 1158 333 1246 294 1207 b 382 1069 294 1109 333 1069 z "},"Ŗ":{"ha":852,"x_min":0,"x_max":0,"o":"m 242 851 l 451 851 b 640 675 568 851 640 785 b 455 499 640 564 572 499 l 242 499 z m 242 376 l 451 376 l 451 376 l 650 0 l 825 0 l 606 400 b 796 680 726 440 796 547 b 469 979 796 862 671 979 l 90 979 l 90 0 l 242 0 z m 363 -326 l 463 -87 l 334 -87 l 256 -326 z "},"S":{"ha":844,"x_min":0,"x_max":0,"o":"m 47 273 b 420 -16 56 96 203 -16 b 798 281 652 -16 798 98 b 513 553 798 425 714 505 l 406 579 b 228 720 279 610 228 651 b 427 867 228 807 309 867 b 634 710 545 867 625 808 l 782 710 b 429 995 777 879 635 995 b 73 710 220 995 73 879 b 336 446 73 574 156 490 l 463 416 b 643 263 589 385 643 339 b 431 112 643 176 554 112 b 197 273 302 112 208 176 z "},"Š":{"ha":844,"x_min":0,"x_max":0,"o":"m 47 273 b 420 -16 56 96 203 -16 b 798 281 652 -16 798 98 b 513 553 798 425 714 505 l 406 579 b 228 720 279 610 228 651 b 427 867 228 807 309 867 b 634 710 545 867 625 808 l 782 710 b 429 995 777 879 635 995 b 73 710 220 995 73 879 b 336 446 73 574 156 490 l 463 416 b 643 263 589 385 643 339 b 431 112 643 176 554 112 b 197 273 302 112 208 176 z m 373 1049 l 486 1049 l 674 1256 l 548 1256 l 431 1126 l 427 1126 l 311 1256 l 184 1256 z "},"Ş":{"ha":844,"x_min":0,"x_max":0,"o":"m 406 579 b 228 720 279 610 228 651 b 427 867 228 807 309 867 b 634 710 545 867 625 808 l 782 710 b 429 995 777 879 635 995 b 73 710 220 995 73 879 b 336 446 73 574 156 490 l 463 416 b 643 263 589 385 643 339 b 431 112 643 176 554 112 b 197 273 302 112 208 176 l 47 273 b 379 -15 56 107 184 -2 l 344 -100 l 344 -154 l 389 -154 b 483 -195 455 -154 483 -165 b 401 -240 483 -224 455 -240 b 319 -232 373 -240 334 -235 l 319 -306 b 419 -315 337 -311 380 -316 b 581 -193 513 -314 581 -272 b 442 -83 581 -123 526 -84 l 473 -14 b 798 281 673 2 798 113 b 513 553 798 425 714 505 z "},"Ṡ":{"ha":844,"x_min":0,"x_max":0,"o":"m 47 273 b 420 -16 56 96 203 -16 b 798 281 652 -16 798 98 b 513 553 798 425 714 505 l 406 579 b 228 720 279 610 228 651 b 427 867 228 807 309 867 b 634 710 545 867 625 808 l 782 710 b 429 995 777 879 635 995 b 73 710 220 995 73 879 b 336 446 73 574 156 490 l 463 416 b 643 263 589 385 643 339 b 431 112 643 176 554 112 b 197 273 302 112 208 176 z m 429 1069 b 518 1158 479 1069 518 1109 b 429 1246 518 1207 479 1246 b 340 1158 380 1246 340 1207 b 429 1069 340 1109 380 1069 z "},"Ṣ":{"ha":844,"x_min":0,"x_max":0,"o":"m 47 273 b 420 -16 56 96 203 -16 b 798 281 652 -16 798 98 b 513 553 798 425 714 505 l 406 579 b 228 720 279 610 228 651 b 427 867 228 807 309 867 b 634 710 545 867 625 808 l 782 710 b 429 995 777 879 635 995 b 73 710 220 995 73 879 b 336 446 73 574 156 490 l 463 416 b 643 263 589 385 643 339 b 431 112 643 176 554 112 b 197 273 302 112 208 176 z m 420 -280 b 509 -191 470 -280 509 -240 b 420 -102 509 -142 470 -102 b 332 -191 371 -102 332 -142 b 420 -280 332 -240 371 -280 z "},"Ș":{"ha":844,"x_min":0,"x_max":0,"o":"m 47 273 b 420 -16 56 96 203 -16 b 798 281 652 -16 798 98 b 513 553 798 425 714 505 l 406 579 b 228 720 279 610 228 651 b 427 867 228 807 309 867 b 634 710 545 867 625 808 l 782 710 b 429 995 777 879 635 995 b 73 710 220 995 73 879 b 336 446 73 574 156 490 l 463 416 b 643 263 589 385 643 339 b 431 112 643 176 554 112 b 197 273 302 112 208 176 z m 401 -326 l 501 -87 l 372 -87 l 294 -326 z "},"Ṩ":{"ha":844,"x_min":0,"x_max":0,"o":"m 47 273 b 420 -16 56 96 203 -16 b 798 281 652 -16 798 98 b 513 553 798 425 714 505 l 406 579 b 228 720 279 610 228 651 b 427 867 228 807 309 867 b 634 710 545 867 625 808 l 782 710 b 429 995 777 879 635 995 b 73 710 220 995 73 879 b 336 446 73 574 156 490 l 463 416 b 643 263 589 385 643 339 b 431 112 643 176 554 112 b 197 273 302 112 208 176 z m 420 -280 b 509 -191 470 -280 509 -240 b 420 -102 509 -142 470 -102 b 332 -191 371 -102 332 -142 b 420 -280 332 -240 371 -280 z m 429 1069 b 518 1158 479 1069 518 1109 b 429 1246 518 1207 479 1246 b 340 1158 380 1246 340 1207 b 429 1069 340 1109 380 1069 z "},"Ṧ":{"ha":844,"x_min":0,"x_max":0,"o":"m 47 273 b 420 -16 56 96 203 -16 b 798 281 652 -16 798 98 b 513 553 798 425 714 505 l 406 579 b 228 720 279 610 228 651 b 427 867 228 807 309 867 b 634 710 545 867 625 808 l 782 710 b 429 995 777 879 635 995 b 73 710 220 995 73 879 b 336 446 73 574 156 490 l 463 416 b 643 263 589 385 643 339 b 431 112 643 176 554 112 b 197 273 302 112 208 176 z m 368 1044 l 490 1044 l 678 1225 l 547 1225 l 431 1111 l 427 1111 l 311 1225 l 180 1225 z m 429 1248 b 509 1328 475 1248 509 1284 b 429 1407 509 1372 475 1407 b 349 1328 384 1407 349 1372 b 429 1248 349 1284 384 1248 z "},"Ŝ":{"ha":844,"x_min":0,"x_max":0,"o":"m 47 273 b 420 -16 56 96 203 -16 b 798 281 652 -16 798 98 b 513 553 798 425 714 505 l 406 579 b 228 720 279 610 228 651 b 427 867 228 807 309 867 b 634 710 545 867 625 808 l 782 710 b 429 995 777 879 635 995 b 73 710 220 995 73 879 b 336 446 73 574 156 490 l 463 416 b 643 263 589 385 643 339 b 431 112 643 176 554 112 b 197 273 302 112 208 176 z m 373 1251 l 184 1044 l 311 1044 l 427 1174 l 431 1174 l 548 1044 l 674 1044 l 486 1251 z "},"Ṥ":{"ha":844,"x_min":0,"x_max":0,"o":"m 47 273 b 420 -16 56 96 203 -16 b 798 281 652 -16 798 98 b 513 553 798 425 714 505 l 406 579 b 228 720 279 610 228 651 b 427 867 228 807 309 867 b 634 710 545 867 625 808 l 782 710 b 429 995 777 879 635 995 b 73 710 220 995 73 879 b 336 446 73 574 156 490 l 463 416 b 643 263 589 385 643 339 b 431 112 643 176 554 112 b 197 273 302 112 208 176 z m 570 1057 l 749 1257 l 598 1257 l 448 1057 z m 297 1077 b 386 1166 347 1077 386 1117 b 297 1255 386 1215 347 1255 b 208 1166 248 1255 208 1215 b 297 1077 208 1117 248 1077 z "},"Ś":{"ha":844,"x_min":0,"x_max":0,"o":"m 47 273 b 420 -16 56 96 203 -16 b 798 281 652 -16 798 98 b 513 553 798 425 714 505 l 406 579 b 228 720 279 610 228 651 b 427 867 228 807 309 867 b 634 710 545 867 625 808 l 782 710 b 429 995 777 879 635 995 b 73 710 220 995 73 879 b 336 446 73 574 156 490 l 463 416 b 643 263 589 385 643 339 b 431 112 643 176 554 112 b 197 273 302 112 208 176 z m 496 1057 l 675 1257 l 524 1257 l 374 1057 z "},"ẞ":{"ha":1687,"x_min":0,"x_max":0,"o":"m 47 273 b 420 -16 56 96 203 -16 b 798 281 652 -16 798 98 b 513 553 798 425 714 505 l 406 579 b 228 720 279 610 228 651 b 427 867 228 807 309 867 b 634 710 545 867 625 808 l 782 710 b 429 995 777 879 635 995 b 73 710 220 995 73 879 b 336 446 73 574 156 490 l 463 416 b 643 263 589 385 643 339 b 431 112 643 176 554 112 b 197 273 302 112 208 176 z m 890 273 b 1263 -16 900 96 1046 -16 b 1641 281 1495 -16 1641 98 b 1357 553 1641 425 1558 505 l 1249 579 b 1072 720 1123 610 1072 651 b 1270 867 1072 807 1152 867 b 1478 710 1388 867 1469 808 l 1626 710 b 1272 995 1621 879 1479 995 b 916 710 1063 995 916 879 b 1179 446 916 574 1000 490 l 1306 416 b 1487 263 1433 385 1487 339 b 1274 112 1487 176 1398 112 b 1040 273 1145 112 1051 176 z "},"T":{"ha":817,"x_min":0,"x_max":0,"o":"m 485 0 l 485 848 l 784 848 l 784 979 l 33 979 l 33 848 l 333 848 l 333 0 z "},"Ṱ":{"ha":817,"x_min":0,"x_max":0,"o":"m 485 0 l 485 848 l 784 848 l 784 979 l 33 979 l 33 848 l 333 848 l 333 0 z m 353 -90 l 164 -296 l 290 -296 l 407 -166 l 411 -166 l 528 -296 l 654 -296 l 465 -90 z "},"Ṭ":{"ha":817,"x_min":0,"x_max":0,"o":"m 485 0 l 485 848 l 784 848 l 784 979 l 33 979 l 33 848 l 333 848 l 333 0 z m 409 -280 b 498 -191 458 -280 498 -240 b 409 -102 498 -142 458 -102 b 320 -191 359 -102 320 -142 b 409 -280 320 -240 359 -280 z "},"Ț":{"ha":817,"x_min":0,"x_max":0,"o":"m 485 0 l 485 848 l 784 848 l 784 979 l 33 979 l 33 848 l 333 848 l 333 0 z m 374 -326 l 473 -87 l 345 -87 l 266 -326 z "},"Ṫ":{"ha":817,"x_min":0,"x_max":0,"o":"m 485 0 l 485 848 l 784 848 l 784 979 l 33 979 l 33 848 l 333 848 l 333 0 z m 409 1069 b 498 1158 458 1069 498 1109 b 409 1246 498 1207 458 1246 b 320 1158 359 1246 320 1207 b 409 1069 320 1109 359 1069 z "},"Ţ":{"ha":817,"x_min":0,"x_max":0,"o":"m 485 0 l 485 848 l 784 848 l 784 979 l 33 979 l 33 848 l 333 848 l 333 0 l 379 0 l 338 -100 l 338 -154 l 383 -154 b 477 -195 449 -154 477 -165 b 395 -240 477 -224 449 -240 b 313 -232 367 -240 328 -235 l 313 -306 b 413 -315 331 -311 374 -316 b 575 -193 507 -314 575 -272 b 436 -83 575 -123 520 -84 l 473 0 z "},"Ṯ":{"ha":817,"x_min":0,"x_max":0,"o":"m 485 0 l 485 848 l 784 848 l 784 979 l 33 979 l 33 848 l 333 848 l 333 0 z m 631 -151 l 187 -151 l 187 -237 l 631 -237 z "},"Ť":{"ha":817,"x_min":0,"x_max":0,"o":"m 485 0 l 485 848 l 784 848 l 784 979 l 33 979 l 33 848 l 333 848 l 333 0 z m 353 1049 l 465 1049 l 654 1256 l 528 1256 l 411 1126 l 407 1126 l 290 1256 l 164 1256 z "},"Ŧ":{"ha":826,"x_min":0,"x_max":0,"o":"m 787 848 l 787 979 l 36 979 l 36 848 l 336 848 l 336 540 l 136 540 l 136 426 l 336 426 l 336 0 l 488 0 l 488 426 l 690 426 l 690 540 l 488 540 l 488 848 z "},"U":{"ha":972,"x_min":0,"x_max":0,"o":"m 242 979 l 90 979 l 90 344 b 486 -16 90 133 241 -16 b 882 344 732 -16 882 133 l 882 979 l 731 979 l 731 357 b 486 119 731 217 642 119 b 242 357 330 119 242 217 z "},"Ù":{"ha":972,"x_min":0,"x_max":0,"o":"m 242 979 l 90 979 l 90 344 b 486 -16 90 133 241 -16 b 882 344 732 -16 882 133 l 882 979 l 731 979 l 731 357 b 486 119 731 217 642 119 b 242 357 330 119 242 217 z m 418 1059 l 541 1059 l 391 1259 l 240 1259 z "},"Ȕ":{"ha":972,"x_min":0,"x_max":0,"o":"m 242 979 l 90 979 l 90 344 b 486 -16 90 133 241 -16 b 882 344 732 -16 882 133 l 882 979 l 731 979 l 731 357 b 486 119 731 217 642 119 b 242 357 330 119 242 217 z m 536 1057 l 660 1057 l 509 1257 l 359 1257 z m 300 1057 l 423 1057 l 273 1257 l 122 1257 z "},"Ú":{"ha":972,"x_min":0,"x_max":0,"o":"m 242 979 l 90 979 l 90 344 b 486 -16 90 133 241 -16 b 882 344 732 -16 882 133 l 882 979 l 731 979 l 731 357 b 486 119 731 217 642 119 b 242 357 330 119 242 217 z m 553 1057 l 732 1257 l 581 1257 l 431 1057 z "},"Ű":{"ha":972,"x_min":0,"x_max":0,"o":"m 242 979 l 90 979 l 90 344 b 486 -16 90 133 241 -16 b 882 344 732 -16 882 133 l 882 979 l 731 979 l 731 357 b 486 119 731 217 642 119 b 242 357 330 119 242 217 z m 672 1057 l 850 1257 l 700 1257 l 549 1057 z m 436 1057 l 614 1257 l 463 1257 l 313 1057 z "},"Û":{"ha":972,"x_min":0,"x_max":0,"o":"m 242 979 l 90 979 l 90 344 b 486 -16 90 133 241 -16 b 882 344 732 -16 882 133 l 882 979 l 731 979 l 731 357 b 486 119 731 217 642 119 b 242 357 330 119 242 217 z m 430 1251 l 241 1044 l 368 1044 l 484 1174 l 488 1174 l 605 1044 l 731 1044 l 543 1251 z "},"Ǔ":{"ha":972,"x_min":0,"x_max":0,"o":"m 242 979 l 90 979 l 90 344 b 486 -16 90 133 241 -16 b 882 344 732 -16 882 133 l 882 979 l 731 979 l 731 357 b 486 119 731 217 642 119 b 242 357 330 119 242 217 z m 430 1049 l 543 1049 l 731 1256 l 605 1256 l 488 1126 l 484 1126 l 368 1256 l 241 1256 z "},"Ṷ":{"ha":972,"x_min":0,"x_max":0,"o":"m 242 979 l 90 979 l 90 344 b 486 -16 90 133 241 -16 b 882 344 732 -16 882 133 l 882 979 l 731 979 l 731 357 b 486 119 731 217 642 119 b 242 357 330 119 242 217 z m 430 -90 l 241 -296 l 368 -296 l 484 -166 l 488 -166 l 605 -296 l 731 -296 l 543 -90 z "},"Ü":{"ha":972,"x_min":0,"x_max":0,"o":"m 242 979 l 90 979 l 90 344 b 486 -16 90 133 241 -16 b 882 344 732 -16 882 133 l 882 979 l 731 979 l 731 357 b 486 119 731 217 642 119 b 242 357 330 119 242 217 z m 356 1080 b 436 1159 400 1080 436 1115 b 356 1238 436 1203 400 1238 b 275 1159 311 1238 275 1203 b 356 1080 275 1115 311 1080 z m 617 1080 b 697 1159 661 1080 697 1115 b 617 1238 697 1203 661 1238 b 536 1159 572 1238 536 1203 b 617 1080 536 1115 572 1080 z "},"Ǜ":{"ha":972,"x_min":0,"x_max":0,"o":"m 242 979 l 90 979 l 90 344 b 486 -16 90 133 241 -16 b 882 344 732 -16 882 133 l 882 979 l 731 979 l 731 357 b 486 119 731 217 642 119 b 242 357 330 119 242 217 z m 545 1253 l 427 1407 l 294 1407 l 429 1253 z m 361 1052 b 438 1129 404 1052 438 1086 b 361 1206 438 1172 404 1206 b 283 1129 317 1206 283 1172 b 361 1052 283 1086 317 1052 z m 612 1052 b 690 1129 655 1052 690 1086 b 612 1206 690 1172 655 1206 b 534 1129 569 1206 534 1172 b 612 1052 534 1086 569 1052 z "},"Ǘ":{"ha":972,"x_min":0,"x_max":0,"o":"m 242 979 l 90 979 l 90 344 b 486 -16 90 133 241 -16 b 882 344 732 -16 882 133 l 882 979 l 731 979 l 731 357 b 486 119 731 217 642 119 b 242 357 330 119 242 217 z m 422 1253 l 538 1253 l 673 1407 l 540 1407 z m 361 1052 b 438 1129 404 1052 438 1086 b 361 1206 438 1172 404 1206 b 283 1129 317 1206 283 1172 b 361 1052 283 1086 317 1052 z m 612 1052 b 690 1129 655 1052 690 1086 b 612 1206 690 1172 655 1206 b 534 1129 569 1206 534 1172 b 612 1052 534 1086 569 1052 z "},"Ǖ":{"ha":972,"x_min":0,"x_max":0,"o":"m 242 979 l 90 979 l 90 344 b 486 -16 90 133 241 -16 b 882 344 732 -16 882 133 l 882 979 l 731 979 l 731 357 b 486 119 731 217 642 119 b 242 357 330 119 242 217 z m 361 1206 b 283 1129 317 1206 283 1172 b 361 1052 283 1086 317 1052 b 438 1129 404 1052 438 1086 b 361 1206 438 1172 404 1206 z m 264 1385 l 264 1299 l 708 1299 l 708 1385 z m 612 1206 b 534 1129 569 1206 534 1172 b 612 1052 534 1086 569 1052 b 690 1129 655 1052 690 1086 b 612 1206 690 1172 655 1206 z "},"Ǚ":{"ha":972,"x_min":0,"x_max":0,"o":"m 242 979 l 90 979 l 90 344 b 486 -16 90 133 241 -16 b 882 344 732 -16 882 133 l 882 979 l 731 979 l 731 357 b 486 119 731 217 642 119 b 242 357 330 119 242 217 z m 427 1245 l 546 1245 l 723 1411 l 593 1411 l 489 1312 l 484 1312 l 379 1411 l 250 1411 z m 361 1206 b 283 1129 317 1206 283 1172 b 361 1052 283 1086 317 1052 b 438 1129 404 1052 438 1086 b 361 1206 438 1172 404 1206 z m 612 1206 b 534 1129 569 1206 534 1172 b 612 1052 534 1086 569 1052 b 690 1129 655 1052 690 1086 b 612 1206 690 1172 655 1206 z "},"Ṳ":{"ha":972,"x_min":0,"x_max":0,"o":"m 242 979 l 90 979 l 90 344 b 486 -16 90 133 241 -16 b 882 344 732 -16 882 133 l 882 979 l 731 979 l 731 357 b 486 119 731 217 642 119 b 242 357 330 119 242 217 z m 356 -246 b 436 -167 400 -246 436 -211 b 356 -87 436 -123 400 -87 b 275 -167 311 -87 275 -123 b 356 -246 275 -211 311 -246 z m 617 -246 b 697 -167 661 -246 697 -211 b 617 -87 697 -123 661 -87 b 536 -167 572 -87 536 -123 b 617 -246 536 -211 572 -246 z "},"Ṵ":{"ha":972,"x_min":0,"x_max":0,"o":"m 242 979 l 90 979 l 90 344 b 486 -16 90 133 241 -16 b 882 344 732 -16 882 133 l 882 979 l 731 979 l 731 357 b 486 119 731 217 642 119 b 242 357 330 119 242 217 z m 578 -247 b 713 -68 655 -247 713 -180 l 623 -68 b 576 -161 623 -129 605 -161 b 398 -62 526 -161 494 -62 b 262 -239 319 -62 262 -125 l 352 -239 b 400 -148 350 -181 369 -148 b 578 -247 452 -148 487 -247 z "},"Ủ":{"ha":972,"x_min":0,"x_max":0,"o":"m 242 979 l 90 979 l 90 344 b 486 -16 90 133 241 -16 b 882 344 732 -16 882 133 l 882 979 l 731 979 l 731 357 b 486 119 731 217 642 119 b 242 357 330 119 242 217 z m 372 1196 b 441 1208 391 1204 418 1208 b 503 1161 477 1208 503 1188 b 439 1092 503 1132 477 1104 l 487 1032 b 602 1168 555 1057 602 1109 b 459 1285 602 1240 544 1285 b 372 1270 427 1285 395 1280 z "},"Ŭ":{"ha":972,"x_min":0,"x_max":0,"o":"m 242 979 l 90 979 l 90 344 b 486 -16 90 133 241 -16 b 882 344 732 -16 882 133 l 882 979 l 731 979 l 731 357 b 486 119 731 217 642 119 b 242 357 330 119 242 217 z m 260 1256 b 486 1045 267 1143 349 1045 b 713 1256 624 1045 705 1143 l 614 1256 b 486 1130 606 1178 557 1130 b 359 1256 416 1130 366 1178 z "},"Ȗ":{"ha":972,"x_min":0,"x_max":0,"o":"m 242 979 l 90 979 l 90 344 b 486 -16 90 133 241 -16 b 882 344 732 -16 882 133 l 882 979 l 731 979 l 731 357 b 486 119 731 217 642 119 b 242 357 330 119 242 217 z m 260 1045 l 359 1045 b 486 1171 366 1123 416 1171 b 614 1045 557 1171 606 1123 l 713 1045 b 486 1256 705 1158 624 1256 b 260 1045 349 1256 267 1158 z "},"Ṹ":{"ha":972,"x_min":0,"x_max":0,"o":"m 242 979 l 90 979 l 90 344 b 486 -16 90 133 241 -16 b 882 344 732 -16 882 133 l 882 979 l 731 979 l 731 357 b 486 119 731 217 642 119 b 242 357 330 119 242 217 z m 574 1045 b 704 1215 648 1045 704 1110 l 618 1215 b 572 1129 617 1160 601 1129 b 399 1226 520 1129 487 1226 b 269 1058 322 1226 269 1164 l 355 1058 b 401 1142 353 1109 372 1142 b 574 1045 452 1142 486 1045 z m 431 1264 l 547 1264 l 682 1407 l 549 1407 z "},"Ụ":{"ha":972,"x_min":0,"x_max":0,"o":"m 242 979 l 90 979 l 90 344 b 486 -16 90 133 241 -16 b 882 344 732 -16 882 133 l 882 979 l 731 979 l 731 357 b 486 119 731 217 642 119 b 242 357 330 119 242 217 z m 486 -280 b 575 -191 536 -280 575 -240 b 486 -102 575 -142 536 -102 b 397 -191 437 -102 397 -142 b 486 -280 397 -240 437 -280 z "},"Ũ":{"ha":972,"x_min":0,"x_max":0,"o":"m 242 979 l 90 979 l 90 344 b 486 -16 90 133 241 -16 b 882 344 732 -16 882 133 l 882 979 l 731 979 l 731 357 b 486 119 731 217 642 119 b 242 357 330 119 242 217 z m 578 1067 b 713 1246 655 1067 713 1135 l 623 1246 b 576 1154 623 1185 605 1154 b 398 1253 526 1154 494 1253 b 262 1076 319 1253 262 1190 l 352 1076 b 400 1166 350 1133 369 1166 b 578 1067 452 1166 487 1067 z "},"Ū":{"ha":972,"x_min":0,"x_max":0,"o":"m 242 979 l 90 979 l 90 344 b 486 -16 90 133 241 -16 b 882 344 732 -16 882 133 l 882 979 l 731 979 l 731 357 b 486 119 731 217 642 119 b 242 357 330 119 242 217 z m 708 1191 l 264 1191 l 264 1105 l 708 1105 z "},"Ṻ":{"ha":972,"x_min":0,"x_max":0,"o":"m 242 979 l 90 979 l 90 344 b 486 -16 90 133 241 -16 b 882 344 732 -16 882 133 l 882 979 l 731 979 l 731 357 b 486 119 731 217 642 119 b 242 357 330 119 242 217 z m 708 1082 l 708 1168 l 264 1168 l 264 1082 z m 361 1255 b 438 1333 404 1255 438 1290 b 361 1410 438 1376 404 1410 b 283 1333 317 1410 283 1376 b 361 1255 283 1290 317 1255 z m 612 1255 b 690 1333 655 1255 690 1290 b 612 1410 690 1376 655 1410 b 534 1333 569 1410 534 1376 b 612 1255 534 1290 569 1255 z "},"Ů":{"ha":972,"x_min":0,"x_max":0,"o":"m 242 979 l 90 979 l 90 344 b 486 -16 90 133 241 -16 b 882 344 732 -16 882 133 l 882 979 l 731 979 l 731 357 b 486 119 731 217 642 119 b 242 357 330 119 242 217 z m 486 1029 b 619 1161 559 1029 619 1088 b 486 1293 619 1234 559 1293 b 353 1161 413 1293 353 1234 b 486 1029 353 1088 413 1029 z m 486 1094 b 419 1161 450 1094 419 1124 b 486 1227 419 1198 450 1227 b 553 1161 523 1227 553 1198 b 486 1094 553 1124 523 1094 z "},"Ų":{"ha":972,"x_min":0,"x_max":0,"o":"m 643 -300 b 729 -287 682 -300 715 -294 l 729 -196 b 675 -202 715 -199 694 -202 b 594 -136 629 -202 594 -180 b 713 24 594 -86 640 -35 b 882 344 829 121 882 217 l 882 979 l 731 979 l 731 357 b 486 119 731 211 636 119 b 242 357 337 119 242 211 l 242 979 l 90 979 l 90 344 b 486 -16 90 126 248 -16 b 575 -3 514 -16 547 -11 l 575 -5 b 479 -167 515 -51 479 -106 b 643 -300 479 -246 548 -300 z "},"Ư":{"ha":1091,"x_min":0,"x_max":0,"o":"m 486 -16 b 882 344 725 -16 882 126 l 882 876 l 928 876 b 1071 1008 1017 876 1071 925 l 1071 1149 l 945 1149 l 945 1036 b 886 979 945 997 926 979 l 731 979 l 731 357 b 486 119 731 210 636 119 b 242 357 337 119 242 211 l 242 979 l 90 979 l 90 344 b 486 -16 90 126 248 -16 z "},"Ừ":{"ha":1091,"x_min":0,"x_max":0,"o":"m 486 -16 b 882 344 725 -16 882 126 l 882 876 l 928 876 b 1071 1008 1017 876 1071 925 l 1071 1149 l 945 1149 l 945 1036 b 886 979 945 997 926 979 l 731 979 l 731 357 b 486 119 731 210 636 119 b 242 357 337 119 242 211 l 242 979 l 90 979 l 90 344 b 486 -16 90 126 248 -16 z m 418 1059 l 541 1059 l 391 1259 l 240 1259 z "},"Ứ":{"ha":1091,"x_min":0,"x_max":0,"o":"m 486 -16 b 882 344 725 -16 882 126 l 882 876 l 928 876 b 1071 1008 1017 876 1071 925 l 1071 1149 l 945 1149 l 945 1036 b 886 979 945 997 926 979 l 731 979 l 731 357 b 486 119 731 210 636 119 b 242 357 337 119 242 211 l 242 979 l 90 979 l 90 344 b 486 -16 90 126 248 -16 z m 553 1057 l 732 1257 l 581 1257 l 431 1057 z "},"Ự":{"ha":1091,"x_min":0,"x_max":0,"o":"m 486 -16 b 882 344 725 -16 882 126 l 882 876 l 928 876 b 1071 1008 1017 876 1071 925 l 1071 1149 l 945 1149 l 945 1036 b 886 979 945 997 926 979 l 731 979 l 731 357 b 486 119 731 210 636 119 b 242 357 337 119 242 211 l 242 979 l 90 979 l 90 344 b 486 -16 90 126 248 -16 z m 486 -280 b 575 -191 536 -280 575 -240 b 486 -102 575 -142 536 -102 b 397 -191 437 -102 397 -142 b 486 -280 397 -240 437 -280 z "},"Ử":{"ha":1091,"x_min":0,"x_max":0,"o":"m 486 -16 b 882 344 725 -16 882 126 l 882 876 l 928 876 b 1071 1008 1017 876 1071 925 l 1071 1149 l 945 1149 l 945 1036 b 886 979 945 997 926 979 l 731 979 l 731 357 b 486 119 731 210 636 119 b 242 357 337 119 242 211 l 242 979 l 90 979 l 90 344 b 486 -16 90 126 248 -16 z m 372 1196 b 441 1208 391 1204 418 1208 b 503 1161 477 1208 503 1188 b 439 1092 503 1132 477 1104 l 487 1032 b 602 1168 555 1057 602 1109 b 459 1285 602 1240 544 1285 b 372 1270 427 1285 395 1280 z "},"Ữ":{"ha":1091,"x_min":0,"x_max":0,"o":"m 486 -16 b 882 344 725 -16 882 126 l 882 876 l 928 876 b 1071 1008 1017 876 1071 925 l 1071 1149 l 945 1149 l 945 1036 b 886 979 945 997 926 979 l 731 979 l 731 357 b 486 119 731 210 636 119 b 242 357 337 119 242 211 l 242 979 l 90 979 l 90 344 b 486 -16 90 126 248 -16 z m 578 1067 b 713 1246 655 1067 713 1135 l 623 1246 b 576 1154 623 1185 605 1154 b 398 1253 526 1154 494 1253 b 262 1076 319 1253 262 1190 l 352 1076 b 400 1166 350 1133 369 1166 b 578 1067 452 1166 487 1067 z "},"V":{"ha":900,"x_min":0,"x_max":0,"o":"m 533 0 l 882 979 l 720 979 l 453 171 l 449 171 l 182 979 l 18 979 l 367 0 z "},"Ṽ":{"ha":900,"x_min":0,"x_max":0,"o":"m 533 0 l 882 979 l 720 979 l 453 171 l 449 171 l 182 979 l 18 979 l 367 0 z m 541 1067 b 676 1246 618 1067 676 1135 l 586 1246 b 539 1154 586 1185 568 1154 b 361 1253 490 1154 458 1253 b 225 1076 282 1253 225 1190 l 315 1076 b 363 1166 313 1133 332 1166 b 541 1067 416 1166 450 1067 z "},"Ṿ":{"ha":900,"x_min":0,"x_max":0,"o":"m 533 0 l 882 979 l 720 979 l 453 171 l 449 171 l 182 979 l 18 979 l 367 0 z m 450 -280 b 538 -191 499 -280 538 -240 b 450 -102 538 -142 499 -102 b 361 -191 400 -102 361 -142 b 450 -280 361 -240 400 -280 z "},"W":{"ha":1304,"x_min":0,"x_max":0,"o":"m 648 738 l 655 738 l 867 0 l 1010 0 l 1274 979 l 1116 979 l 935 212 l 930 212 l 722 979 l 581 979 l 374 212 l 369 212 l 188 979 l 30 979 l 294 0 l 437 0 z "},"Ẁ":{"ha":1304,"x_min":0,"x_max":0,"o":"m 648 738 l 655 738 l 867 0 l 1010 0 l 1274 979 l 1116 979 l 935 212 l 930 212 l 722 979 l 581 979 l 374 212 l 369 212 l 188 979 l 30 979 l 294 0 l 437 0 z m 584 1059 l 707 1059 l 556 1259 l 406 1259 z "},"Ẃ":{"ha":1304,"x_min":0,"x_max":0,"o":"m 648 738 l 655 738 l 867 0 l 1010 0 l 1274 979 l 1116 979 l 935 212 l 930 212 l 722 979 l 581 979 l 374 212 l 369 212 l 188 979 l 30 979 l 294 0 l 437 0 z m 719 1057 l 897 1257 l 747 1257 l 596 1057 z "},"Ẇ":{"ha":1304,"x_min":0,"x_max":0,"o":"m 648 738 l 655 738 l 867 0 l 1010 0 l 1274 979 l 1116 979 l 935 212 l 930 212 l 722 979 l 581 979 l 374 212 l 369 212 l 188 979 l 30 979 l 294 0 l 437 0 z m 652 1069 b 741 1158 701 1069 741 1109 b 652 1246 741 1207 701 1246 b 563 1158 602 1246 563 1207 b 652 1069 563 1109 602 1069 z "},"Ẉ":{"ha":1304,"x_min":0,"x_max":0,"o":"m 648 738 l 655 738 l 867 0 l 1010 0 l 1274 979 l 1116 979 l 935 212 l 930 212 l 722 979 l 581 979 l 374 212 l 369 212 l 188 979 l 30 979 l 294 0 l 437 0 z m 652 -280 b 741 -191 701 -280 741 -240 b 652 -102 741 -142 701 -102 b 563 -191 602 -102 563 -142 b 652 -280 563 -240 602 -280 z "},"Ẅ":{"ha":1304,"x_min":0,"x_max":0,"o":"m 648 738 l 655 738 l 867 0 l 1010 0 l 1274 979 l 1116 979 l 935 212 l 930 212 l 722 979 l 581 979 l 374 212 l 369 212 l 188 979 l 30 979 l 294 0 l 437 0 z m 522 1080 b 602 1159 566 1080 602 1115 b 522 1238 602 1203 566 1238 b 441 1159 477 1238 441 1203 b 522 1080 441 1115 477 1080 z m 783 1080 b 863 1159 827 1080 863 1115 b 783 1238 863 1203 827 1238 b 702 1159 738 1238 702 1203 b 783 1080 702 1115 738 1080 z "},"Ŵ":{"ha":1304,"x_min":0,"x_max":0,"o":"m 648 738 l 655 738 l 867 0 l 1010 0 l 1274 979 l 1116 979 l 935 212 l 930 212 l 722 979 l 581 979 l 374 212 l 369 212 l 188 979 l 30 979 l 294 0 l 437 0 z m 595 1251 l 407 1044 l 533 1044 l 650 1174 l 654 1174 l 770 1044 l 897 1044 l 708 1251 z "},"X":{"ha":907,"x_min":0,"x_max":0,"o":"m 30 0 l 198 0 l 445 373 l 450 373 l 693 0 l 871 0 l 545 486 l 545 490 l 877 979 l 705 979 l 461 600 l 456 600 l 214 979 l 33 979 l 355 495 l 355 490 z "},"Ẋ":{"ha":907,"x_min":0,"x_max":0,"o":"m 30 0 l 198 0 l 445 373 l 450 373 l 693 0 l 871 0 l 545 486 l 545 490 l 877 979 l 705 979 l 461 600 l 456 600 l 214 979 l 33 979 l 355 495 l 355 490 z m 454 1069 b 543 1158 503 1069 543 1109 b 454 1246 543 1207 503 1246 b 365 1158 404 1246 365 1207 b 454 1069 365 1109 404 1069 z "},"Ẍ":{"ha":907,"x_min":0,"x_max":0,"o":"m 30 0 l 198 0 l 445 373 l 450 373 l 693 0 l 871 0 l 545 486 l 545 490 l 877 979 l 705 979 l 461 600 l 456 600 l 214 979 l 33 979 l 355 495 l 355 490 z m 323 1080 b 404 1159 368 1080 404 1115 b 323 1238 404 1203 368 1238 b 243 1159 279 1238 243 1203 b 323 1080 243 1115 279 1080 z m 585 1080 b 665 1159 629 1080 665 1115 b 585 1238 665 1203 629 1238 b 504 1159 540 1238 504 1203 b 585 1080 504 1115 540 1080 z "},"Y":{"ha":877,"x_min":0,"x_max":0,"o":"m 514 0 l 514 401 l 859 979 l 691 979 l 441 547 l 437 547 l 187 979 l 18 979 l 362 401 l 362 0 z "},"Ỳ":{"ha":877,"x_min":0,"x_max":0,"o":"m 514 0 l 514 401 l 859 979 l 691 979 l 441 547 l 437 547 l 187 979 l 18 979 l 362 401 l 362 0 z m 370 1059 l 493 1059 l 342 1259 l 192 1259 z "},"Ý":{"ha":877,"x_min":0,"x_max":0,"o":"m 514 0 l 514 401 l 859 979 l 691 979 l 441 547 l 437 547 l 187 979 l 18 979 l 362 401 l 362 0 z m 505 1057 l 684 1257 l 533 1257 l 382 1057 z "},"Ẏ":{"ha":877,"x_min":0,"x_max":0,"o":"m 514 0 l 514 401 l 859 979 l 691 979 l 441 547 l 437 547 l 187 979 l 18 979 l 362 401 l 362 0 z m 438 1069 b 527 1158 488 1069 527 1109 b 438 1246 527 1207 488 1246 b 349 1158 389 1246 349 1207 b 438 1069 349 1109 389 1069 z "},"Ỵ":{"ha":877,"x_min":0,"x_max":0,"o":"m 514 0 l 514 401 l 859 979 l 691 979 l 441 547 l 437 547 l 187 979 l 18 979 l 362 401 l 362 0 z m 438 -280 b 527 -191 488 -280 527 -240 b 438 -102 527 -142 488 -102 b 349 -191 389 -102 349 -142 b 438 -280 349 -240 389 -280 z "},"Ÿ":{"ha":877,"x_min":0,"x_max":0,"o":"m 514 0 l 514 401 l 859 979 l 691 979 l 441 547 l 437 547 l 187 979 l 18 979 l 362 401 l 362 0 z m 308 1080 b 388 1159 352 1080 388 1115 b 308 1238 388 1203 352 1238 b 227 1159 263 1238 227 1203 b 308 1080 227 1115 263 1080 z m 569 1080 b 649 1159 613 1080 649 1115 b 569 1238 649 1203 613 1238 b 488 1159 524 1238 488 1203 b 569 1080 488 1115 524 1080 z "},"Ỹ":{"ha":877,"x_min":0,"x_max":0,"o":"m 514 0 l 514 401 l 859 979 l 691 979 l 441 547 l 437 547 l 187 979 l 18 979 l 362 401 l 362 0 z m 530 1067 b 665 1246 607 1067 665 1135 l 574 1246 b 528 1154 574 1185 557 1154 b 350 1253 478 1154 446 1253 b 214 1076 271 1253 214 1190 l 304 1076 b 352 1166 302 1133 321 1166 b 530 1067 404 1166 439 1067 z "},"Ŷ":{"ha":877,"x_min":0,"x_max":0,"o":"m 514 0 l 514 401 l 859 979 l 691 979 l 441 547 l 437 547 l 187 979 l 18 979 l 362 401 l 362 0 z m 382 1251 l 193 1044 l 319 1044 l 436 1174 l 440 1174 l 557 1044 l 683 1044 l 494 1251 z "},"Ȳ":{"ha":877,"x_min":0,"x_max":0,"o":"m 514 0 l 514 401 l 859 979 l 691 979 l 441 547 l 437 547 l 187 979 l 18 979 l 362 401 l 362 0 z m 660 1191 l 216 1191 l 216 1105 l 660 1105 z "},"Ỷ":{"ha":877,"x_min":0,"x_max":0,"o":"m 514 0 l 514 401 l 859 979 l 691 979 l 441 547 l 437 547 l 187 979 l 18 979 l 362 401 l 362 0 z m 323 1196 b 393 1208 343 1204 370 1208 b 454 1161 429 1208 454 1188 b 391 1092 454 1132 429 1104 l 439 1032 b 553 1168 507 1057 553 1109 b 411 1285 553 1240 496 1285 b 323 1270 379 1285 347 1280 z "},"Z":{"ha":863,"x_min":0,"x_max":0,"o":"m 64 0 l 800 0 l 800 132 l 253 132 l 253 136 l 787 875 l 787 979 l 81 979 l 81 848 l 600 848 l 600 842 l 64 104 z "},"Ź":{"ha":863,"x_min":0,"x_max":0,"o":"m 64 0 l 800 0 l 800 132 l 253 132 l 253 136 l 787 875 l 787 979 l 81 979 l 81 848 l 600 848 l 600 842 l 64 104 z m 499 1057 l 677 1257 l 527 1257 l 376 1057 z "},"Ž":{"ha":863,"x_min":0,"x_max":0,"o":"m 64 0 l 800 0 l 800 132 l 253 132 l 253 136 l 787 875 l 787 979 l 81 979 l 81 848 l 600 848 l 600 842 l 64 104 z m 376 1049 l 488 1049 l 677 1256 l 551 1256 l 434 1126 l 430 1126 l 313 1256 l 187 1256 z "},"Ẑ":{"ha":863,"x_min":0,"x_max":0,"o":"m 64 0 l 800 0 l 800 132 l 253 132 l 253 136 l 787 875 l 787 979 l 81 979 l 81 848 l 600 848 l 600 842 l 64 104 z m 376 1251 l 187 1044 l 313 1044 l 430 1174 l 434 1174 l 551 1044 l 677 1044 l 488 1251 z "},"Ẕ":{"ha":863,"x_min":0,"x_max":0,"o":"m 64 0 l 800 0 l 800 132 l 253 132 l 253 136 l 787 875 l 787 979 l 81 979 l 81 848 l 600 848 l 600 842 l 64 104 z m 654 -151 l 210 -151 l 210 -237 l 654 -237 z "},"Ẓ":{"ha":863,"x_min":0,"x_max":0,"o":"m 64 0 l 800 0 l 800 132 l 253 132 l 253 136 l 787 875 l 787 979 l 81 979 l 81 848 l 600 848 l 600 842 l 64 104 z m 432 -280 b 521 -191 481 -280 521 -240 b 432 -102 521 -142 481 -102 b 343 -191 382 -102 343 -142 b 432 -280 343 -240 382 -280 z "},"Ż":{"ha":863,"x_min":0,"x_max":0,"o":"m 64 0 l 800 0 l 800 132 l 253 132 l 253 136 l 787 875 l 787 979 l 81 979 l 81 848 l 600 848 l 600 842 l 64 104 z m 432 1069 b 521 1158 481 1069 521 1109 b 432 1246 521 1207 481 1246 b 343 1158 382 1246 343 1207 b 432 1069 343 1109 382 1069 z "},"Æ":{"ha":1354,"x_min":0,"x_max":0,"o":"m 551 857 l 653 857 l 653 412 l 349 412 z m 653 0 l 1263 0 l 1263 131 l 799 131 l 799 430 l 1238 430 l 1238 556 l 799 556 l 799 848 l 1263 848 l 1263 979 l 457 979 l 9 0 l 163 0 l 296 290 l 653 290 z "},"Ǣ":{"ha":1354,"x_min":0,"x_max":0,"o":"m 551 857 l 653 857 l 653 412 l 349 412 z m 653 0 l 1263 0 l 1263 131 l 799 131 l 799 430 l 1238 430 l 1238 556 l 799 556 l 799 848 l 1263 848 l 1263 979 l 457 979 l 9 0 l 163 0 l 296 290 l 653 290 z m 1153 1191 l 709 1191 l 709 1105 l 1153 1105 z "},"Ǽ":{"ha":1354,"x_min":0,"x_max":0,"o":"m 551 857 l 653 857 l 653 412 l 349 412 z m 653 0 l 1263 0 l 1263 131 l 799 131 l 799 430 l 1238 430 l 1238 556 l 799 556 l 799 848 l 1263 848 l 1263 979 l 457 979 l 9 0 l 163 0 l 296 290 l 653 290 z m 887 1057 l 1065 1257 l 915 1257 l 764 1057 z "},"Œ":{"ha":1503,"x_min":0,"x_max":0,"o":"m 518 862 b 825 489 705 862 825 717 b 518 117 825 261 706 117 b 212 489 330 117 212 261 b 518 862 212 718 330 862 z m 834 0 l 1437 0 l 1437 132 l 979 132 l 979 435 l 1411 435 l 1411 562 l 979 562 l 979 848 l 1437 848 l 1437 979 l 834 979 l 834 823 l 834 823 b 507 997 770 934 652 997 b 56 489 233 997 56 799 b 507 -18 56 180 233 -18 b 834 157 650 -18 773 47 l 834 157 z "},"Ð":{"ha":968,"x_min":0,"x_max":0,"o":"m 252 132 l 252 439 l 435 439 l 435 564 l 252 564 l 252 848 l 431 848 b 753 490 638 848 753 720 b 431 132 753 258 639 132 z m 100 979 l 100 564 l 20 564 l 20 439 l 100 439 l 100 0 l 446 0 b 909 491 737 0 909 182 b 446 979 909 800 736 979 z "},"Þ":{"ha":859,"x_min":0,"x_max":0,"o":"m 106 979 l 106 0 l 258 0 l 258 221 l 491 221 b 795 514 655 221 795 330 b 496 806 795 699 657 806 l 258 806 l 258 979 z m 258 677 l 453 677 b 640 514 562 677 640 624 b 453 349 640 404 562 349 l 258 349 z "},"Α":{"ha":906,"x_min":0,"x_max":0,"o":"m 728 0 l 888 0 l 535 979 l 371 979 l 18 0 l 176 0 l 265 264 l 638 264 z m 450 816 l 454 816 l 600 387 l 304 387 z "},"Β":{"ha":857,"x_min":0,"x_max":0,"o":"m 483 0 b 817 277 691 0 817 104 b 594 516 817 407 727 501 l 594 522 b 768 734 692 538 768 631 b 481 979 768 882 654 979 l 90 979 l 90 0 z m 242 854 l 444 854 b 616 713 554 854 616 804 b 412 562 616 616 544 562 l 242 562 z m 242 124 l 242 446 l 443 446 b 661 286 587 446 661 392 b 452 124 661 180 589 124 z "},"Γ":{"ha":730,"x_min":0,"x_max":0,"o":"m 242 0 l 242 848 l 688 848 l 688 979 l 90 979 l 90 0 z "},"Δ":{"ha":904,"x_min":0,"x_max":0,"o":"m 867 0 l 867 97 l 534 979 l 370 979 l 37 97 l 37 0 z m 201 136 l 448 823 l 452 823 l 697 136 l 697 131 l 201 131 z "},"Ε":{"ha":777,"x_min":0,"x_max":0,"o":"m 711 132 l 242 132 l 242 435 l 686 435 l 686 562 l 242 562 l 242 848 l 711 848 l 711 979 l 90 979 l 90 0 l 711 0 z "},"Ζ":{"ha":863,"x_min":0,"x_max":0,"o":"m 64 0 l 800 0 l 800 132 l 253 132 l 253 136 l 787 875 l 787 979 l 81 979 l 81 848 l 600 848 l 600 842 l 64 104 z "},"Η":{"ha":986,"x_min":0,"x_max":0,"o":"m 897 0 l 897 979 l 745 979 l 745 565 l 242 565 l 242 979 l 90 979 l 90 0 l 242 0 l 242 433 l 745 433 l 745 0 z "},"Θ":{"ha":1042,"x_min":0,"x_max":0,"o":"m 715 424 l 715 550 l 327 550 l 327 424 z m 521 995 b 55 489 229 995 55 799 b 521 -16 55 179 231 -16 b 987 489 812 -16 987 179 b 521 995 987 799 814 995 z m 521 861 b 833 489 717 861 833 719 b 521 117 833 260 716 117 b 209 489 327 117 209 260 b 521 861 209 719 327 861 z "},"Ι":{"ha":332,"x_min":0,"x_max":0,"o":"m 242 0 l 242 979 l 90 979 l 90 0 z "},"Κ":{"ha":877,"x_min":0,"x_max":0,"o":"m 242 0 l 242 326 l 342 441 l 682 0 l 870 0 l 450 545 l 838 979 l 657 979 l 248 513 l 242 513 l 242 979 l 90 979 l 90 0 z "},"Λ":{"ha":881,"x_min":0,"x_max":0,"o":"m 703 0 l 863 0 l 522 979 l 359 979 l 18 0 l 176 0 l 437 808 l 441 808 z "},"Μ":{"ha":1171,"x_min":0,"x_max":0,"o":"m 1080 0 l 1080 979 l 904 979 l 588 206 l 583 206 l 266 979 l 90 979 l 90 0 l 229 0 l 229 720 l 233 720 l 529 7 l 642 7 l 937 720 l 941 720 l 941 0 z "},"Ν":{"ha":979,"x_min":0,"x_max":0,"o":"m 238 0 l 238 721 l 244 721 l 751 0 l 888 0 l 888 979 l 741 979 l 741 257 l 735 257 l 228 979 l 90 979 l 90 0 z "},"Ξ":{"ha":857,"x_min":0,"x_max":0,"o":"m 66 979 l 66 845 l 791 845 l 791 979 z m 732 433 l 732 561 l 125 561 l 125 433 z m 66 134 l 66 0 l 791 0 l 791 134 z "},"Ο":{"ha":1026,"x_min":0,"x_max":0,"o":"m 513 995 b 55 489 231 995 55 800 b 513 -16 55 178 231 -16 b 972 489 795 -16 972 178 b 513 995 972 800 795 995 z m 513 861 b 816 489 699 861 816 718 b 513 117 816 261 699 117 b 210 489 328 117 210 261 b 513 861 210 718 328 861 z "},"Π":{"ha":972,"x_min":0,"x_max":0,"o":"m 883 0 l 883 979 l 90 979 l 90 0 l 242 0 l 242 848 l 731 848 l 731 0 z "},"Ρ":{"ha":822,"x_min":0,"x_max":0,"o":"m 90 979 l 90 0 l 242 0 l 242 334 l 452 334 b 779 657 644 334 779 466 b 457 979 779 848 647 979 z m 242 850 l 417 850 b 624 656 549 850 624 780 b 416 462 624 533 549 462 l 242 462 z "},"Σ":{"ha":844,"x_min":0,"x_max":0,"o":"m 249 136 l 503 497 l 503 502 l 266 842 l 266 848 l 762 848 l 762 979 l 77 979 l 77 865 l 339 491 l 64 100 l 64 0 l 780 0 l 780 132 l 249 132 z "},"Τ":{"ha":817,"x_min":0,"x_max":0,"o":"m 485 0 l 485 848 l 784 848 l 784 979 l 33 979 l 33 848 l 333 848 l 333 0 z "},"Υ":{"ha":877,"x_min":0,"x_max":0,"o":"m 514 0 l 514 401 l 859 979 l 691 979 l 441 547 l 437 547 l 187 979 l 18 979 l 362 401 l 362 0 z "},"Φ":{"ha":1143,"x_min":0,"x_max":0,"o":"m 943 486 b 644 176 943 301 831 186 l 644 795 b 943 486 831 787 943 671 z m 199 486 b 498 795 199 671 311 787 l 498 176 b 199 486 311 186 199 301 z m 644 -51 l 644 48 b 1096 486 918 60 1096 232 b 644 924 1096 740 918 911 l 644 1025 l 498 1025 l 498 924 b 47 486 225 911 47 740 b 498 48 47 232 225 60 l 498 -51 z "},"Χ":{"ha":907,"x_min":0,"x_max":0,"o":"m 30 0 l 198 0 l 445 373 l 450 373 l 693 0 l 871 0 l 545 486 l 545 490 l 877 979 l 705 979 l 461 600 l 456 600 l 214 979 l 33 979 l 355 495 l 355 490 z "},"Ψ":{"ha":1096,"x_min":0,"x_max":0,"o":"m 622 0 l 622 222 b 1019 610 863 224 1019 378 l 1019 979 l 871 979 l 871 612 b 622 355 871 452 784 361 l 622 979 l 474 979 l 474 355 b 224 612 313 361 224 452 l 224 979 l 77 979 l 77 610 b 474 222 77 378 233 224 l 474 0 z "},"Ω":{"ha":1046,"x_min":0,"x_max":0,"o":"m 825 536 b 610 157 825 369 755 252 l 610 0 l 980 0 l 980 129 l 774 129 l 774 134 b 980 544 903 219 980 368 b 523 995 980 811 795 995 b 66 544 250 995 66 811 b 272 134 66 368 143 219 l 272 129 l 66 129 l 66 0 l 435 0 l 435 157 b 220 536 290 252 220 369 b 523 861 220 736 336 861 b 825 536 709 861 825 736 z "},"Ά":{"ha":927,"x_min":0,"x_max":0,"o":"m 749 0 l 910 0 l 557 979 l 393 979 l 39 0 l 197 0 l 287 264 l 660 264 z m 471 816 l 475 816 l 621 387 l 326 387 z m 59 771 l 177 771 l 279 979 l 111 979 z "},"Έ":{"ha":1030,"x_min":0,"x_max":0,"o":"m 28 771 l 146 771 l 248 979 l 79 979 z m 964 132 l 494 132 l 494 435 l 939 435 l 939 562 l 494 562 l 494 848 l 964 848 l 964 979 l 342 979 l 342 0 l 964 0 z "},"Ή":{"ha":1239,"x_min":0,"x_max":0,"o":"m 28 745 l 146 745 l 248 952 l 79 952 z m 1149 0 l 1149 979 l 997 979 l 997 565 l 494 565 l 494 979 l 342 979 l 342 0 l 494 0 l 494 433 l 997 433 l 997 0 z "},"Ί":{"ha":585,"x_min":0,"x_max":0,"o":"m 28 745 l 146 745 l 248 952 l 79 952 z m 494 0 l 494 979 l 342 979 l 342 0 z "},"Ϊ":{"ha":332,"x_min":0,"x_max":0,"o":"m 242 0 l 242 979 l 90 979 l 90 0 z m 36 1080 b 116 1159 80 1080 116 1115 b 36 1238 116 1203 80 1238 b -45 1159 -9 1238 -45 1203 b 36 1080 -45 1115 -9 1080 z m 297 1080 b 377 1159 341 1080 377 1115 b 297 1238 377 1203 341 1238 b 216 1159 252 1238 216 1203 b 297 1080 216 1115 252 1080 z "},"Ό":{"ha":1166,"x_min":0,"x_max":0,"o":"m 15 745 l 133 745 l 235 952 l 66 952 z m 654 995 b 195 489 372 995 195 800 b 654 -16 195 178 372 -16 b 1112 489 935 -16 1112 178 b 654 995 1112 800 935 995 z m 654 861 b 956 489 840 861 956 718 b 654 117 956 261 840 117 b 351 489 468 117 351 261 b 654 861 351 718 468 861 z "},"Ύ":{"ha":1147,"x_min":0,"x_max":0,"o":"m 17 745 l 135 745 l 237 952 l 68 952 z m 785 0 l 785 401 l 1130 979 l 962 979 l 712 547 l 707 547 l 458 979 l 288 979 l 633 401 l 633 0 z "},"Ϋ":{"ha":877,"x_min":0,"x_max":0,"o":"m 514 0 l 514 401 l 859 979 l 691 979 l 441 547 l 437 547 l 187 979 l 18 979 l 362 401 l 362 0 z m 308 1080 b 388 1159 352 1080 388 1115 b 308 1238 388 1203 352 1238 b 227 1159 263 1238 227 1203 b 308 1080 227 1115 263 1080 z m 569 1080 b 649 1159 613 1080 649 1115 b 569 1238 649 1203 613 1238 b 488 1159 524 1238 488 1203 b 569 1080 488 1115 524 1080 z "},"Ώ":{"ha":1190,"x_min":0,"x_max":0,"o":"m 31 745 l 149 745 l 252 952 l 83 952 z m 969 536 b 754 157 969 369 899 252 l 754 0 l 1124 0 l 1124 129 l 918 129 l 918 134 b 1124 544 1046 219 1124 368 b 667 995 1124 811 939 995 b 210 544 394 995 210 811 b 416 134 210 368 287 219 l 416 129 l 210 129 l 210 0 l 578 0 l 578 157 b 364 536 433 252 364 369 b 667 861 364 736 480 861 b 969 536 853 861 969 736 z "},"А":{"ha":920,"x_min":0,"x_max":0,"o":"m 734 0 l 895 0 l 542 979 l 378 979 l 24 0 l 182 0 l 272 264 l 645 264 z m 456 816 l 460 816 l 606 387 l 311 387 z "},"Ӑ":{"ha":920,"x_min":0,"x_max":0,"o":"m 734 0 l 895 0 l 542 979 l 378 979 l 24 0 l 182 0 l 272 264 l 645 264 z m 456 816 l 460 816 l 606 387 l 311 387 z m 235 1257 b 454 1052 235 1135 324 1052 b 673 1257 583 1052 673 1135 l 576 1257 b 454 1130 576 1184 526 1130 b 331 1257 382 1130 332 1184 z "},"Ӓ":{"ha":920,"x_min":0,"x_max":0,"o":"m 734 0 l 895 0 l 542 979 l 378 979 l 24 0 l 182 0 l 272 264 l 645 264 z m 456 816 l 460 816 l 606 387 l 311 387 z m 330 1080 b 410 1159 374 1080 410 1115 b 330 1238 410 1203 374 1238 b 249 1159 285 1238 249 1203 b 330 1080 249 1115 285 1080 z m 591 1080 b 671 1159 635 1080 671 1115 b 591 1238 671 1203 635 1238 b 510 1159 546 1238 510 1203 b 591 1080 510 1115 546 1080 z "},"Б":{"ha":865,"x_min":0,"x_max":0,"o":"m 791 299 b 466 597 791 475 657 597 l 249 597 l 249 848 l 696 848 l 696 979 l 97 979 l 97 0 l 469 0 b 791 299 659 0 791 121 z m 249 129 l 249 470 l 430 470 b 636 299 561 470 636 409 b 431 129 636 190 562 129 z "},"В":{"ha":871,"x_min":0,"x_max":0,"o":"m 490 0 b 823 277 698 0 823 104 b 601 516 823 407 734 501 l 601 522 b 775 734 699 538 775 631 b 488 979 775 882 661 979 l 97 979 l 97 0 z m 249 854 l 451 854 b 623 713 561 854 623 804 b 419 562 623 616 551 562 l 249 562 z m 249 124 l 249 446 l 450 446 b 668 286 593 446 668 392 b 458 124 668 180 595 124 z "},"Г":{"ha":739,"x_min":0,"x_max":0,"o":"m 250 0 l 250 846 l 695 846 l 695 979 l 97 979 l 97 0 z "},"Ѓ":{"ha":739,"x_min":0,"x_max":0,"o":"m 250 0 l 250 846 l 695 846 l 695 979 l 97 979 l 97 0 z m 471 1054 l 650 1254 l 499 1254 l 349 1054 z "},"Ґ":{"ha":739,"x_min":0,"x_max":0,"o":"m 250 846 l 695 846 l 695 1172 l 554 1172 l 554 979 l 97 979 l 97 0 l 250 0 z "},"Ӷ":{"ha":739,"x_min":0,"x_max":0,"o":"m 695 846 l 695 979 l 97 979 l 97 0 l 121 0 l 250 0 l 256 0 l 256 -193 l 396 -193 l 396 131 l 250 131 l 250 846 z "},"Ғ":{"ha":745,"x_min":0,"x_max":0,"o":"m 702 846 l 702 979 l 104 979 l 104 534 l 24 534 l 24 422 l 104 422 l 104 0 l 256 0 l 256 422 l 593 422 l 593 534 l 256 534 l 256 846 z "},"Ӻ":{"ha":745,"x_min":0,"x_max":0,"o":"m 702 846 l 702 979 l 104 979 l 104 534 l 25 534 l 25 422 l 104 422 l 104 215 l 103 215 l 103 -28 b -1 -132 103 -102 77 -132 b -22 -132 -3 -132 -20 -132 l -22 -251 b 11 -252 -18 -252 5 -252 b 256 -28 176 -252 256 -182 l 256 0 l 256 0 l 256 422 l 610 422 l 610 534 l 256 534 l 256 846 z "},"Д":{"ha":1023,"x_min":0,"x_max":0,"o":"m 333 378 l 363 848 l 713 848 l 713 132 l 266 132 l 266 137 b 333 378 313 192 326 267 z m 159 0 l 848 0 l 848 -193 l 987 -193 l 987 132 l 865 132 l 865 979 l 228 979 l 192 385 b 90 132 184 256 160 172 l 19 132 l 19 -193 l 159 -193 z "},"Е":{"ha":791,"x_min":0,"x_max":0,"o":"m 718 132 l 249 132 l 249 435 l 693 435 l 693 562 l 249 562 l 249 848 l 718 848 l 718 979 l 97 979 l 97 0 l 718 0 z "},"Ё":{"ha":791,"x_min":0,"x_max":0,"o":"m 718 132 l 249 132 l 249 435 l 693 435 l 693 562 l 249 562 l 249 848 l 718 848 l 718 979 l 97 979 l 97 0 l 718 0 z m 277 1080 b 357 1159 321 1080 357 1115 b 277 1238 357 1203 321 1238 b 197 1159 233 1238 197 1203 b 277 1080 197 1115 233 1080 z m 538 1080 b 618 1159 583 1080 618 1115 b 538 1238 618 1203 583 1238 b 458 1159 494 1238 458 1203 b 538 1080 458 1115 494 1080 z "},"Ӗ":{"ha":791,"x_min":0,"x_max":0,"o":"m 718 132 l 249 132 l 249 435 l 693 435 l 693 562 l 249 562 l 249 848 l 718 848 l 718 979 l 97 979 l 97 0 l 718 0 z m 190 1257 b 409 1052 190 1135 279 1052 b 628 1257 538 1052 628 1135 l 532 1257 b 409 1130 531 1184 481 1130 b 286 1257 337 1130 287 1184 z "},"Ѐ":{"ha":791,"x_min":0,"x_max":0,"o":"m 718 132 l 249 132 l 249 435 l 693 435 l 693 562 l 249 562 l 249 848 l 718 848 l 718 979 l 97 979 l 97 0 l 718 0 z m 340 1059 l 463 1059 l 312 1259 l 161 1259 z "},"Ж":{"ha":1358,"x_min":0,"x_max":0,"o":"m 903 512 l 1306 979 l 1127 979 l 758 541 l 752 541 l 752 979 l 602 979 l 602 541 l 597 541 l 229 979 l 46 979 l 450 509 l 13 0 l 202 0 l 597 459 l 602 459 l 602 0 l 752 0 l 752 459 l 758 459 l 1149 0 l 1345 0 z "},"Ӂ":{"ha":1358,"x_min":0,"x_max":0,"o":"m 806 1256 b 678 1130 798 1178 749 1130 b 551 1256 608 1130 558 1178 l 452 1256 b 678 1045 459 1143 541 1045 b 905 1256 816 1045 897 1143 z m 903 512 l 1306 979 l 1127 979 l 758 541 l 752 541 l 752 979 l 602 979 l 602 541 l 597 541 l 229 979 l 46 979 l 450 509 l 13 0 l 202 0 l 597 459 l 602 459 l 602 0 l 752 0 l 752 459 l 758 459 l 1149 0 l 1345 0 z "},"Ӝ":{"ha":1358,"x_min":0,"x_max":0,"o":"m 810 1080 b 890 1159 854 1080 890 1115 b 810 1238 890 1203 854 1238 b 729 1159 765 1238 729 1203 b 810 1080 729 1115 765 1080 z m 549 1080 b 629 1159 593 1080 629 1115 b 549 1238 629 1203 593 1238 b 468 1159 504 1238 468 1203 b 549 1080 468 1115 504 1080 z m 903 512 l 1306 979 l 1127 979 l 758 541 l 752 541 l 752 979 l 602 979 l 602 541 l 597 541 l 229 979 l 46 979 l 450 509 l 13 0 l 202 0 l 597 459 l 602 459 l 602 0 l 752 0 l 752 459 l 758 459 l 1149 0 l 1345 0 z "},"Җ":{"ha":1362,"x_min":0,"x_max":0,"o":"m 1232 131 l 903 512 l 1306 979 l 1127 979 l 758 541 l 752 541 l 752 979 l 602 979 l 602 541 l 597 541 l 229 979 l 46 979 l 450 509 l 13 0 l 202 0 l 597 459 l 602 459 l 602 0 l 752 0 l 752 459 l 758 459 l 1149 0 l 1152 0 l 1218 0 l 1218 -193 l 1357 -193 l 1357 131 z "},"З":{"ha":829,"x_min":0,"x_max":0,"o":"m 278 437 l 414 437 b 623 273 545 437 623 376 b 418 105 623 174 540 105 b 197 263 292 105 205 167 l 50 263 b 418 -24 59 91 205 -24 b 779 266 623 -24 779 101 b 566 508 779 399 697 492 l 566 513 b 749 739 675 539 749 630 b 421 1002 749 894 614 1002 b 75 719 218 1002 85 894 l 219 719 b 416 876 228 816 302 876 b 599 724 529 876 599 817 b 410 564 599 629 522 564 l 278 564 z "},"Ӟ":{"ha":829,"x_min":0,"x_max":0,"o":"m 278 437 l 414 437 b 623 273 545 437 623 376 b 418 105 623 174 540 105 b 197 263 292 105 205 167 l 50 263 b 418 -24 59 91 205 -24 b 779 266 623 -24 779 101 b 566 508 779 399 697 492 l 566 513 b 749 739 675 539 749 630 b 421 1002 749 894 614 1002 b 75 719 218 1002 85 894 l 219 719 b 416 876 228 816 302 876 b 599 724 529 876 599 817 b 410 564 599 629 522 564 l 278 564 z m 284 1080 b 364 1159 328 1080 364 1115 b 284 1238 364 1203 328 1238 b 203 1159 239 1238 203 1203 b 284 1080 203 1115 239 1080 z m 545 1080 b 625 1159 589 1080 625 1115 b 545 1238 625 1203 589 1238 b 465 1159 500 1238 465 1203 b 545 1080 465 1115 500 1080 z "},"Ҙ":{"ha":829,"x_min":0,"x_max":0,"o":"m 566 513 b 749 739 675 539 749 630 b 421 1002 749 894 614 1002 b 75 719 218 1002 85 894 l 219 719 b 416 876 228 816 302 876 b 599 724 529 876 599 817 b 410 564 599 629 522 564 l 278 564 l 278 437 l 414 437 b 623 273 545 437 623 376 b 418 105 623 174 540 105 b 197 263 292 105 205 167 l 50 263 b 351 -20 58 110 175 2 l 351 -193 l 490 -193 l 490 -18 b 779 266 659 7 779 121 b 566 508 779 399 697 492 z "},"И":{"ha":1001,"x_min":0,"x_max":0,"o":"m 753 0 l 904 0 l 904 979 l 756 979 l 258 240 l 248 240 l 248 979 l 97 979 l 97 0 l 245 0 l 743 736 l 753 736 z "},"Й":{"ha":1001,"x_min":0,"x_max":0,"o":"m 753 0 l 904 0 l 904 979 l 756 979 l 258 240 l 248 240 l 248 979 l 97 979 l 97 0 l 245 0 l 743 736 l 753 736 z m 281 1251 b 500 1046 281 1129 370 1046 b 719 1251 629 1046 719 1129 l 623 1251 b 500 1124 622 1178 572 1124 b 377 1251 428 1124 378 1178 z "},"Ѝ":{"ha":1001,"x_min":0,"x_max":0,"o":"m 753 0 l 904 0 l 904 979 l 756 979 l 258 240 l 248 240 l 248 979 l 97 979 l 97 0 l 245 0 l 743 736 l 753 736 z m 452 1057 l 574 1057 l 424 1257 l 273 1257 z "},"Ӣ":{"ha":1001,"x_min":0,"x_max":0,"o":"m 753 0 l 904 0 l 904 979 l 756 979 l 258 240 l 248 240 l 248 979 l 97 979 l 97 0 l 245 0 l 743 736 l 753 736 z m 724 1191 l 281 1191 l 281 1105 l 724 1105 z "},"Ӥ":{"ha":1001,"x_min":0,"x_max":0,"o":"m 753 0 l 904 0 l 904 979 l 756 979 l 258 240 l 248 240 l 248 979 l 97 979 l 97 0 l 245 0 l 743 736 l 753 736 z m 366 1080 b 446 1159 410 1080 446 1115 b 366 1238 446 1203 410 1238 b 286 1159 321 1238 286 1203 b 366 1080 286 1115 321 1080 z m 627 1080 b 707 1159 671 1080 707 1115 b 627 1238 707 1203 671 1238 b 547 1159 583 1238 547 1203 b 627 1080 547 1115 583 1080 z "},"Ҋ":{"ha":1043,"x_min":0,"x_max":0,"o":"m 623 1251 b 500 1124 622 1178 572 1124 b 377 1251 428 1124 378 1178 l 281 1251 b 500 1046 281 1129 370 1046 b 719 1251 629 1046 719 1129 z m 904 131 l 904 979 l 756 979 l 258 240 l 248 240 l 248 979 l 97 979 l 97 0 l 245 0 l 743 736 l 753 736 l 753 131 l 753 0 l 866 0 l 813 -193 l 951 -193 l 1026 94 l 1026 131 z "},"К":{"ha":890,"x_min":0,"x_max":0,"o":"m 404 512 l 835 979 l 653 979 l 254 541 l 249 541 l 249 979 l 97 979 l 97 0 l 249 0 l 249 459 l 254 459 l 676 0 l 875 0 z "},"Ќ":{"ha":890,"x_min":0,"x_max":0,"o":"m 676 1254 l 526 1254 l 375 1054 l 498 1054 z m 404 512 l 835 979 l 653 979 l 254 541 l 249 541 l 249 979 l 97 979 l 97 0 l 249 0 l 249 459 l 254 459 l 676 0 l 875 0 z "},"Қ":{"ha":890,"x_min":0,"x_max":0,"o":"m 755 131 l 404 512 l 835 979 l 653 979 l 254 541 l 249 541 l 249 979 l 97 979 l 97 0 l 249 0 l 249 459 l 254 459 l 676 0 l 677 0 l 746 0 l 746 -193 l 885 -193 l 885 131 z "},"Ҝ":{"ha":975,"x_min":0,"x_max":0,"o":"m 595 505 l 920 979 l 749 979 l 457 552 l 433 552 l 433 760 l 325 760 l 325 552 l 249 552 l 249 979 l 97 979 l 97 0 l 249 0 l 249 436 l 325 436 l 325 219 l 433 219 l 433 436 l 457 436 l 772 0 l 960 0 z "},"Ҟ":{"ha":931,"x_min":0,"x_max":0,"o":"m 437 509 l 881 979 l 700 979 l 306 558 l 282 558 l 282 770 l 448 770 l 448 888 l 282 888 l 282 979 l 130 979 l 130 888 l 14 888 l 14 770 l 130 770 l 130 0 l 282 0 l 282 439 l 306 439 l 722 0 l 917 0 z "},"Ҡ":{"ha":1272,"x_min":0,"x_max":0,"o":"m 786 512 l 1217 979 l 1035 979 l 636 541 l 631 541 l 631 848 l 631 979 l 479 979 l 40 979 l 40 848 l 479 848 l 479 0 l 631 0 l 631 459 l 636 459 l 1058 0 l 1257 0 z "},"Ӄ":{"ha":896,"x_min":0,"x_max":0,"o":"m 852 979 l 673 979 l 266 553 l 257 553 l 257 979 l 105 979 l 105 0 l 257 0 l 257 423 l 277 423 b 650 122 505 423 650 302 b 409 -151 650 -42 555 -151 b 358 -149 387 -151 372 -151 l 358 -276 b 418 -281 372 -279 395 -281 b 804 126 650 -281 804 -115 b 425 536 804 330 659 494 z "},"Л":{"ha":962,"x_min":0,"x_max":0,"o":"m 865 0 l 865 979 l 245 979 l 212 381 b 73 130 202 208 165 130 b 33 135 59 130 41 133 l 33 1 b 90 -7 45 -3 66 -7 b 353 374 261 -7 338 116 l 382 848 l 713 848 l 713 0 z "},"Ӆ":{"ha":1003,"x_min":0,"x_max":0,"o":"m 865 131 l 865 979 l 245 979 l 212 381 b 73 130 202 208 165 130 b 33 135 59 130 41 133 l 33 1 b 90 -7 45 -3 66 -7 b 353 374 261 -7 338 116 l 382 848 l 713 848 l 713 131 l 713 0 l 827 0 l 773 -193 l 911 -193 l 986 94 l 986 131 z "},"Ԯ":{"ha":1023,"x_min":0,"x_max":0,"o":"m 865 131 l 865 979 l 245 979 l 212 381 b 73 130 202 208 165 130 b 33 135 59 130 41 133 l 33 1 b 90 -7 45 -3 66 -7 b 353 374 261 -7 338 116 l 382 848 l 713 848 l 713 131 l 713 0 l 848 0 l 848 -193 l 987 -193 l 987 131 z "},"Ԓ":{"ha":962,"x_min":0,"x_max":0,"o":"m 245 979 l 212 381 b 73 130 202 208 165 130 b 33 135 59 130 41 133 l 33 1 b 90 -7 45 -3 66 -7 b 353 374 261 -7 338 116 l 382 848 l 713 848 l 713 217 l 713 0 l 713 -28 b 609 -132 713 -102 687 -132 b 589 -132 607 -132 590 -132 l 589 -251 b 621 -252 591 -252 616 -252 b 865 -28 787 -252 865 -182 l 865 0 l 865 217 l 865 979 z "},"М":{"ha":1184,"x_min":0,"x_max":0,"o":"m 1087 0 l 1087 979 l 911 979 l 595 206 l 589 206 l 273 979 l 97 979 l 97 0 l 235 0 l 235 720 l 240 720 l 536 7 l 648 7 l 943 720 l 948 720 l 948 0 z "},"Ӎ":{"ha":1238,"x_min":0,"x_max":0,"o":"m 1087 131 l 1087 979 l 911 979 l 595 206 l 589 206 l 273 979 l 97 979 l 97 0 l 235 0 l 235 720 l 240 720 l 536 7 l 648 7 l 943 720 l 948 720 l 948 131 l 948 0 l 1061 0 l 1008 -193 l 1145 -193 l 1221 94 l 1221 131 z "},"Н":{"ha":1000,"x_min":0,"x_max":0,"o":"m 903 0 l 903 979 l 751 979 l 751 565 l 249 565 l 249 979 l 97 979 l 97 0 l 249 0 l 249 433 l 751 433 l 751 0 z "},"Ӈ":{"ha":1000,"x_min":0,"x_max":0,"o":"m 751 979 l 751 565 l 249 565 l 249 979 l 97 979 l 97 0 l 249 0 l 249 433 l 751 433 l 751 215 l 751 0 l 751 -28 b 646 -132 751 -102 724 -132 b 627 -132 644 -132 628 -132 l 627 -251 b 659 -252 629 -252 653 -252 b 903 -28 824 -252 903 -182 l 903 0 l 903 215 l 903 979 z "},"Ң":{"ha":1061,"x_min":0,"x_max":0,"o":"m 903 131 l 903 979 l 751 979 l 751 565 l 249 565 l 249 979 l 97 979 l 97 0 l 249 0 l 249 433 l 751 433 l 751 131 l 751 0 l 886 0 l 886 -193 l 1025 -193 l 1025 131 z "},"Ӊ":{"ha":1040,"x_min":0,"x_max":0,"o":"m 903 131 l 903 979 l 751 979 l 751 565 l 249 565 l 249 979 l 97 979 l 97 0 l 249 0 l 249 433 l 751 433 l 751 131 l 751 0 l 864 0 l 810 -193 l 948 -193 l 1024 94 l 1024 131 z "},"Ҥ":{"ha":1393,"x_min":0,"x_max":0,"o":"m 1350 979 l 903 979 l 751 979 l 751 848 l 751 565 l 249 565 l 249 979 l 97 979 l 97 0 l 249 0 l 249 433 l 751 433 l 751 0 l 903 0 l 903 848 l 1350 848 z "},"О":{"ha":1040,"x_min":0,"x_max":0,"o":"m 520 995 b 62 489 238 995 62 800 b 520 -16 62 178 238 -16 b 979 489 802 -16 979 178 b 520 995 979 800 802 995 z m 520 861 b 823 489 706 861 823 718 b 520 117 823 261 706 117 b 217 489 334 117 217 261 b 520 861 217 718 334 861 z "},"Ӧ":{"ha":1040,"x_min":0,"x_max":0,"o":"m 520 995 b 62 489 238 995 62 800 b 520 -16 62 178 238 -16 b 979 489 802 -16 979 178 b 520 995 979 800 802 995 z m 520 861 b 823 489 706 861 823 718 b 520 117 823 261 706 117 b 217 489 334 117 217 261 b 520 861 217 718 334 861 z m 390 1080 b 470 1159 434 1080 470 1115 b 390 1238 470 1203 434 1238 b 309 1159 345 1238 309 1203 b 390 1080 309 1115 345 1080 z m 651 1080 b 731 1159 695 1080 731 1115 b 651 1238 731 1203 695 1238 b 570 1159 606 1238 570 1203 b 651 1080 570 1115 606 1080 z "},"Ө":{"ha":1036,"x_min":0,"x_max":0,"o":"m 817 440 b 519 110 802 238 692 110 b 218 440 344 110 233 238 z m 220 559 b 519 869 241 751 353 869 b 816 559 686 869 795 751 z m 519 1002 b 62 490 238 1002 62 805 b 519 -24 62 175 235 -24 b 975 490 802 -24 975 176 b 519 1002 975 804 801 1002 z "},"Ӫ":{"ha":1036,"x_min":0,"x_max":0,"o":"m 652 1080 b 732 1159 696 1080 732 1115 b 652 1238 732 1203 696 1238 b 571 1159 607 1238 571 1203 b 652 1080 571 1115 607 1080 z m 391 1080 b 471 1159 435 1080 471 1115 b 391 1238 471 1203 435 1238 b 310 1159 346 1238 310 1203 b 391 1080 310 1115 346 1080 z m 817 440 b 519 110 802 238 692 110 b 218 440 344 110 233 238 z m 220 559 b 519 869 241 751 353 869 b 816 559 686 869 795 751 z m 519 1002 b 62 490 238 1002 62 805 b 519 -24 62 175 235 -24 b 975 490 802 -24 975 176 b 519 1002 975 804 801 1002 z "},"Ѳ":{"ha":1036,"x_min":0,"x_max":0,"o":"m 519 110 b 219 427 348 110 239 232 b 346 471 241 452 279 471 b 682 396 460 471 532 397 b 817 438 739 396 783 411 b 519 110 802 237 691 110 z m 519 869 b 815 561 685 869 794 751 b 687 515 793 535 755 515 b 350 590 567 515 496 590 b 219 549 296 590 252 575 b 519 869 238 747 350 869 z m 519 1002 b 62 490 238 1002 62 805 b 519 -24 62 175 235 -24 b 975 490 802 -24 975 176 b 519 1002 975 804 801 1002 z "},"П":{"ha":987,"x_min":0,"x_max":0,"o":"m 890 0 l 890 979 l 97 979 l 97 0 l 250 0 l 250 846 l 739 846 l 739 0 z "},"Ԥ":{"ha":1048,"x_min":0,"x_max":0,"o":"m 890 131 l 890 979 l 97 979 l 97 0 l 250 0 l 250 846 l 739 846 l 739 131 l 739 0 l 873 0 l 873 -193 l 1013 -193 l 1013 131 z "},"Џ":{"ha":987,"x_min":0,"x_max":0,"o":"m 422 0 l 422 -193 l 564 -193 l 564 0 l 890 0 l 890 979 l 739 979 l 739 131 l 249 131 l 249 979 l 97 979 l 97 0 z "},"Р":{"ha":838,"x_min":0,"x_max":0,"o":"m 97 979 l 97 0 l 249 0 l 249 334 l 459 334 b 786 657 651 334 786 466 b 464 979 786 848 654 979 z m 249 850 l 424 850 b 631 656 555 850 631 780 b 423 462 631 533 555 462 l 249 462 z "},"Ҏ":{"ha":832,"x_min":0,"x_max":0,"o":"m 243 460 l 243 850 l 418 850 b 626 654 551 850 626 781 b 564 503 626 587 605 536 l 464 654 l 375 596 l 459 463 b 418 460 446 460 433 460 z m 92 979 l 92 0 l 243 0 l 243 335 l 423 335 b 525 346 459 335 493 339 l 636 171 l 743 244 l 643 395 b 781 654 730 450 781 543 b 458 979 781 847 649 979 z "},"С":{"ha":977,"x_min":0,"x_max":0,"o":"m 510 -18 b 923 290 730 -18 881 96 l 770 290 b 511 117 736 180 642 117 b 217 490 331 117 217 261 b 510 862 217 716 332 862 b 770 671 637 862 739 787 l 923 671 b 510 997 890 866 726 997 b 62 490 237 997 62 800 b 510 -18 62 178 235 -18 z "},"Ҫ":{"ha":979,"x_min":0,"x_max":0,"o":"m 774 304 b 511 117 744 186 647 117 b 217 490 331 117 217 261 b 510 862 217 716 332 862 b 774 654 643 862 747 780 l 925 654 b 510 995 899 859 732 995 b 62 490 237 995 62 800 b 466 -14 62 195 217 5 l 431 -100 l 431 -154 l 476 -154 b 570 -195 542 -154 570 -165 b 488 -240 570 -224 542 -240 b 406 -232 460 -240 421 -235 l 406 -306 b 506 -315 424 -311 467 -316 b 668 -193 600 -314 668 -272 b 529 -83 668 -123 613 -84 l 559 -14 b 926 304 758 2 891 117 z "},"Т":{"ha":831,"x_min":0,"x_max":0,"o":"m 492 0 l 492 848 l 791 848 l 791 979 l 40 979 l 40 848 l 340 848 l 340 0 z "},"Ҭ":{"ha":831,"x_min":0,"x_max":0,"o":"m 791 848 l 791 979 l 40 979 l 40 848 l 340 848 l 340 0 l 345 0 l 479 0 l 479 -193 l 619 -193 l 619 131 l 492 131 l 492 848 z "},"У":{"ha":856,"x_min":0,"x_max":0,"o":"m 212 -7 b 537 280 367 -7 447 70 l 837 979 l 678 979 l 441 377 l 431 377 l 186 979 l 24 979 l 355 218 b 203 126 318 153 271 126 b 147 132 177 126 158 130 l 147 1 b 212 -7 156 -3 182 -7 z "},"Ў":{"ha":856,"x_min":0,"x_max":0,"o":"m 212 -7 b 537 280 367 -7 447 70 l 837 979 l 678 979 l 441 377 l 431 377 l 186 979 l 24 979 l 355 218 b 203 126 318 153 271 126 b 147 132 177 126 158 130 l 147 1 b 212 -7 156 -3 182 -7 z m 217 1252 b 436 1046 217 1130 307 1046 b 655 1252 566 1046 655 1130 l 559 1252 b 436 1124 558 1179 508 1124 b 313 1252 364 1124 314 1179 z "},"Ӯ":{"ha":856,"x_min":0,"x_max":0,"o":"m 212 -7 b 537 280 367 -7 447 70 l 837 979 l 678 979 l 441 377 l 431 377 l 186 979 l 24 979 l 355 218 b 203 126 318 153 271 126 b 147 132 177 126 158 130 l 147 1 b 212 -7 156 -3 182 -7 z m 659 1191 l 215 1191 l 215 1105 l 659 1105 z "},"Ӱ":{"ha":856,"x_min":0,"x_max":0,"o":"m 212 -7 b 537 280 367 -7 447 70 l 837 979 l 678 979 l 441 377 l 431 377 l 186 979 l 24 979 l 355 218 b 203 126 318 153 271 126 b 147 132 177 126 158 130 l 147 1 b 212 -7 156 -3 182 -7 z m 307 1080 b 387 1159 351 1080 387 1115 b 307 1238 387 1203 351 1238 b 226 1159 262 1238 226 1203 b 307 1080 226 1115 262 1080 z m 568 1080 b 648 1159 612 1080 648 1115 b 568 1238 648 1203 612 1238 b 487 1159 523 1238 487 1203 b 568 1080 487 1115 523 1080 z "},"Ӳ":{"ha":856,"x_min":0,"x_max":0,"o":"m 212 -7 b 537 280 367 -7 447 70 l 837 979 l 678 979 l 441 377 l 431 377 l 186 979 l 24 979 l 355 218 b 203 126 318 153 271 126 b 147 132 177 126 158 130 l 147 1 b 212 -7 156 -3 182 -7 z m 629 1057 l 808 1257 l 657 1257 l 507 1057 z m 393 1057 l 571 1257 l 420 1257 l 270 1057 z "},"Ф":{"ha":1135,"x_min":0,"x_max":0,"o":"m 494 216 b 207 492 317 222 207 327 b 494 768 207 656 317 761 z m 928 492 b 642 216 928 328 818 224 l 642 768 b 928 492 818 762 928 656 z m 493 87 l 493 -16 l 643 -16 l 643 87 b 1082 492 910 95 1082 249 b 643 897 1082 736 911 890 l 643 995 l 493 995 l 493 897 b 54 492 225 889 54 735 b 493 87 54 248 226 94 z "},"Х":{"ha":920,"x_min":0,"x_max":0,"o":"m 37 0 l 205 0 l 452 373 l 456 373 l 700 0 l 878 0 l 552 486 l 552 490 l 884 979 l 712 979 l 468 600 l 463 600 l 221 979 l 40 979 l 361 495 l 361 490 z "},"Ҳ":{"ha":935,"x_min":0,"x_max":0,"o":"m 790 131 l 552 486 l 552 490 l 884 979 l 712 979 l 468 600 l 463 600 l 221 979 l 40 979 l 361 495 l 361 490 l 37 0 l 205 0 l 452 373 l 456 373 l 700 0 l 788 0 l 788 -193 l 928 -193 l 928 131 z "},"Ӿ":{"ha":920,"x_min":0,"x_max":0,"o":"m 816 439 l 816 545 l 590 545 l 884 979 l 712 979 l 468 600 l 463 600 l 221 979 l 40 979 l 328 545 l 102 545 l 102 439 l 328 439 l 37 0 l 205 0 l 452 373 l 456 373 l 700 0 l 878 0 l 583 439 z "},"Ӽ":{"ha":920,"x_min":0,"x_max":0,"o":"m 40 979 l 363 492 l 37 0 l 205 0 l 448 368 l 460 368 l 603 149 b 675 26 633 102 656 63 b 699 -65 692 -8 699 -36 b 605 -146 699 -115 659 -146 b 564 -143 587 -146 574 -146 l 564 -263 b 625 -268 576 -266 596 -268 b 850 -63 758 -268 850 -184 b 810 86 850 -14 839 31 b 724 229 786 132 760 176 l 551 488 l 884 979 l 713 979 l 471 605 l 459 605 l 221 979 z "},"Ц":{"ha":1048,"x_min":0,"x_max":0,"o":"m 1013 -193 l 1013 131 l 890 131 l 890 979 l 739 979 l 739 131 l 249 131 l 249 979 l 97 979 l 97 0 l 873 0 l 873 -193 z "},"Ҵ":{"ha":1298,"x_min":0,"x_max":0,"o":"m 1140 131 l 1140 979 l 988 979 l 988 131 l 496 131 l 496 848 l 798 848 l 798 979 l 496 979 l 344 979 l 40 979 l 40 848 l 344 848 l 344 0 l 1123 0 l 1123 -193 l 1262 -193 l 1262 131 z "},"Ч":{"ha":944,"x_min":0,"x_max":0,"o":"m 847 0 l 847 979 l 695 979 l 695 573 b 468 490 652 530 574 490 b 233 720 315 490 233 577 l 233 979 l 81 979 l 81 715 b 454 354 81 511 210 354 b 686 426 559 354 640 391 l 695 426 l 695 0 z "},"Ӵ":{"ha":944,"x_min":0,"x_max":0,"o":"m 847 0 l 847 979 l 695 979 l 695 573 b 468 490 652 530 574 490 b 233 720 315 490 233 577 l 233 979 l 81 979 l 81 715 b 454 354 81 511 210 354 b 686 426 559 354 640 391 l 695 426 l 695 0 z m 346 1080 b 426 1159 390 1080 426 1115 b 346 1238 426 1203 390 1238 b 265 1159 301 1238 265 1203 b 346 1080 265 1115 301 1080 z m 607 1080 b 687 1159 651 1080 687 1115 b 607 1238 687 1203 651 1238 b 526 1159 562 1238 526 1203 b 607 1080 526 1115 562 1080 z "},"Ҷ":{"ha":1005,"x_min":0,"x_max":0,"o":"m 847 131 l 847 979 l 695 979 l 695 573 b 468 490 652 530 574 490 b 233 720 315 490 233 577 l 233 979 l 81 979 l 81 715 b 454 354 81 511 210 354 b 686 426 559 354 640 391 l 695 426 l 695 131 l 695 0 l 830 0 l 830 -193 l 969 -193 l 969 131 z "},"Ӌ":{"ha":944,"x_min":0,"x_max":0,"o":"m 695 979 l 695 573 b 468 490 652 530 574 490 b 233 720 315 490 233 577 l 233 979 l 81 979 l 81 715 b 454 354 81 511 210 354 b 686 426 559 354 640 391 l 695 426 l 695 131 l 573 131 l 573 -193 l 713 -193 l 713 0 l 847 0 l 847 131 l 847 979 z "},"Ҹ":{"ha":949,"x_min":0,"x_max":0,"o":"m 701 979 l 701 576 b 529 494 663 537 603 506 l 529 709 l 417 709 l 417 493 b 233 720 296 511 233 594 l 233 979 l 81 979 l 81 715 b 417 355 81 522 199 371 l 417 176 l 529 176 l 529 360 b 693 427 595 370 652 395 l 701 427 l 701 0 l 852 0 l 852 979 z "},"Һ":{"ha":955,"x_min":0,"x_max":0,"o":"m 97 979 l 97 0 l 249 0 l 249 416 b 477 506 296 468 377 506 b 711 275 629 506 711 418 l 711 0 l 863 0 l 863 281 b 492 641 863 485 733 641 b 260 567 397 641 315 610 l 249 567 l 249 979 z "},"Ԧ":{"ha":1021,"x_min":0,"x_max":0,"o":"m 863 131 l 863 281 b 492 641 863 485 733 641 b 260 567 397 641 315 610 l 249 567 l 249 979 l 97 979 l 97 0 l 249 0 l 249 416 b 477 506 296 468 377 506 b 711 275 629 506 711 418 l 711 131 l 711 0 l 846 0 l 846 -193 l 985 -193 l 985 131 z "},"Ћ":{"ha":1163,"x_min":0,"x_max":0,"o":"m 720 482 b 920 261 848 482 920 401 l 920 0 l 1072 0 l 1072 271 b 743 615 1072 479 947 615 b 503 523 646 615 559 582 l 497 523 l 497 848 l 802 848 l 802 979 l 40 979 l 40 848 l 345 848 l 345 0 l 497 0 l 497 351 b 720 482 532 426 624 482 z "},"Ш":{"ha":1303,"x_min":0,"x_max":0,"o":"m 97 0 l 1206 0 l 1206 979 l 1054 979 l 1054 131 l 727 131 l 727 979 l 575 979 l 575 131 l 249 131 l 249 979 l 97 979 z "},"Щ":{"ha":1364,"x_min":0,"x_max":0,"o":"m 1328 -193 l 1328 131 l 1206 131 l 1206 979 l 1054 979 l 1054 131 l 727 131 l 727 979 l 575 979 l 575 131 l 249 131 l 249 979 l 97 979 l 97 0 l 1189 0 l 1189 -193 z "},"Ъ":{"ha":1015,"x_min":0,"x_max":0,"o":"m 643 0 b 966 314 833 0 966 127 b 638 628 966 500 830 628 l 417 628 l 417 979 l 40 979 l 40 848 l 265 848 l 265 0 z m 417 129 l 417 500 l 603 500 b 810 314 734 500 810 433 b 603 129 810 195 735 129 z "},"Ы":{"ha":1168,"x_min":0,"x_max":0,"o":"m 97 0 l 475 0 b 798 314 665 0 798 128 b 470 628 798 500 663 628 l 249 628 l 249 979 l 97 979 z m 249 129 l 249 500 l 435 500 b 642 314 566 500 642 433 b 435 129 642 195 566 129 z m 1072 0 l 1072 979 l 920 979 l 920 0 z "},"Ӹ":{"ha":1168,"x_min":0,"x_max":0,"o":"m 97 0 l 475 0 b 798 314 665 0 798 128 b 470 628 798 500 663 628 l 249 628 l 249 979 l 97 979 z m 249 129 l 249 500 l 435 500 b 642 314 566 500 642 433 b 435 129 642 195 566 129 z m 1072 0 l 1072 979 l 920 979 l 920 0 z m 454 1080 b 534 1159 498 1080 534 1115 b 454 1238 534 1203 498 1238 b 373 1159 409 1238 373 1203 b 454 1080 373 1115 409 1080 z m 715 1080 b 795 1159 759 1080 795 1115 b 715 1238 795 1203 759 1238 b 634 1159 670 1238 634 1203 b 715 1080 634 1115 670 1080 z "},"Ҍ":{"ha":980,"x_min":0,"x_max":0,"o":"m 382 129 l 382 495 l 569 495 b 775 311 700 495 775 429 b 570 129 775 195 701 129 z m 382 623 l 382 779 l 644 779 l 644 898 l 382 898 l 382 1025 l 231 1025 l 231 898 l 9 898 l 9 779 l 231 779 l 231 0 l 610 0 b 930 311 799 0 930 127 b 605 623 930 496 796 623 z "},"Ѣ":{"ha":980,"x_min":0,"x_max":0,"o":"m 382 129 l 382 495 l 569 495 b 775 311 700 495 775 429 b 570 129 775 195 701 129 z m 382 623 l 382 779 l 644 779 l 644 898 l 382 898 l 382 1025 l 231 1025 l 231 898 l 9 898 l 9 779 l 231 779 l 231 0 l 610 0 b 930 311 799 0 930 127 b 605 623 930 496 796 623 z "},"Ь":{"ha":846,"x_min":0,"x_max":0,"o":"m 97 0 l 475 0 b 798 314 665 0 798 128 b 470 628 798 500 663 628 l 249 628 l 249 979 l 97 979 z m 249 129 l 249 500 l 435 500 b 642 314 566 500 642 433 b 435 129 642 195 566 129 z "},"Љ":{"ha":1463,"x_min":0,"x_max":0,"o":"m 353 374 l 382 848 l 713 848 l 713 0 l 1092 0 b 1414 314 1282 0 1414 127 b 1087 628 1414 500 1279 628 l 865 628 l 865 979 l 245 979 l 212 381 b 73 130 204 237 179 130 b 33 135 59 130 41 133 l 33 1 b 90 -7 45 -3 66 -7 b 353 374 273 -7 339 136 z m 865 129 l 865 500 l 1051 500 b 1259 314 1183 500 1259 433 b 1052 129 1259 195 1183 129 z "},"Њ":{"ha":1476,"x_min":0,"x_max":0,"o":"m 249 437 l 726 437 l 726 0 l 1105 0 b 1427 289 1295 0 1427 118 b 1100 567 1427 454 1292 567 l 878 567 l 878 979 l 726 979 l 726 567 l 249 567 l 249 979 l 97 979 l 97 0 l 249 0 z m 878 129 l 878 439 l 1068 439 b 1272 289 1198 439 1272 385 b 1068 129 1272 187 1198 129 z "},"Э":{"ha":977,"x_min":0,"x_max":0,"o":"m 471 -18 b 916 490 745 -18 916 178 b 471 997 916 800 743 997 b 54 671 255 997 87 866 l 207 671 b 471 862 239 787 344 862 b 756 563 629 862 741 747 l 340 563 l 340 435 l 758 435 b 470 117 749 239 635 117 b 207 290 339 117 241 180 l 54 290 b 471 -18 96 96 251 -18 z "},"Ӭ":{"ha":977,"x_min":0,"x_max":0,"o":"m 471 -18 b 916 490 745 -18 916 178 b 471 997 916 800 743 997 b 54 671 255 997 87 866 l 207 671 b 471 862 239 787 344 862 b 756 563 629 862 741 747 l 340 563 l 340 435 l 758 435 b 470 117 749 239 635 117 b 207 290 339 117 241 180 l 54 290 b 471 -18 96 96 251 -18 z m 341 1080 b 421 1159 385 1080 421 1115 b 341 1238 421 1203 385 1238 b 260 1159 296 1238 260 1203 b 341 1080 260 1115 296 1080 z m 602 1080 b 682 1159 646 1080 682 1115 b 602 1238 682 1203 646 1238 b 522 1159 557 1238 522 1203 b 602 1080 522 1115 557 1080 z "},"Ю":{"ha":1374,"x_min":0,"x_max":0,"o":"m 864 -24 b 1313 490 1143 -24 1313 176 b 864 1002 1313 804 1141 1002 b 417 565 610 1002 443 836 l 249 565 l 249 979 l 97 979 l 97 0 l 249 0 l 249 433 l 416 433 b 864 -24 435 152 601 -24 z m 863 868 b 1157 490 1045 868 1157 722 b 863 111 1157 260 1045 111 b 568 490 680 111 568 260 b 863 868 568 722 683 868 z "},"Я":{"ha":892,"x_min":0,"x_max":0,"o":"m 645 493 l 446 493 b 242 672 317 493 242 558 b 446 850 242 785 317 850 l 645 850 z m 468 368 l 645 368 l 645 0 l 796 0 l 796 979 l 415 979 b 86 673 219 979 86 854 b 310 388 86 530 176 422 l 37 0 l 212 0 z "},"Ҕ":{"ha":903,"x_min":0,"x_max":0,"o":"m 667 979 l 97 979 l 97 0 l 249 0 l 249 351 b 479 482 284 427 380 482 b 675 292 598 482 675 407 b 504 106 675 176 610 106 b 419 117 467 106 433 111 l 419 -12 b 511 -23 433 -17 470 -23 b 827 296 705 -23 827 103 b 498 615 827 485 700 615 b 260 522 404 615 316 580 l 249 522 l 249 848 l 667 848 z "},"Ҧ":{"ha":1505,"x_min":0,"x_max":0,"o":"m 97 979 l 97 0 l 250 0 l 250 846 l 700 846 l 700 0 l 850 0 l 850 351 b 1080 482 886 427 983 482 b 1277 292 1200 482 1277 407 b 1105 106 1277 176 1213 106 b 1021 117 1073 106 1038 111 l 1021 -12 b 1113 -23 1038 -18 1078 -23 b 1430 296 1305 -23 1430 102 b 1100 615 1430 488 1298 615 b 862 522 1006 615 918 581 l 850 522 l 850 979 z "},"Є":{"ha":977,"x_min":0,"x_max":0,"o":"m 923 290 l 770 290 b 511 117 736 180 642 117 b 219 435 346 117 229 239 l 637 435 l 637 563 l 221 563 b 510 862 237 747 352 862 b 770 671 637 862 739 787 l 923 671 b 510 997 890 866 726 997 b 62 490 237 997 62 800 b 510 -18 62 178 235 -18 b 923 290 730 -18 881 96 z "},"Ӏ":{"ha":346,"x_min":0,"x_max":0,"o":"m 249 0 l 249 979 l 97 979 l 97 0 z "},"І":{"ha":346,"x_min":0,"x_max":0,"o":"m 249 0 l 249 979 l 97 979 l 97 0 z "},"Ї":{"ha":346,"x_min":0,"x_max":0,"o":"m 249 0 l 249 979 l 97 979 l 97 0 z m 43 1080 b 123 1159 87 1080 123 1115 b 43 1238 123 1203 87 1238 b -38 1159 -2 1238 -38 1203 b 43 1080 -38 1115 -2 1080 z m 304 1080 b 384 1159 348 1080 384 1115 b 304 1238 384 1203 348 1238 b 223 1159 259 1238 223 1203 b 304 1080 223 1115 259 1080 z "},"Ҩ":{"ha":1326,"x_min":0,"x_max":0,"o":"m 869 749 b 1048 534 977 749 1048 656 b 863 177 1048 387 975 252 b 690 525 751 257 690 393 b 869 749 690 652 750 749 z m 1251 149 b 1091 103 1206 120 1144 103 b 994 115 1058 103 1025 107 b 1199 534 1112 205 1199 361 b 869 882 1199 744 1068 882 b 540 521 670 882 540 725 b 728 121 540 361 608 216 b 615 110 695 114 658 110 b 218 511 391 110 218 270 b 501 869 218 686 321 831 l 501 1008 b 62 513 241 981 62 768 b 615 -23 62 198 283 -23 b 860 35 705 -23 785 -3 b 1089 -24 929 -5 1004 -24 b 1301 35 1165 -24 1237 -5 z "},"Ү":{"ha":879,"x_min":0,"x_max":0,"o":"m 515 0 l 515 401 l 861 979 l 692 979 l 443 547 l 438 547 l 189 979 l 19 979 l 363 401 l 363 0 z "},"Ұ":{"ha":879,"x_min":0,"x_max":0,"o":"m 861 979 l 692 979 l 443 547 l 438 547 l 189 979 l 19 979 l 325 466 l 116 466 l 116 357 l 363 357 l 363 0 l 515 0 l 515 357 l 764 357 l 764 466 l 554 466 z "},"Ҽ":{"ha":1169,"x_min":0,"x_max":0,"o":"m 414 591 b 680 869 435 762 539 869 b 945 591 833 869 933 765 z m 410 468 l 1107 468 b 1108 528 1107 468 1108 522 b 682 1002 1108 821 945 1002 b 256 593 453 1002 292 843 b 146 695 182 595 146 631 b 165 792 146 744 166 792 l 35 792 b 12 680 35 792 12 747 b 249 468 12 561 97 472 b 699 -24 256 163 426 -24 b 1095 259 902 -24 1058 88 l 941 259 b 701 110 907 162 822 110 b 410 440 525 110 409 242 z "},"Ҿ":{"ha":1169,"x_min":0,"x_max":0,"o":"m 414 591 b 680 869 435 762 539 869 b 945 591 833 869 933 765 z m 410 468 l 1107 468 b 1108 528 1107 468 1108 522 b 682 1002 1108 821 945 1002 b 256 593 453 1002 292 843 b 146 695 182 595 146 631 b 165 792 146 744 166 792 l 35 792 b 12 680 35 792 12 747 b 249 468 12 561 97 472 b 615 -18 255 196 391 18 l 615 -193 l 756 -193 l 756 -20 b 1095 259 931 -1 1061 104 l 941 259 b 701 110 907 162 822 110 b 410 440 525 110 409 242 z "},"Ӕ":{"ha":1341,"x_min":0,"x_max":0,"o":"m 555 857 l 657 857 l 657 412 l 353 412 z m 657 0 l 1267 0 l 1267 131 l 803 131 l 803 430 l 1242 430 l 1242 556 l 803 556 l 803 848 l 1267 848 l 1267 979 l 461 979 l 13 0 l 167 0 l 300 290 l 657 290 z "},"Ə":{"ha":987,"x_min":0,"x_max":0,"o":"m 492 -24 b 926 488 751 -24 926 181 b 479 1002 926 802 751 1002 b 75 720 281 1002 131 897 l 230 720 b 477 869 273 818 352 869 b 765 538 646 869 766 732 l 765 523 l 62 523 b 62 463 62 523 62 473 b 492 -24 64 165 226 -24 z m 494 110 b 225 400 340 110 239 219 l 762 400 b 494 110 743 223 638 110 z "},"Ә":{"ha":987,"x_min":0,"x_max":0,"o":"m 492 -24 b 926 488 751 -24 926 181 b 479 1002 926 802 751 1002 b 75 720 281 1002 131 897 l 230 720 b 477 869 273 818 352 869 b 765 538 646 869 766 732 l 765 523 l 62 523 b 62 463 62 523 62 473 b 492 -24 64 165 226 -24 z m 494 110 b 225 400 340 110 239 219 l 762 400 b 494 110 743 223 638 110 z "},"Ӛ":{"ha":987,"x_min":0,"x_max":0,"o":"m 492 -24 b 926 488 751 -24 926 181 b 479 1002 926 802 751 1002 b 75 720 281 1002 131 897 l 230 720 b 477 869 273 818 352 869 b 765 538 646 869 766 732 l 765 523 l 62 523 b 62 463 62 523 62 473 b 492 -24 64 165 226 -24 z m 494 110 b 225 400 340 110 239 219 l 762 400 b 494 110 743 223 638 110 z m 345 1080 b 425 1159 389 1080 425 1115 b 345 1238 425 1203 389 1238 b 264 1159 300 1238 264 1203 b 345 1080 264 1115 300 1080 z m 606 1080 b 686 1159 650 1080 686 1115 b 606 1238 686 1203 650 1238 b 526 1159 562 1238 526 1203 b 606 1080 526 1115 562 1080 z "},"Ӡ":{"ha":822,"x_min":0,"x_max":0,"o":"m 405 -24 b 764 283 616 -24 764 102 b 444 584 764 470 638 574 l 444 595 l 737 875 l 737 979 l 85 979 l 85 848 l 527 848 l 527 836 l 267 591 l 267 472 l 357 472 b 608 282 519 472 608 412 b 404 104 608 172 528 104 b 195 263 286 104 204 166 l 49 263 b 405 -24 58 90 199 -24 z "},"Ԑ":{"ha":834,"x_min":0,"x_max":0,"o":"m 556 435 l 556 562 l 425 562 b 235 723 313 562 235 629 b 418 876 235 815 302 876 b 615 719 532 876 606 817 l 759 719 b 412 1002 748 894 617 1002 b 85 737 220 1002 85 894 b 268 515 85 630 160 541 l 268 504 b 50 266 141 491 50 404 b 416 -24 50 100 209 -24 b 784 263 629 -24 775 91 l 638 263 b 416 105 627 168 543 105 b 206 272 289 105 206 175 b 420 435 206 373 284 435 z "},"Ѵ":{"ha":1019,"x_min":0,"x_max":0,"o":"m 541 0 l 806 738 b 853 829 823 786 838 815 b 903 849 866 843 883 849 b 966 837 922 849 946 844 l 1009 958 b 882 991 975 978 924 991 b 768 958 835 991 798 980 b 665 776 724 925 694 871 l 465 182 l 454 182 l 190 979 l 24 979 l 374 0 z "},"Ԝ":{"ha":1295,"x_min":0,"x_max":0,"o":"m 644 738 l 651 738 l 863 0 l 1006 0 l 1270 979 l 1112 979 l 931 212 l 926 212 l 718 979 l 577 979 l 370 212 l 365 212 l 184 979 l 26 979 l 290 0 l 433 0 z "},"Ђ":{"ha":1151,"x_min":0,"x_max":0,"o":"m 760 -23 b 1076 296 954 -23 1076 103 b 746 615 1076 485 948 615 b 503 522 647 615 561 583 l 497 522 l 497 848 l 802 848 l 802 979 l 40 979 l 40 848 l 345 848 l 345 0 l 497 0 l 497 351 b 727 482 532 427 629 482 b 924 292 846 482 924 407 b 752 106 924 176 859 106 b 667 117 715 106 682 111 l 667 -12 b 760 -23 681 -17 718 -23 z "},"Ѕ":{"ha":857,"x_min":0,"x_max":0,"o":"m 53 273 b 426 -16 62 96 209 -16 b 804 281 658 -16 804 98 b 519 553 804 425 720 505 l 412 579 b 234 720 286 610 234 651 b 433 867 234 807 315 867 b 640 710 551 867 631 808 l 788 710 b 435 995 783 879 642 995 b 79 710 226 995 79 879 b 342 446 79 574 162 490 l 469 416 b 649 263 595 385 649 339 b 437 112 649 176 560 112 b 203 273 308 112 214 176 z "},"Ј":{"ha":732,"x_min":0,"x_max":0,"o":"m 33 251 b 329 -22 33 88 153 -22 b 633 285 519 -22 633 91 l 633 979 l 481 979 l 481 286 b 328 114 481 174 427 114 b 182 251 243 114 184 170 z "},"a":{"ha":720,"x_min":0,"x_max":0,"o":"m 322 104 b 192 207 243 104 192 144 b 329 313 192 268 241 307 l 505 323 l 505 267 b 322 104 505 174 425 104 z m 281 -12 b 507 117 375 -12 465 38 l 510 117 l 510 0 l 650 0 l 650 492 b 367 726 650 635 540 726 b 73 503 191 726 81 631 l 211 503 b 361 607 224 566 277 607 b 505 480 451 607 505 559 l 505 425 l 309 414 b 44 203 140 404 44 328 b 281 -12 44 75 142 -12 z "},"à":{"ha":720,"x_min":0,"x_max":0,"o":"m 322 104 b 192 207 243 104 192 144 b 329 313 192 268 241 307 l 505 323 l 505 267 b 322 104 505 174 425 104 z m 281 -12 b 507 117 375 -12 465 38 l 510 117 l 510 0 l 650 0 l 650 492 b 367 726 650 635 540 726 b 73 503 191 726 81 631 l 211 503 b 361 607 224 566 277 607 b 505 480 451 607 505 559 l 505 425 l 309 414 b 44 203 140 404 44 328 b 281 -12 44 75 142 -12 z m 416 815 l 271 1021 l 124 1021 l 294 815 z "},"á":{"ha":720,"x_min":0,"x_max":0,"o":"m 322 104 b 192 207 243 104 192 144 b 329 313 192 268 241 307 l 505 323 l 505 267 b 322 104 505 174 425 104 z m 281 -12 b 507 117 375 -12 465 38 l 510 117 l 510 0 l 650 0 l 650 492 b 367 726 650 635 540 726 b 73 503 191 726 81 631 l 211 503 b 361 607 224 566 277 607 b 505 480 451 607 505 559 l 505 425 l 309 414 b 44 203 140 404 44 328 b 281 -12 44 75 142 -12 z m 421 815 l 591 1021 l 444 1021 l 298 815 z "},"ä":{"ha":720,"x_min":0,"x_max":0,"o":"m 322 104 b 192 207 243 104 192 144 b 329 313 192 268 241 307 l 505 323 l 505 267 b 322 104 505 174 425 104 z m 281 -12 b 507 117 375 -12 465 38 l 510 117 l 510 0 l 650 0 l 650 492 b 367 726 650 635 540 726 b 73 503 191 726 81 631 l 211 503 b 361 607 224 566 277 607 b 505 480 451 607 505 559 l 505 425 l 309 414 b 44 203 140 404 44 328 b 281 -12 44 75 142 -12 z m 229 820 b 309 899 273 820 309 855 b 229 979 309 943 273 979 b 149 899 184 979 149 943 b 229 820 149 855 184 820 z m 490 820 b 570 899 534 820 570 855 b 490 979 570 943 534 979 b 410 899 446 979 410 943 b 490 820 410 855 446 820 z "},"ǟ":{"ha":720,"x_min":0,"x_max":0,"o":"m 322 104 b 192 207 243 104 192 144 b 329 313 192 268 241 307 l 505 323 l 505 267 b 322 104 505 174 425 104 z m 281 -12 b 507 117 375 -12 465 38 l 510 117 l 510 0 l 650 0 l 650 492 b 367 726 650 635 540 726 b 73 503 191 726 81 631 l 211 503 b 361 607 224 566 277 607 b 505 480 451 607 505 559 l 505 425 l 309 414 b 44 203 140 404 44 328 b 281 -12 44 75 142 -12 z m 229 791 b 309 871 273 791 309 827 b 229 950 309 915 273 950 b 148 871 184 950 148 915 b 229 791 148 827 184 791 z m 490 791 b 571 871 535 791 571 827 b 490 950 571 915 535 950 b 410 871 446 950 410 915 b 490 791 410 827 446 791 z m 562 1133 l 157 1133 l 157 1046 l 562 1046 z "},"å":{"ha":720,"x_min":0,"x_max":0,"o":"m 322 104 b 192 207 243 104 192 144 b 329 313 192 268 241 307 l 505 323 l 505 267 b 322 104 505 174 425 104 z m 281 -12 b 507 117 375 -12 465 38 l 510 117 l 510 0 l 650 0 l 650 492 b 367 726 650 635 540 726 b 73 503 191 726 81 631 l 211 503 b 361 607 224 566 277 607 b 505 480 451 607 505 559 l 505 425 l 309 414 b 44 203 140 404 44 328 b 281 -12 44 75 142 -12 z m 359 778 b 495 912 434 778 495 838 b 359 1048 495 987 434 1048 b 224 912 285 1048 224 987 b 359 778 224 838 285 778 z m 359 845 b 292 912 322 845 292 875 b 359 980 292 950 322 980 b 427 912 397 980 427 950 b 359 845 427 875 397 845 z "},"ǻ":{"ha":720,"x_min":0,"x_max":0,"o":"m 322 104 b 192 207 243 104 192 144 b 329 313 192 268 241 307 l 505 323 l 505 267 b 322 104 505 174 425 104 z m 281 -12 b 507 117 375 -12 465 38 l 510 117 l 510 0 l 650 0 l 650 492 b 367 726 650 635 540 726 b 73 503 191 726 81 631 l 211 503 b 361 607 224 566 277 607 b 505 480 451 607 505 559 l 505 425 l 309 414 b 44 203 140 404 44 328 b 281 -12 44 75 142 -12 z m 360 778 b 495 912 435 778 495 838 b 360 1046 495 986 435 1046 b 224 912 284 1046 224 986 b 360 778 224 838 284 778 z m 293 912 b 360 979 293 949 323 979 b 427 912 397 979 427 949 b 360 845 427 875 397 845 b 293 912 323 845 293 875 z m 307 1099 l 416 1099 l 517 1236 l 392 1236 z "},"ã":{"ha":720,"x_min":0,"x_max":0,"o":"m 322 104 b 192 207 243 104 192 144 b 329 313 192 268 241 307 l 505 323 l 505 267 b 322 104 505 174 425 104 z m 281 -12 b 507 117 375 -12 465 38 l 510 117 l 510 0 l 650 0 l 650 492 b 367 726 650 635 540 726 b 73 503 191 726 81 631 l 211 503 b 361 607 224 566 277 607 b 505 480 451 607 505 559 l 505 425 l 309 414 b 44 203 140 404 44 328 b 281 -12 44 75 142 -12 z m 453 817 b 588 996 530 817 588 884 l 498 996 b 451 903 498 935 480 903 b 273 1002 401 903 370 1002 b 137 825 194 1002 137 939 l 227 825 b 275 916 225 883 244 916 b 453 817 328 916 362 817 z "},"ằ":{"ha":720,"x_min":0,"x_max":0,"o":"m 322 104 b 192 207 243 104 192 144 b 329 313 192 268 241 307 l 505 323 l 505 267 b 322 104 505 174 425 104 z m 281 -12 b 507 117 375 -12 465 38 l 510 117 l 510 0 l 650 0 l 650 492 b 367 726 650 635 540 726 b 73 503 191 726 81 631 l 211 503 b 361 607 224 566 277 607 b 505 480 451 607 505 559 l 505 425 l 309 414 b 44 203 140 404 44 328 b 281 -12 44 75 142 -12 z m 426 1027 l 288 1225 l 159 1225 l 317 1027 z m 587 1020 l 488 1020 b 359 890 488 942 435 890 b 231 1020 284 890 231 942 l 132 1020 b 359 807 133 897 218 807 b 587 1020 500 807 586 897 z "},"ǡ":{"ha":720,"x_min":0,"x_max":0,"o":"m 322 104 b 192 207 243 104 192 144 b 329 313 192 268 241 307 l 505 323 l 505 267 b 322 104 505 174 425 104 z m 281 -12 b 507 117 375 -12 465 38 l 510 117 l 510 0 l 650 0 l 650 492 b 367 726 650 635 540 726 b 73 503 191 726 81 631 l 211 503 b 361 607 224 566 277 607 b 505 480 451 607 505 559 l 505 425 l 309 414 b 44 203 140 404 44 328 b 281 -12 44 75 142 -12 z m 359 800 b 449 889 408 800 449 840 b 359 978 449 937 408 978 b 270 889 311 978 270 937 b 359 800 270 840 311 800 z m 562 1135 l 157 1135 l 157 1048 l 562 1048 z "},"ḁ":{"ha":720,"x_min":0,"x_max":0,"o":"m 322 104 b 192 207 243 104 192 144 b 329 313 192 268 241 307 l 505 323 l 505 267 b 322 104 505 174 425 104 z m 281 -12 b 507 117 375 -12 465 38 l 510 117 l 510 0 l 650 0 l 650 492 b 367 726 650 635 540 726 b 73 503 191 726 81 631 l 211 503 b 361 607 224 566 277 607 b 505 480 451 607 505 559 l 505 425 l 309 414 b 44 203 140 404 44 328 b 281 -12 44 75 142 -12 z m 351 -335 b 486 -201 425 -335 486 -275 b 351 -65 486 -126 425 -65 b 215 -201 276 -65 215 -126 b 351 -335 215 -275 276 -335 z m 351 -268 b 283 -201 313 -268 283 -238 b 351 -133 283 -163 313 -133 b 418 -201 388 -133 418 -163 b 351 -268 418 -238 388 -268 z "},"â":{"ha":720,"x_min":0,"x_max":0,"o":"m 322 104 b 192 207 243 104 192 144 b 329 313 192 268 241 307 l 505 323 l 505 267 b 322 104 505 174 425 104 z m 281 -12 b 507 117 375 -12 465 38 l 510 117 l 510 0 l 650 0 l 650 492 b 367 726 650 635 540 726 b 73 503 191 726 81 631 l 211 503 b 361 607 224 566 277 607 b 505 480 451 607 505 559 l 505 425 l 309 414 b 44 203 140 404 44 328 b 281 -12 44 75 142 -12 z m 416 1021 l 303 1021 l 121 812 l 246 812 l 357 941 l 361 941 l 473 812 l 598 812 z "},"ậ":{"ha":720,"x_min":0,"x_max":0,"o":"m 322 104 b 192 207 243 104 192 144 b 329 313 192 268 241 307 l 505 323 l 505 267 b 322 104 505 174 425 104 z m 281 -12 b 507 117 375 -12 465 38 l 510 117 l 510 0 l 650 0 l 650 492 b 367 726 650 635 540 726 b 73 503 191 726 81 631 l 211 503 b 361 607 224 566 277 607 b 505 480 451 607 505 559 l 505 425 l 309 414 b 44 203 140 404 44 328 b 281 -12 44 75 142 -12 z m 416 1021 l 303 1021 l 121 812 l 246 812 l 357 941 l 361 941 l 473 812 l 598 812 z m 351 -280 b 439 -191 400 -280 439 -240 b 351 -102 439 -142 400 -102 b 262 -191 301 -102 262 -142 b 351 -280 262 -240 301 -280 z "},"ấ":{"ha":720,"x_min":0,"x_max":0,"o":"m 322 104 b 192 207 243 104 192 144 b 329 313 192 268 241 307 l 505 323 l 505 267 b 322 104 505 174 425 104 z m 281 -12 b 507 117 375 -12 465 38 l 510 117 l 510 0 l 650 0 l 650 492 b 367 726 650 635 540 726 b 73 503 191 726 81 631 l 211 503 b 361 607 224 566 277 607 b 505 480 451 607 505 559 l 505 425 l 309 414 b 44 203 140 404 44 328 b 281 -12 44 75 142 -12 z m 416 1009 l 302 1009 l 120 812 l 246 812 l 357 933 l 361 933 l 473 812 l 599 812 z m 476 1029 l 590 1029 l 747 1227 l 616 1227 z "},"ẫ":{"ha":720,"x_min":0,"x_max":0,"o":"m 322 104 b 192 207 243 104 192 144 b 329 313 192 268 241 307 l 505 323 l 505 267 b 322 104 505 174 425 104 z m 281 -12 b 507 117 375 -12 465 38 l 510 117 l 510 0 l 650 0 l 650 492 b 367 726 650 635 540 726 b 73 503 191 726 81 631 l 211 503 b 361 607 224 566 277 607 b 505 480 451 607 505 559 l 505 425 l 309 414 b 44 203 140 404 44 328 b 281 -12 44 75 142 -12 z m 416 1007 l 302 1007 l 120 812 l 246 812 l 357 932 l 361 932 l 473 812 l 599 812 z m 450 1055 b 585 1225 527 1055 585 1120 l 495 1225 b 448 1139 495 1170 478 1139 b 270 1236 395 1139 360 1236 b 134 1067 191 1236 134 1174 l 224 1067 b 272 1152 222 1119 241 1152 b 450 1055 324 1152 359 1055 z "},"ầ":{"ha":720,"x_min":0,"x_max":0,"o":"m 322 104 b 192 207 243 104 192 144 b 329 313 192 268 241 307 l 505 323 l 505 267 b 322 104 505 174 425 104 z m 281 -12 b 507 117 375 -12 465 38 l 510 117 l 510 0 l 650 0 l 650 492 b 367 726 650 635 540 726 b 73 503 191 726 81 631 l 211 503 b 361 607 224 566 277 607 b 505 480 451 607 505 559 l 505 425 l 309 414 b 44 203 140 404 44 328 b 281 -12 44 75 142 -12 z m 416 1009 l 302 1009 l 120 812 l 246 812 l 357 933 l 361 933 l 473 812 l 599 812 z m 637 1029 l 497 1227 l 366 1227 l 524 1029 z "},"ẩ":{"ha":720,"x_min":0,"x_max":0,"o":"m 322 104 b 192 207 243 104 192 144 b 329 313 192 268 241 307 l 505 323 l 505 267 b 322 104 505 174 425 104 z m 281 -12 b 507 117 375 -12 465 38 l 510 117 l 510 0 l 650 0 l 650 492 b 367 726 650 635 540 726 b 73 503 191 726 81 631 l 211 503 b 361 607 224 566 277 607 b 505 480 451 607 505 559 l 505 425 l 309 414 b 44 203 140 404 44 328 b 281 -12 44 75 142 -12 z m 426 1142 b 492 1154 447 1150 468 1154 b 551 1106 526 1154 551 1134 b 492 1036 551 1077 529 1050 l 543 983 b 642 1114 607 1005 642 1052 b 503 1231 642 1185 588 1231 b 426 1216 475 1231 443 1225 z m 416 1009 l 302 1009 l 120 812 l 246 812 l 357 933 l 361 933 l 473 812 l 599 812 z "},"ă":{"ha":720,"x_min":0,"x_max":0,"o":"m 322 104 b 192 207 243 104 192 144 b 329 313 192 268 241 307 l 505 323 l 505 267 b 322 104 505 174 425 104 z m 281 -12 b 507 117 375 -12 465 38 l 510 117 l 510 0 l 650 0 l 650 492 b 367 726 650 635 540 726 b 73 503 191 726 81 631 l 211 503 b 361 607 224 566 277 607 b 505 480 451 607 505 559 l 505 425 l 309 414 b 44 203 140 404 44 328 b 281 -12 44 75 142 -12 z m 132 1020 b 359 807 132 897 218 807 b 586 1020 500 807 585 897 l 487 1020 b 359 890 487 942 434 890 b 231 1020 283 890 231 942 z "},"ắ":{"ha":720,"x_min":0,"x_max":0,"o":"m 322 104 b 192 207 243 104 192 144 b 329 313 192 268 241 307 l 505 323 l 505 267 b 322 104 505 174 425 104 z m 281 -12 b 507 117 375 -12 465 38 l 510 117 l 510 0 l 650 0 l 650 492 b 367 726 650 635 540 726 b 73 503 191 726 81 631 l 211 503 b 361 607 224 566 277 607 b 505 480 451 607 505 559 l 505 425 l 309 414 b 44 203 140 404 44 328 b 281 -12 44 75 142 -12 z m 292 1029 l 406 1029 l 563 1227 l 433 1227 z m 587 1020 l 488 1020 b 359 890 488 942 435 890 b 231 1020 284 890 231 942 l 132 1020 b 359 807 133 897 218 807 b 587 1020 500 807 586 897 z "},"ẵ":{"ha":720,"x_min":0,"x_max":0,"o":"m 322 104 b 192 207 243 104 192 144 b 329 313 192 268 241 307 l 505 323 l 505 267 b 322 104 505 174 425 104 z m 281 -12 b 507 117 375 -12 465 38 l 510 117 l 510 0 l 650 0 l 650 492 b 367 726 650 635 540 726 b 73 503 191 726 81 631 l 211 503 b 361 607 224 566 277 607 b 505 480 451 607 505 559 l 505 425 l 309 414 b 44 203 140 404 44 328 b 281 -12 44 75 142 -12 z m 587 1020 l 488 1020 b 359 890 488 942 435 890 b 231 1020 284 890 231 942 l 132 1020 b 359 807 133 897 218 807 b 587 1020 500 807 586 897 z m 450 1055 b 585 1225 527 1055 585 1120 l 495 1225 b 448 1139 495 1170 477 1139 b 270 1236 398 1139 366 1236 b 134 1068 191 1236 134 1174 l 224 1068 b 272 1152 222 1119 241 1152 b 450 1055 324 1152 359 1055 z "},"ẳ":{"ha":720,"x_min":0,"x_max":0,"o":"m 322 104 b 192 207 243 104 192 144 b 329 313 192 268 241 307 l 505 323 l 505 267 b 322 104 505 174 425 104 z m 281 -12 b 507 117 375 -12 465 38 l 510 117 l 510 0 l 650 0 l 650 492 b 367 726 650 635 540 726 b 73 503 191 726 81 631 l 211 503 b 361 607 224 566 277 607 b 505 480 451 607 505 559 l 505 425 l 309 414 b 44 203 140 404 44 328 b 281 -12 44 75 142 -12 z m 587 1020 l 488 1020 b 359 890 488 942 435 890 b 231 1020 284 890 231 942 l 132 1020 b 359 807 133 897 218 807 b 587 1020 500 807 586 897 z m 248 1148 b 312 1160 269 1156 289 1160 b 371 1113 346 1160 371 1141 b 312 1046 371 1085 350 1061 l 363 993 b 460 1120 426 1015 460 1059 b 323 1236 460 1191 407 1236 b 248 1220 296 1236 264 1229 z "},"ặ":{"ha":720,"x_min":0,"x_max":0,"o":"m 322 104 b 192 207 243 104 192 144 b 329 313 192 268 241 307 l 505 323 l 505 267 b 322 104 505 174 425 104 z m 281 -12 b 507 117 375 -12 465 38 l 510 117 l 510 0 l 650 0 l 650 492 b 367 726 650 635 540 726 b 73 503 191 726 81 631 l 211 503 b 361 607 224 566 277 607 b 505 480 451 607 505 559 l 505 425 l 309 414 b 44 203 140 404 44 328 b 281 -12 44 75 142 -12 z m 132 1020 b 359 807 132 897 218 807 b 586 1020 500 807 585 897 l 487 1020 b 359 890 487 942 434 890 b 231 1020 283 890 231 942 z m 351 -280 b 439 -191 400 -280 439 -240 b 351 -102 439 -142 400 -102 b 262 -191 301 -102 262 -142 b 351 -280 262 -240 301 -280 z "},"ȃ":{"ha":720,"x_min":0,"x_max":0,"o":"m 322 104 b 192 207 243 104 192 144 b 329 313 192 268 241 307 l 505 323 l 505 267 b 322 104 505 174 425 104 z m 281 -12 b 507 117 375 -12 465 38 l 510 117 l 510 0 l 650 0 l 650 492 b 367 726 650 635 540 726 b 73 503 191 726 81 631 l 211 503 b 361 607 224 566 277 607 b 505 480 451 607 505 559 l 505 425 l 309 414 b 44 203 140 404 44 328 b 281 -12 44 75 142 -12 z m 132 812 l 231 812 b 359 942 231 891 284 942 b 488 812 435 942 488 891 l 587 812 b 359 1025 586 937 500 1025 b 132 812 218 1025 133 937 z "},"ǎ":{"ha":720,"x_min":0,"x_max":0,"o":"m 322 104 b 192 207 243 104 192 144 b 329 313 192 268 241 307 l 505 323 l 505 267 b 322 104 505 174 425 104 z m 281 -12 b 507 117 375 -12 465 38 l 510 117 l 510 0 l 650 0 l 650 492 b 367 726 650 635 540 726 b 73 503 191 726 81 631 l 211 503 b 361 607 224 566 277 607 b 505 480 451 607 505 559 l 505 425 l 309 414 b 44 203 140 404 44 328 b 281 -12 44 75 142 -12 z m 416 812 l 598 1021 l 473 1021 l 361 890 l 357 890 l 246 1021 l 121 1021 l 303 812 z "},"ȧ":{"ha":720,"x_min":0,"x_max":0,"o":"m 322 104 b 192 207 243 104 192 144 b 329 313 192 268 241 307 l 505 323 l 505 267 b 322 104 505 174 425 104 z m 281 -12 b 507 117 375 -12 465 38 l 510 117 l 510 0 l 650 0 l 650 492 b 367 726 650 635 540 726 b 73 503 191 726 81 631 l 211 503 b 361 607 224 566 277 607 b 505 480 451 607 505 559 l 505 425 l 309 414 b 44 203 140 404 44 328 b 281 -12 44 75 142 -12 z m 359 820 b 450 910 410 820 450 861 b 359 1000 450 959 410 1000 b 269 910 309 1000 269 959 b 359 820 269 861 309 820 z "},"ạ":{"ha":720,"x_min":0,"x_max":0,"o":"m 322 104 b 192 207 243 104 192 144 b 329 313 192 268 241 307 l 505 323 l 505 267 b 322 104 505 174 425 104 z m 281 -12 b 507 117 375 -12 465 38 l 510 117 l 510 0 l 650 0 l 650 492 b 367 726 650 635 540 726 b 73 503 191 726 81 631 l 211 503 b 361 607 224 566 277 607 b 505 480 451 607 505 559 l 505 425 l 309 414 b 44 203 140 404 44 328 b 281 -12 44 75 142 -12 z m 351 -280 b 439 -191 400 -280 439 -240 b 351 -102 439 -142 400 -102 b 262 -191 301 -102 262 -142 b 351 -280 262 -240 301 -280 z "},"ả":{"ha":720,"x_min":0,"x_max":0,"o":"m 322 104 b 192 207 243 104 192 144 b 329 313 192 268 241 307 l 505 323 l 505 267 b 322 104 505 174 425 104 z m 281 -12 b 507 117 375 -12 465 38 l 510 117 l 510 0 l 650 0 l 650 492 b 367 726 650 635 540 726 b 73 503 191 726 81 631 l 211 503 b 361 607 224 566 277 607 b 505 480 451 607 505 559 l 505 425 l 309 414 b 44 203 140 404 44 328 b 281 -12 44 75 142 -12 z m 271 958 b 340 974 299 970 316 974 b 404 921 376 974 404 951 b 340 848 404 886 385 864 l 387 786 b 504 928 458 814 504 868 b 366 1054 504 1004 450 1054 b 271 1036 330 1054 299 1048 z "},"ȁ":{"ha":720,"x_min":0,"x_max":0,"o":"m 322 104 b 192 207 243 104 192 144 b 329 313 192 268 241 307 l 505 323 l 505 267 b 322 104 505 174 425 104 z m 281 -12 b 507 117 375 -12 465 38 l 510 117 l 510 0 l 650 0 l 650 492 b 367 726 650 635 540 726 b 73 503 191 726 81 631 l 211 503 b 361 607 224 566 277 607 b 505 480 451 607 505 559 l 505 425 l 309 414 b 44 203 140 404 44 328 b 281 -12 44 75 142 -12 z m 302 815 l 171 1021 l 31 1021 l 191 815 z m 530 815 l 399 1021 l 258 1021 l 418 815 z "},"ā":{"ha":720,"x_min":0,"x_max":0,"o":"m 322 104 b 192 207 243 104 192 144 b 329 313 192 268 241 307 l 505 323 l 505 267 b 322 104 505 174 425 104 z m 281 -12 b 507 117 375 -12 465 38 l 510 117 l 510 0 l 650 0 l 650 492 b 367 726 650 635 540 726 b 73 503 191 726 81 631 l 211 503 b 361 607 224 566 277 607 b 505 480 451 607 505 559 l 505 425 l 309 414 b 44 203 140 404 44 328 b 281 -12 44 75 142 -12 z m 562 937 l 157 937 l 157 850 l 562 850 z "},"ą":{"ha":720,"x_min":0,"x_max":0,"o":"m 322 104 b 192 207 243 104 192 144 b 329 311 192 268 241 306 l 505 322 l 505 267 b 322 104 505 174 425 104 z m 640 -276 l 640 -187 b 587 -193 625 -191 606 -193 b 509 -128 541 -193 509 -171 b 638 -4 509 -71 574 -25 l 650 -1 l 650 489 b 368 722 650 629 538 722 b 77 502 201 722 81 631 l 214 502 b 363 602 225 564 282 602 b 505 478 452 602 505 557 l 505 424 l 309 413 b 44 203 140 403 44 328 b 281 -12 44 75 142 -12 b 507 117 375 -12 465 38 l 510 117 l 510 9 b 393 -159 454 -22 393 -79 b 554 -289 393 -237 461 -289 b 640 -276 597 -289 627 -282 z "},"b":{"ha":791,"x_min":0,"x_max":0,"o":"m 452 -12 b 750 357 633 -12 750 130 b 453 725 750 583 633 725 b 228 592 352 725 271 675 l 224 592 l 224 979 l 78 979 l 78 0 l 220 0 l 220 121 l 223 121 b 452 -12 267 39 348 -12 z m 413 602 b 600 357 528 602 600 507 b 413 112 600 205 528 112 b 224 357 302 112 224 208 b 413 602 224 504 302 602 z "},"ḇ":{"ha":791,"x_min":0,"x_max":0,"o":"m 452 -12 b 750 357 633 -12 750 130 b 453 725 750 583 633 725 b 228 592 352 725 271 675 l 224 592 l 224 979 l 78 979 l 78 0 l 220 0 l 220 121 l 223 121 b 452 -12 267 39 348 -12 z m 413 602 b 600 357 528 602 600 507 b 413 112 600 205 528 112 b 224 357 302 112 224 208 b 413 602 224 504 302 602 z m 633 -151 l 190 -151 l 190 -237 l 633 -237 z "},"ḅ":{"ha":791,"x_min":0,"x_max":0,"o":"m 452 -12 b 750 357 633 -12 750 130 b 453 725 750 583 633 725 b 228 592 352 725 271 675 l 224 592 l 224 979 l 78 979 l 78 0 l 220 0 l 220 121 l 223 121 b 452 -12 267 39 348 -12 z m 413 602 b 600 357 528 602 600 507 b 413 112 600 205 528 112 b 224 357 302 112 224 208 b 413 602 224 504 302 602 z m 412 -280 b 500 -191 461 -280 500 -240 b 412 -102 500 -142 461 -102 b 323 -191 362 -102 323 -142 b 412 -280 323 -240 362 -280 z "},"ḃ":{"ha":791,"x_min":0,"x_max":0,"o":"m 452 -12 b 750 357 633 -12 750 130 b 453 725 750 583 633 725 b 228 592 352 725 271 675 l 224 592 l 224 979 l 78 979 l 78 0 l 220 0 l 220 121 l 223 121 b 452 -12 267 39 348 -12 z m 413 602 b 600 357 528 602 600 507 b 413 112 600 205 528 112 b 224 357 302 112 224 208 b 413 602 224 504 302 602 z m 151 1069 b 240 1158 201 1069 240 1109 b 151 1246 240 1207 201 1246 b 62 1158 102 1246 62 1207 b 151 1069 62 1109 102 1069 z "},"c":{"ha":718,"x_min":0,"x_max":0,"o":"m 685 468 b 376 726 672 608 560 726 b 41 357 174 726 41 583 b 378 -14 41 126 174 -14 b 686 241 549 -14 671 90 l 545 241 b 379 109 528 159 469 109 b 190 357 265 109 190 200 b 378 604 190 510 264 604 b 545 468 473 604 530 544 z "},"ć":{"ha":718,"x_min":0,"x_max":0,"o":"m 685 468 b 376 726 672 608 560 726 b 41 357 174 726 41 583 b 378 -14 41 126 174 -14 b 686 241 549 -14 671 90 l 545 241 b 379 109 528 159 469 109 b 190 357 265 109 190 200 b 378 604 190 510 264 604 b 545 468 473 604 530 544 z m 434 815 l 604 1021 l 456 1021 l 311 815 z "},"č":{"ha":718,"x_min":0,"x_max":0,"o":"m 685 468 b 376 726 672 608 560 726 b 41 357 174 726 41 583 b 378 -14 41 126 174 -14 b 686 241 549 -14 671 90 l 545 241 b 379 109 528 159 469 109 b 190 357 265 109 190 200 b 378 604 190 510 264 604 b 545 468 473 604 530 544 z m 429 812 l 611 1021 l 486 1021 l 374 890 l 370 890 l 259 1021 l 134 1021 l 316 812 z "},"ĉ":{"ha":718,"x_min":0,"x_max":0,"o":"m 685 468 b 376 726 672 608 560 726 b 41 357 174 726 41 583 b 378 -14 41 126 174 -14 b 686 241 549 -14 671 90 l 545 241 b 379 109 528 159 469 109 b 190 357 265 109 190 200 b 378 604 190 510 264 604 b 545 468 473 604 530 544 z m 429 1021 l 316 1021 l 134 812 l 259 812 l 370 941 l 374 941 l 486 812 l 611 812 z "},"ċ":{"ha":718,"x_min":0,"x_max":0,"o":"m 685 468 b 376 726 672 608 560 726 b 41 357 174 726 41 583 b 378 -14 41 126 174 -14 b 686 241 549 -14 671 90 l 545 241 b 379 109 528 159 469 109 b 190 357 265 109 190 200 b 378 604 190 510 264 604 b 545 468 473 604 530 544 z m 372 820 b 463 910 422 820 463 861 b 372 1000 463 959 422 1000 b 281 910 322 1000 281 959 b 372 820 281 861 322 820 z "},"ç":{"ha":718,"x_min":0,"x_max":0,"o":"m 545 241 b 379 109 528 159 469 109 b 190 357 265 109 190 200 b 378 604 190 510 264 604 b 545 468 473 604 530 544 l 685 468 b 376 726 672 608 560 726 b 41 357 174 726 41 583 b 333 -12 41 143 155 7 l 296 -100 l 296 -154 l 342 -154 b 435 -195 408 -154 435 -165 b 353 -240 435 -224 408 -240 b 272 -232 326 -240 287 -235 l 272 -306 b 372 -315 290 -311 332 -316 b 534 -193 465 -314 534 -272 b 395 -83 534 -123 479 -84 l 427 -11 b 686 241 572 7 672 104 z "},"ḉ":{"ha":718,"x_min":0,"x_max":0,"o":"m 604 1021 l 456 1021 l 311 815 l 434 815 z m 545 241 b 379 109 528 159 469 109 b 190 357 265 109 190 200 b 378 604 190 510 264 604 b 545 468 473 604 530 544 l 685 468 b 376 726 672 608 560 726 b 41 357 174 726 41 583 b 333 -12 41 143 155 7 l 296 -100 l 296 -154 l 342 -154 b 435 -195 408 -154 435 -165 b 353 -240 435 -224 408 -240 b 272 -232 326 -240 287 -235 l 272 -306 b 372 -315 290 -311 332 -316 b 534 -193 465 -314 534 -272 b 395 -83 534 -123 479 -84 l 427 -11 b 686 241 572 7 672 104 z "},"d":{"ha":790,"x_min":0,"x_max":0,"o":"m 340 -12 b 568 121 444 -12 526 40 l 570 121 l 570 0 l 713 0 l 713 979 l 566 979 l 566 595 l 563 595 b 339 725 523 673 441 725 b 41 357 160 725 41 582 b 340 -12 41 132 160 -12 z m 379 602 b 567 357 492 602 567 505 b 379 112 567 208 492 112 b 191 357 263 112 191 206 b 379 602 191 507 263 602 z "},"ḋ":{"ha":790,"x_min":0,"x_max":0,"o":"m 340 -12 b 568 121 444 -12 526 40 l 570 121 l 570 0 l 713 0 l 713 979 l 566 979 l 566 595 l 563 595 b 339 725 523 673 441 725 b 41 357 160 725 41 582 b 340 -12 41 132 160 -12 z m 379 602 b 567 357 492 602 567 505 b 379 112 567 208 492 112 b 191 357 263 112 191 206 b 379 602 191 507 263 602 z m 642 1069 b 730 1158 691 1069 730 1109 b 642 1246 730 1207 691 1246 b 553 1158 592 1246 553 1207 b 642 1069 553 1109 592 1069 z "},"ḓ":{"ha":790,"x_min":0,"x_max":0,"o":"m 340 -12 b 568 121 444 -12 526 40 l 570 121 l 570 0 l 713 0 l 713 979 l 566 979 l 566 595 l 563 595 b 339 725 523 673 441 725 b 41 357 160 725 41 582 b 340 -12 41 132 160 -12 z m 379 602 b 567 357 492 602 567 505 b 379 112 567 208 492 112 b 191 357 263 112 191 206 b 379 602 191 507 263 602 z m 308 -90 l 119 -296 l 245 -296 l 362 -166 l 366 -166 l 483 -296 l 609 -296 l 420 -90 z "},"ḑ":{"ha":790,"x_min":0,"x_max":0,"o":"m 340 -12 b 568 121 444 -12 526 40 l 570 121 l 570 0 l 713 0 l 713 979 l 566 979 l 566 595 l 563 595 b 339 725 523 673 441 725 b 41 357 160 725 41 582 b 340 -12 41 132 160 -12 z m 379 602 b 567 357 492 602 567 505 b 379 112 567 208 492 112 b 191 357 263 112 191 206 b 379 602 191 507 263 602 z m 345 -326 l 445 -87 l 316 -87 l 237 -326 z "},"ḏ":{"ha":790,"x_min":0,"x_max":0,"o":"m 340 -12 b 568 121 444 -12 526 40 l 570 121 l 570 0 l 713 0 l 713 979 l 566 979 l 566 595 l 563 595 b 339 725 523 673 441 725 b 41 357 160 725 41 582 b 340 -12 41 132 160 -12 z m 379 602 b 567 357 492 602 567 505 b 379 112 567 208 492 112 b 191 357 263 112 191 206 b 379 602 191 507 263 602 z m 586 -151 l 142 -151 l 142 -237 l 586 -237 z "},"ď":{"ha":907,"x_min":0,"x_max":0,"o":"m 812 979 l 812 654 l 903 654 l 925 979 z m 340 -12 b 568 121 444 -12 526 40 l 570 121 l 570 0 l 713 0 l 713 979 l 566 979 l 566 595 l 563 595 b 339 725 523 673 441 725 b 41 357 160 725 41 582 b 340 -12 41 132 160 -12 z m 379 602 b 567 357 492 602 567 505 b 379 112 567 208 492 112 b 191 357 263 112 191 206 b 379 602 191 507 263 602 z "},"ḍ":{"ha":790,"x_min":0,"x_max":0,"o":"m 340 -12 b 568 121 444 -12 526 40 l 570 121 l 570 0 l 713 0 l 713 979 l 566 979 l 566 595 l 563 595 b 339 725 523 673 441 725 b 41 357 160 725 41 582 b 340 -12 41 132 160 -12 z m 379 602 b 567 357 492 602 567 505 b 379 112 567 208 492 112 b 191 357 263 112 191 206 b 379 602 191 507 263 602 z m 364 -280 b 453 -191 414 -280 453 -240 b 364 -102 453 -142 414 -102 b 275 -191 315 -102 275 -142 b 364 -280 275 -240 315 -280 z "},"đ":{"ha":804,"x_min":0,"x_max":0,"o":"m 379 117 b 191 357 265 117 191 210 b 379 596 191 502 265 596 b 567 357 492 596 567 500 b 379 117 567 212 492 117 z m 791 909 l 713 909 l 713 979 l 566 979 l 566 909 l 412 909 l 412 821 l 566 821 l 566 595 l 563 595 b 339 721 522 673 441 721 b 41 357 162 721 41 577 b 340 -7 41 136 162 -7 b 568 121 444 -7 526 40 l 570 121 l 570 0 l 713 0 l 713 821 l 791 821 z "},"e":{"ha":733,"x_min":0,"x_max":0,"o":"m 371 608 b 546 422 473 608 543 532 l 189 422 b 371 608 197 530 269 608 z m 545 210 b 380 105 526 147 464 105 b 189 311 263 105 189 187 l 189 320 l 692 320 l 692 370 b 371 726 692 587 569 726 b 41 353 170 726 41 577 b 377 -14 41 128 168 -14 b 684 210 541 -14 664 79 z "},"è":{"ha":733,"x_min":0,"x_max":0,"o":"m 371 608 b 546 422 473 608 543 532 l 189 422 b 371 608 197 530 269 608 z m 545 210 b 380 105 526 147 464 105 b 189 311 263 105 189 187 l 189 320 l 692 320 l 692 370 b 371 726 692 587 569 726 b 41 353 170 726 41 577 b 377 -14 41 128 168 -14 b 684 210 541 -14 664 79 z m 428 815 l 283 1021 l 136 1021 l 305 815 z "},"ȅ":{"ha":733,"x_min":0,"x_max":0,"o":"m 371 608 b 546 422 473 608 543 532 l 189 422 b 371 608 197 530 269 608 z m 545 210 b 380 105 526 147 464 105 b 189 311 263 105 189 187 l 189 320 l 692 320 l 692 370 b 371 726 692 587 569 726 b 41 353 170 726 41 577 b 377 -14 41 128 168 -14 b 684 210 541 -14 664 79 z m 314 815 l 182 1021 l 42 1021 l 202 815 z m 541 815 l 410 1021 l 269 1021 l 430 815 z "},"é":{"ha":733,"x_min":0,"x_max":0,"o":"m 371 608 b 546 422 473 608 543 532 l 189 422 b 371 608 197 530 269 608 z m 545 210 b 380 105 526 147 464 105 b 189 311 263 105 189 187 l 189 320 l 692 320 l 692 370 b 371 726 692 587 569 726 b 41 353 170 726 41 577 b 377 -14 41 128 168 -14 b 684 210 541 -14 664 79 z m 433 815 l 602 1021 l 455 1021 l 310 815 z "},"ê":{"ha":733,"x_min":0,"x_max":0,"o":"m 371 608 b 546 422 473 608 543 532 l 189 422 b 371 608 197 530 269 608 z m 545 210 b 380 105 526 147 464 105 b 189 311 263 105 189 187 l 189 320 l 692 320 l 692 370 b 371 726 692 587 569 726 b 41 353 170 726 41 577 b 377 -14 41 128 168 -14 b 684 210 541 -14 664 79 z m 427 1021 l 315 1021 l 132 812 l 258 812 l 369 941 l 373 941 l 484 812 l 610 812 z "},"ể":{"ha":733,"x_min":0,"x_max":0,"o":"m 371 608 b 546 422 473 608 543 532 l 189 422 b 371 608 197 530 269 608 z m 545 210 b 380 105 526 147 464 105 b 189 311 263 105 189 187 l 189 320 l 692 320 l 692 370 b 371 726 692 587 569 726 b 41 353 170 726 41 577 b 377 -14 41 128 168 -14 b 684 210 541 -14 664 79 z m 437 1142 b 503 1154 458 1150 479 1154 b 563 1106 538 1154 563 1134 b 503 1036 563 1077 541 1050 l 554 983 b 654 1114 618 1005 654 1052 b 515 1231 654 1185 600 1231 b 437 1216 487 1231 454 1225 z m 428 1009 l 314 1009 l 132 812 l 258 812 l 369 933 l 373 933 l 484 812 l 610 812 z "},"ề":{"ha":733,"x_min":0,"x_max":0,"o":"m 371 608 b 546 422 473 608 543 532 l 189 422 b 371 608 197 530 269 608 z m 545 210 b 380 105 526 147 464 105 b 189 311 263 105 189 187 l 189 320 l 692 320 l 692 370 b 371 726 692 587 569 726 b 41 353 170 726 41 577 b 377 -14 41 128 168 -14 b 684 210 541 -14 664 79 z m 428 1009 l 314 1009 l 132 812 l 258 812 l 369 933 l 373 933 l 484 812 l 610 812 z m 649 1029 l 509 1227 l 378 1227 l 535 1029 z "},"ễ":{"ha":733,"x_min":0,"x_max":0,"o":"m 371 608 b 546 422 473 608 543 532 l 189 422 b 371 608 197 530 269 608 z m 545 210 b 380 105 526 147 464 105 b 189 311 263 105 189 187 l 189 320 l 692 320 l 692 370 b 371 726 692 587 569 726 b 41 353 170 726 41 577 b 377 -14 41 128 168 -14 b 684 210 541 -14 664 79 z m 428 1007 l 314 1007 l 132 812 l 258 812 l 369 932 l 373 932 l 484 812 l 610 812 z m 461 1055 b 596 1225 538 1055 596 1120 l 507 1225 b 460 1139 507 1170 490 1139 b 281 1236 406 1139 372 1236 b 146 1067 202 1236 146 1174 l 235 1067 b 283 1152 233 1119 252 1152 b 461 1055 336 1152 370 1055 z "},"ệ":{"ha":733,"x_min":0,"x_max":0,"o":"m 371 608 b 546 422 473 608 543 532 l 189 422 b 371 608 197 530 269 608 z m 545 210 b 380 105 526 147 464 105 b 189 311 263 105 189 187 l 189 320 l 692 320 l 692 370 b 371 726 692 587 569 726 b 41 353 170 726 41 577 b 377 -14 41 128 168 -14 b 684 210 541 -14 664 79 z m 427 1021 l 315 1021 l 132 812 l 258 812 l 369 941 l 373 941 l 484 812 l 610 812 z m 375 -280 b 464 -191 425 -280 464 -240 b 375 -102 464 -142 425 -102 b 286 -191 326 -102 286 -142 b 375 -280 286 -240 326 -280 z "},"ế":{"ha":733,"x_min":0,"x_max":0,"o":"m 371 608 b 546 422 473 608 543 532 l 189 422 b 371 608 197 530 269 608 z m 545 210 b 380 105 526 147 464 105 b 189 311 263 105 189 187 l 189 320 l 692 320 l 692 370 b 371 726 692 587 569 726 b 41 353 170 726 41 577 b 377 -14 41 128 168 -14 b 684 210 541 -14 664 79 z m 428 1009 l 314 1009 l 132 812 l 258 812 l 369 933 l 373 933 l 484 812 l 610 812 z m 488 1029 l 602 1029 l 759 1227 l 628 1227 z "},"ë":{"ha":733,"x_min":0,"x_max":0,"o":"m 371 608 b 546 422 473 608 543 532 l 189 422 b 371 608 197 530 269 608 z m 545 210 b 380 105 526 147 464 105 b 189 311 263 105 189 187 l 189 320 l 692 320 l 692 370 b 371 726 692 587 569 726 b 41 353 170 726 41 577 b 377 -14 41 128 168 -14 b 684 210 541 -14 664 79 z m 241 820 b 321 899 285 820 321 855 b 241 979 321 943 285 979 b 160 899 196 979 160 943 b 241 820 160 855 196 820 z m 502 820 b 582 899 546 820 582 855 b 502 979 582 943 546 979 b 421 899 457 979 421 943 b 502 820 421 855 457 820 z "},"ẹ":{"ha":733,"x_min":0,"x_max":0,"o":"m 371 608 b 546 422 473 608 543 532 l 189 422 b 371 608 197 530 269 608 z m 545 210 b 380 105 526 147 464 105 b 189 311 263 105 189 187 l 189 320 l 692 320 l 692 370 b 371 726 692 587 569 726 b 41 353 170 726 41 577 b 377 -14 41 128 168 -14 b 684 210 541 -14 664 79 z m 375 -280 b 464 -191 425 -280 464 -240 b 375 -102 464 -142 425 -102 b 286 -191 326 -102 286 -142 b 375 -280 286 -240 326 -280 z "},"ȇ":{"ha":733,"x_min":0,"x_max":0,"o":"m 371 608 b 546 422 473 608 543 532 l 189 422 b 371 608 197 530 269 608 z m 545 210 b 380 105 526 147 464 105 b 189 311 263 105 189 187 l 189 320 l 692 320 l 692 370 b 371 726 692 587 569 726 b 41 353 170 726 41 577 b 377 -14 41 128 168 -14 b 684 210 541 -14 664 79 z m 144 812 l 243 812 b 371 942 243 891 296 942 b 499 812 446 942 499 891 l 598 812 b 371 1025 597 937 512 1025 b 144 812 230 1025 144 937 z "},"ẻ":{"ha":733,"x_min":0,"x_max":0,"o":"m 371 608 b 546 422 473 608 543 532 l 189 422 b 371 608 197 530 269 608 z m 545 210 b 380 105 526 147 464 105 b 189 311 263 105 189 187 l 189 320 l 692 320 l 692 370 b 371 726 692 587 569 726 b 41 353 170 726 41 577 b 377 -14 41 128 168 -14 b 684 210 541 -14 664 79 z m 282 958 b 351 974 311 970 328 974 b 415 921 388 974 415 951 b 352 848 415 886 396 864 l 399 786 b 515 928 470 814 515 868 b 377 1054 515 1004 461 1054 b 282 1036 341 1054 311 1048 z "},"ě":{"ha":733,"x_min":0,"x_max":0,"o":"m 371 608 b 546 422 473 608 543 532 l 189 422 b 371 608 197 530 269 608 z m 545 210 b 380 105 526 147 464 105 b 189 311 263 105 189 187 l 189 320 l 692 320 l 692 370 b 371 726 692 587 569 726 b 41 353 170 726 41 577 b 377 -14 41 128 168 -14 b 684 210 541 -14 664 79 z m 427 812 l 610 1021 l 484 1021 l 373 890 l 369 890 l 258 1021 l 132 1021 l 315 812 z "},"ē":{"ha":733,"x_min":0,"x_max":0,"o":"m 371 608 b 546 422 473 608 543 532 l 189 422 b 371 608 197 530 269 608 z m 545 210 b 380 105 526 147 464 105 b 189 311 263 105 189 187 l 189 320 l 692 320 l 692 370 b 371 726 692 587 569 726 b 41 353 170 726 41 577 b 377 -14 41 128 168 -14 b 684 210 541 -14 664 79 z m 574 937 l 168 937 l 168 850 l 574 850 z "},"ḕ":{"ha":733,"x_min":0,"x_max":0,"o":"m 371 608 b 546 422 473 608 543 532 l 189 422 b 371 608 197 530 269 608 z m 545 210 b 380 105 526 147 464 105 b 189 311 263 105 189 187 l 189 320 l 692 320 l 692 370 b 371 726 692 587 569 726 b 41 353 170 726 41 577 b 377 -14 41 128 168 -14 b 684 210 541 -14 664 79 z m 437 1028 l 300 1227 l 170 1227 l 327 1028 z m 574 914 l 168 914 l 168 827 l 574 827 z "},"ḗ":{"ha":733,"x_min":0,"x_max":0,"o":"m 371 608 b 546 422 473 608 543 532 l 189 422 b 371 608 197 530 269 608 z m 545 210 b 380 105 526 147 464 105 b 189 311 263 105 189 187 l 189 320 l 692 320 l 692 370 b 371 726 692 587 569 726 b 41 353 170 726 41 577 b 377 -14 41 128 168 -14 b 684 210 541 -14 664 79 z m 304 1029 l 418 1029 l 575 1227 l 444 1227 z m 574 914 l 168 914 l 168 827 l 574 827 z "},"ẽ":{"ha":733,"x_min":0,"x_max":0,"o":"m 371 608 b 546 422 473 608 543 532 l 189 422 b 371 608 197 530 269 608 z m 545 210 b 380 105 526 147 464 105 b 189 311 263 105 189 187 l 189 320 l 692 320 l 692 370 b 371 726 692 587 569 726 b 41 353 170 726 41 577 b 377 -14 41 128 168 -14 b 684 210 541 -14 664 79 z m 465 817 b 600 996 542 817 600 884 l 509 996 b 463 903 509 935 492 903 b 285 1002 413 903 381 1002 b 149 825 205 1002 149 939 l 239 825 b 287 916 237 883 256 916 b 465 817 339 916 374 817 z "},"ḙ":{"ha":733,"x_min":0,"x_max":0,"o":"m 371 608 b 546 422 473 608 543 532 l 189 422 b 371 608 197 530 269 608 z m 545 210 b 380 105 526 147 464 105 b 189 311 263 105 189 187 l 189 320 l 692 320 l 692 370 b 371 726 692 587 569 726 b 41 353 170 726 41 577 b 377 -14 41 128 168 -14 b 684 210 541 -14 664 79 z m 319 -90 l 130 -296 l 256 -296 l 373 -166 l 377 -166 l 494 -296 l 620 -296 l 431 -90 z "},"ĕ":{"ha":733,"x_min":0,"x_max":0,"o":"m 371 608 b 546 422 473 608 543 532 l 189 422 b 371 608 197 530 269 608 z m 545 210 b 380 105 526 147 464 105 b 189 311 263 105 189 187 l 189 320 l 692 320 l 692 370 b 371 726 692 587 569 726 b 41 353 170 726 41 577 b 377 -14 41 128 168 -14 b 684 210 541 -14 664 79 z m 143 1020 b 370 807 144 897 229 807 b 597 1020 511 807 597 897 l 498 1020 b 370 890 498 942 446 890 b 242 1020 295 890 242 942 z "},"ḛ":{"ha":733,"x_min":0,"x_max":0,"o":"m 371 608 b 546 422 473 608 543 532 l 189 422 b 371 608 197 530 269 608 z m 545 210 b 380 105 526 147 464 105 b 189 311 263 105 189 187 l 189 320 l 692 320 l 692 370 b 371 726 692 587 569 726 b 41 353 170 726 41 577 b 377 -14 41 128 168 -14 b 684 210 541 -14 664 79 z m 467 -247 b 602 -68 544 -247 602 -180 l 511 -68 b 465 -161 511 -129 494 -161 b 287 -62 415 -161 383 -62 b 151 -239 208 -62 151 -125 l 241 -239 b 289 -148 239 -181 258 -148 b 467 -247 341 -148 376 -247 z "},"ė":{"ha":733,"x_min":0,"x_max":0,"o":"m 371 608 b 546 422 473 608 543 532 l 189 422 b 371 608 197 530 269 608 z m 545 210 b 380 105 526 147 464 105 b 189 311 263 105 189 187 l 189 320 l 692 320 l 692 370 b 371 726 692 587 569 726 b 41 353 170 726 41 577 b 377 -14 41 128 168 -14 b 684 210 541 -14 664 79 z m 371 820 b 461 910 421 820 461 861 b 371 1000 461 959 421 1000 b 280 910 321 1000 280 959 b 371 820 280 861 321 820 z "},"ȩ":{"ha":733,"x_min":0,"x_max":0,"o":"m 189 422 b 371 608 197 530 269 608 b 546 422 473 608 543 532 z m 692 320 l 692 370 b 371 726 692 587 569 726 b 41 353 170 726 41 577 b 335 -12 41 144 151 6 l 298 -100 l 298 -154 l 344 -154 b 437 -195 410 -154 437 -165 b 355 -240 437 -224 410 -240 b 274 -232 328 -240 289 -235 l 274 -306 b 374 -315 292 -311 334 -316 b 536 -193 467 -314 536 -272 b 397 -83 536 -123 481 -84 l 429 -10 b 684 210 566 7 666 94 l 545 210 b 380 105 526 147 464 105 b 189 311 263 105 189 187 l 189 320 z "},"ḝ":{"ha":733,"x_min":0,"x_max":0,"o":"m 498 1020 b 370 890 498 942 446 890 b 242 1020 295 890 242 942 l 143 1020 b 370 807 144 897 229 807 b 597 1020 511 807 597 897 z m 189 422 b 371 608 197 530 269 608 b 546 422 473 608 543 532 z m 692 320 l 692 370 b 371 726 692 587 569 726 b 41 353 170 726 41 577 b 335 -12 41 144 151 6 l 298 -100 l 298 -154 l 344 -154 b 437 -195 410 -154 437 -165 b 355 -240 437 -224 410 -240 b 274 -232 328 -240 289 -235 l 274 -306 b 374 -315 292 -311 334 -316 b 536 -193 467 -314 536 -272 b 397 -83 536 -123 481 -84 l 429 -10 b 684 210 566 7 666 94 l 545 210 b 380 105 526 147 464 105 b 189 311 263 105 189 187 l 189 320 z "},"ę":{"ha":733,"x_min":0,"x_max":0,"o":"m 496 -289 b 581 -276 535 -289 567 -283 l 581 -187 b 528 -193 567 -191 548 -193 b 449 -127 483 -193 449 -171 b 560 27 449 -77 492 -27 b 684 210 616 72 671 130 l 545 210 b 380 105 526 147 464 105 b 189 311 263 105 189 187 l 189 320 l 692 320 l 692 370 b 371 726 692 587 569 726 b 41 353 170 726 41 577 b 377 -14 41 128 168 -14 b 425 -9 396 -14 412 -12 l 425 -12 b 334 -159 366 -54 334 -106 b 496 -289 334 -237 403 -289 z m 371 608 b 546 422 473 608 543 532 l 189 422 b 371 608 197 530 269 608 z "},"f":{"ha":448,"x_min":0,"x_max":0,"o":"m 115 0 l 262 0 l 262 597 l 405 597 l 405 712 l 260 712 l 260 779 b 354 874 260 842 290 874 b 408 870 374 874 393 873 l 408 979 b 326 985 389 982 355 985 b 115 782 180 985 115 920 l 115 712 l 17 712 l 17 597 l 115 597 z "},"ḟ":{"ha":441,"x_min":0,"x_max":0,"o":"m 115 0 l 262 0 l 262 597 l 405 597 l 405 712 l 260 712 l 260 779 b 354 874 260 842 290 874 b 408 870 374 874 393 873 l 408 979 b 326 985 389 982 355 985 b 115 782 180 985 115 920 l 115 712 l 17 712 l 17 597 l 115 597 z m 260 1057 b 349 1146 309 1057 349 1097 b 260 1235 349 1196 309 1235 b 171 1146 210 1235 171 1196 b 260 1057 171 1097 210 1057 z "},"g":{"ha":785,"x_min":0,"x_max":0,"o":"m 376 119 b 191 359 264 119 191 210 b 376 602 191 507 264 602 b 566 359 491 602 566 505 b 376 119 566 212 491 119 z m 378 -269 b 713 13 581 -269 713 -157 l 713 713 l 570 713 l 570 591 l 568 591 b 340 725 524 674 441 725 b 41 359 157 725 41 584 b 337 -3 41 137 158 -3 b 563 125 439 -3 523 48 l 566 125 l 566 8 b 383 -155 566 -90 498 -155 b 214 -56 300 -155 235 -115 l 66 -56 b 378 -269 85 -179 210 -269 z "},"ǵ":{"ha":785,"x_min":0,"x_max":0,"o":"m 376 119 b 191 359 264 119 191 210 b 376 602 191 507 264 602 b 566 359 491 602 566 505 b 376 119 566 212 491 119 z m 378 -269 b 713 13 581 -269 713 -157 l 713 713 l 570 713 l 570 591 l 568 591 b 340 725 524 674 441 725 b 41 359 157 725 41 584 b 337 -3 41 137 158 -3 b 563 125 439 -3 523 48 l 566 125 l 566 8 b 383 -155 566 -90 498 -155 b 214 -56 300 -155 235 -115 l 66 -56 b 378 -269 85 -179 210 -269 z m 441 815 l 610 1021 l 463 1021 l 318 815 z "},"ǧ":{"ha":785,"x_min":0,"x_max":0,"o":"m 376 119 b 191 359 264 119 191 210 b 376 602 191 507 264 602 b 566 359 491 602 566 505 b 376 119 566 212 491 119 z m 378 -269 b 713 13 581 -269 713 -157 l 713 713 l 570 713 l 570 591 l 568 591 b 340 725 524 674 441 725 b 41 359 157 725 41 584 b 337 -3 41 137 158 -3 b 563 125 439 -3 523 48 l 566 125 l 566 8 b 383 -155 566 -90 498 -155 b 214 -56 300 -155 235 -115 l 66 -56 b 378 -269 85 -179 210 -269 z m 435 812 l 618 1021 l 492 1021 l 381 890 l 377 890 l 266 1021 l 140 1021 l 323 812 z "},"ĝ":{"ha":785,"x_min":0,"x_max":0,"o":"m 376 119 b 191 359 264 119 191 210 b 376 602 191 507 264 602 b 566 359 491 602 566 505 b 376 119 566 212 491 119 z m 378 -269 b 713 13 581 -269 713 -157 l 713 713 l 570 713 l 570 591 l 568 591 b 340 725 524 674 441 725 b 41 359 157 725 41 584 b 337 -3 41 137 158 -3 b 563 125 439 -3 523 48 l 566 125 l 566 8 b 383 -155 566 -90 498 -155 b 214 -56 300 -155 235 -115 l 66 -56 b 378 -269 85 -179 210 -269 z m 435 1021 l 323 1021 l 140 812 l 266 812 l 377 941 l 381 941 l 492 812 l 618 812 z "},"ğ":{"ha":785,"x_min":0,"x_max":0,"o":"m 376 119 b 191 359 264 119 191 210 b 376 602 191 507 264 602 b 566 359 491 602 566 505 b 376 119 566 212 491 119 z m 378 -269 b 713 13 581 -269 713 -157 l 713 713 l 570 713 l 570 591 l 568 591 b 340 725 524 674 441 725 b 41 359 157 725 41 584 b 337 -3 41 137 158 -3 b 563 125 439 -3 523 48 l 566 125 l 566 8 b 383 -155 566 -90 498 -155 b 214 -56 300 -155 235 -115 l 66 -56 b 378 -269 85 -179 210 -269 z m 151 1020 b 378 807 152 897 237 807 b 606 1020 519 807 605 897 l 507 1020 b 378 890 507 942 454 890 b 250 1020 303 890 250 942 z "},"ḡ":{"ha":785,"x_min":0,"x_max":0,"o":"m 376 119 b 191 359 264 119 191 210 b 376 602 191 507 264 602 b 566 359 491 602 566 505 b 376 119 566 212 491 119 z m 378 -269 b 713 13 581 -269 713 -157 l 713 713 l 570 713 l 570 591 l 568 591 b 340 725 524 674 441 725 b 41 359 157 725 41 584 b 337 -3 41 137 158 -3 b 563 125 439 -3 523 48 l 566 125 l 566 8 b 383 -155 566 -90 498 -155 b 214 -56 300 -155 235 -115 l 66 -56 b 378 -269 85 -179 210 -269 z m 582 937 l 176 937 l 176 850 l 582 850 z "},"ġ":{"ha":785,"x_min":0,"x_max":0,"o":"m 376 119 b 191 359 264 119 191 210 b 376 602 191 507 264 602 b 566 359 491 602 566 505 b 376 119 566 212 491 119 z m 378 -269 b 713 13 581 -269 713 -157 l 713 713 l 570 713 l 570 591 l 568 591 b 340 725 524 674 441 725 b 41 359 157 725 41 584 b 337 -3 41 137 158 -3 b 563 125 439 -3 523 48 l 566 125 l 566 8 b 383 -155 566 -90 498 -155 b 214 -56 300 -155 235 -115 l 66 -56 b 378 -269 85 -179 210 -269 z m 379 820 b 469 910 429 820 469 861 b 379 1000 469 959 429 1000 b 288 910 329 1000 288 959 b 379 820 288 861 329 820 z "},"ģ":{"ha":785,"x_min":0,"x_max":0,"o":"m 376 119 b 191 359 264 119 191 210 b 376 602 191 507 264 602 b 566 359 491 602 566 505 b 376 119 566 212 491 119 z m 378 -269 b 713 13 581 -269 713 -157 l 713 713 l 570 713 l 570 591 l 568 591 b 340 725 524 674 441 725 b 41 359 157 725 41 584 b 337 -3 41 137 158 -3 b 563 125 439 -3 523 48 l 566 125 l 566 8 b 383 -155 566 -90 498 -155 b 214 -56 300 -155 235 -115 l 66 -56 b 378 -269 85 -179 210 -269 z m 398 1040 l 298 801 l 427 801 l 506 1040 z "},"h":{"ha":771,"x_min":0,"x_max":0,"o":"m 78 0 l 224 0 l 224 412 b 399 600 224 525 291 600 b 555 431 503 600 555 536 l 555 0 l 703 0 l 703 460 b 452 726 703 621 609 726 b 227 594 344 726 266 677 l 223 594 l 223 979 l 78 979 z "},"ḧ":{"ha":771,"x_min":0,"x_max":0,"o":"m 78 0 l 224 0 l 224 412 b 399 600 224 525 291 600 b 555 431 503 600 555 536 l 555 0 l 703 0 l 703 460 b 452 726 703 621 609 726 b 227 594 344 726 266 677 l 223 594 l 223 979 l 78 979 z m 22 1080 b 102 1159 66 1080 102 1115 b 22 1238 102 1203 66 1238 b -59 1159 -23 1238 -59 1203 b 22 1080 -59 1115 -23 1080 z m 283 1080 b 363 1159 327 1080 363 1115 b 283 1238 363 1203 327 1238 b 202 1159 238 1238 202 1203 b 283 1080 202 1115 238 1080 z "},"ȟ":{"ha":771,"x_min":0,"x_max":0,"o":"m 78 0 l 224 0 l 224 412 b 399 600 224 525 291 600 b 555 431 503 600 555 536 l 555 0 l 703 0 l 703 460 b 452 726 703 621 609 726 b 227 594 344 726 266 677 l 223 594 l 223 979 l 78 979 z m 96 1049 l 208 1049 l 397 1256 l 271 1256 l 154 1126 l 150 1126 l 33 1256 l -93 1256 z "},"ĥ":{"ha":771,"x_min":0,"x_max":0,"o":"m 78 0 l 224 0 l 224 412 b 399 600 224 525 291 600 b 555 431 503 600 555 536 l 555 0 l 703 0 l 703 460 b 452 726 703 621 609 726 b 227 594 344 726 266 677 l 223 594 l 223 979 l 78 979 z m 96 1251 l -93 1044 l 33 1044 l 150 1174 l 154 1174 l 271 1044 l 397 1044 l 208 1251 z "},"ḥ":{"ha":771,"x_min":0,"x_max":0,"o":"m 78 0 l 224 0 l 224 412 b 399 600 224 525 291 600 b 555 431 503 600 555 536 l 555 0 l 703 0 l 703 460 b 452 726 703 621 609 726 b 227 594 344 726 266 677 l 223 594 l 223 979 l 78 979 z m 391 -280 b 480 -191 441 -280 480 -240 b 391 -102 480 -142 441 -102 b 302 -191 342 -102 302 -142 b 391 -280 302 -240 342 -280 z "},"ḣ":{"ha":771,"x_min":0,"x_max":0,"o":"m 78 0 l 224 0 l 224 412 b 399 600 224 525 291 600 b 555 431 503 600 555 536 l 555 0 l 703 0 l 703 460 b 452 726 703 621 609 726 b 227 594 344 726 266 677 l 223 594 l 223 979 l 78 979 z m 152 1069 b 241 1158 201 1069 241 1109 b 152 1246 241 1207 201 1246 b 63 1158 102 1246 63 1207 b 152 1069 63 1109 102 1069 z "},"ḫ":{"ha":771,"x_min":0,"x_max":0,"o":"m 78 0 l 224 0 l 224 412 b 399 600 224 525 291 600 b 555 431 503 600 555 536 l 555 0 l 703 0 l 703 460 b 452 726 703 621 609 726 b 227 594 344 726 266 677 l 223 594 l 223 979 l 78 979 z m 165 -75 b 391 -286 172 -188 254 -286 b 618 -75 529 -286 610 -188 l 519 -75 b 391 -201 511 -153 462 -201 b 264 -75 321 -201 271 -153 z "},"ḩ":{"ha":771,"x_min":0,"x_max":0,"o":"m 223 594 l 223 979 l 78 979 l 78 0 l 131 0 l 90 -100 l 90 -154 l 135 -154 b 229 -195 201 -154 229 -165 b 146 -240 229 -224 201 -240 b 65 -232 119 -240 80 -235 l 65 -306 b 165 -315 83 -311 125 -316 b 327 -193 258 -314 327 -272 b 188 -83 327 -123 272 -84 l 224 0 l 224 6 l 224 412 b 399 600 224 525 291 600 b 555 431 503 600 555 536 l 555 0 l 703 0 l 703 460 b 452 726 703 621 609 726 b 227 594 344 726 266 677 z "},"ħ":{"ha":774,"x_min":0,"x_max":0,"o":"m 227 594 l 227 821 l 390 821 l 390 909 l 227 909 l 227 979 l 81 979 l 81 909 l 12 909 l 12 821 l 81 821 l 81 0 l 228 0 l 228 412 b 403 600 228 525 294 600 b 559 431 506 600 559 536 l 559 0 l 705 0 l 705 460 b 455 726 705 621 612 726 b 230 594 347 726 269 677 z "},"ẖ":{"ha":771,"x_min":0,"x_max":0,"o":"m 78 0 l 224 0 l 224 412 b 399 600 224 525 291 600 b 555 431 503 600 555 536 l 555 0 l 703 0 l 703 460 b 452 726 703 621 609 726 b 227 594 344 726 266 677 l 223 594 l 223 979 l 78 979 z m 613 -151 l 170 -151 l 170 -237 l 613 -237 z "},"i":{"ha":301,"x_min":0,"x_max":0,"o":"m 77 0 l 224 0 l 224 713 l 77 713 z m 151 818 b 236 901 198 818 236 855 b 151 985 236 948 198 985 b 66 901 104 985 66 948 b 151 818 66 855 104 818 z "},"ì":{"ha":301,"x_min":0,"x_max":0,"o":"m 77 0 l 224 0 l 224 713 l 77 713 z m 208 815 l 62 1021 l -85 1021 l 85 815 z "},"ȉ":{"ha":301,"x_min":0,"x_max":0,"o":"m 77 0 l 224 0 l 224 713 l 77 713 z m 94 815 l -38 1021 l -178 1021 l -18 815 z m 321 815 l 190 1021 l 49 1021 l 210 815 z "},"í":{"ha":301,"x_min":0,"x_max":0,"o":"m 77 0 l 224 0 l 224 713 l 77 713 z m 212 815 l 382 1021 l 235 1021 l 90 815 z "},"î":{"ha":301,"x_min":0,"x_max":0,"o":"m 77 0 l 224 0 l 224 713 l 77 713 z m 207 1021 l 94 1021 l -88 812 l 37 812 l 149 941 l 153 941 l 264 812 l 389 812 z "},"ǐ":{"ha":301,"x_min":0,"x_max":0,"o":"m 77 0 l 224 0 l 224 713 l 77 713 z m 207 812 l 389 1021 l 264 1021 l 153 890 l 149 890 l 37 1021 l -88 1021 l 94 812 z "},"ï":{"ha":301,"x_min":0,"x_max":0,"o":"m 77 0 l 224 0 l 224 713 l 77 713 z m 20 820 b 100 899 64 820 100 855 b 20 979 100 943 64 979 b -60 899 -24 979 -60 943 b 20 820 -60 855 -24 820 z m 281 820 b 361 899 326 820 361 855 b 281 979 361 943 326 979 b 201 899 237 979 201 943 b 281 820 201 855 237 820 z "},"ḯ":{"ha":301,"x_min":0,"x_max":0,"o":"m 77 0 l 224 0 l 224 713 l 77 713 z m 83 1029 l 197 1029 l 355 1227 l 224 1227 z m 20 793 b 100 872 64 793 100 828 b 20 951 100 916 64 951 b -60 872 -24 951 -60 916 b 20 793 -60 828 -24 793 z m 281 793 b 361 872 326 793 361 828 b 281 951 361 916 326 951 b 201 872 237 951 201 916 b 281 793 201 828 237 793 z "},"ĭ":{"ha":301,"x_min":0,"x_max":0,"o":"m 77 0 l 224 0 l 224 713 l 77 713 z m -77 1020 b 150 807 -77 897 9 807 b 377 1020 291 807 376 897 l 278 1020 b 150 890 278 942 225 890 b 22 1020 75 890 22 942 z "},"ị":{"ha":301,"x_min":0,"x_max":0,"o":"m 77 0 l 224 0 l 224 713 l 77 713 z m 151 818 b 236 901 198 818 236 855 b 151 985 236 948 198 985 b 66 901 104 985 66 948 b 151 818 66 855 104 818 z m 151 -280 b 239 -191 200 -280 239 -240 b 151 -102 239 -142 200 -102 b 62 -191 101 -102 62 -142 b 151 -280 62 -240 101 -280 z "},"ȋ":{"ha":301,"x_min":0,"x_max":0,"o":"m 77 0 l 224 0 l 224 713 l 77 713 z m -77 812 l 22 812 b 151 942 22 891 75 942 b 279 812 226 942 279 891 l 378 812 b 151 1025 377 937 292 1025 b -77 812 9 1025 -76 937 z "},"ī":{"ha":301,"x_min":0,"x_max":0,"o":"m 77 0 l 224 0 l 224 713 l 77 713 z m 323 937 l -22 937 l -22 850 l 323 850 z "},"ḭ":{"ha":301,"x_min":0,"x_max":0,"o":"m 77 0 l 224 0 l 224 713 l 77 713 z m 151 818 b 236 901 198 818 236 855 b 151 985 236 948 198 985 b 66 901 104 985 66 948 b 151 818 66 855 104 818 z m 242 -247 b 377 -68 319 -247 377 -180 l 287 -68 b 240 -161 287 -129 269 -161 b 62 -62 191 -161 159 -62 b -74 -239 -17 -62 -74 -125 l 16 -239 b 64 -148 14 -181 33 -148 b 242 -247 117 -148 151 -247 z "},"ỉ":{"ha":301,"x_min":0,"x_max":0,"o":"m 77 0 l 224 0 l 224 713 l 77 713 z m 45 958 b 115 974 74 970 91 974 b 178 921 151 974 178 951 b 115 848 178 886 159 864 l 162 786 b 279 928 233 814 279 868 b 140 1054 279 1004 224 1054 b 45 1036 104 1054 74 1048 z "},"ĩ":{"ha":301,"x_min":0,"x_max":0,"o":"m 77 0 l 224 0 l 224 713 l 77 713 z m 244 817 b 379 996 321 817 379 884 l 289 996 b 242 903 289 935 271 903 b 64 1002 193 903 161 1002 b -72 825 -15 1002 -72 939 l 18 825 b 66 916 16 883 35 916 b 244 817 119 916 153 817 z "},"į":{"ha":301,"x_min":0,"x_max":0,"o":"m 151 812 b 236 896 198 812 236 850 b 151 980 236 943 198 980 b 66 896 104 980 66 943 b 151 812 66 850 104 812 z m 77 -7 b -9 -157 20 -50 -9 -106 b 154 -289 -9 -236 59 -289 b 238 -276 191 -289 224 -283 l 238 -187 b 185 -193 222 -191 203 -193 b 104 -128 139 -193 104 -172 b 210 -1 104 -75 144 -39 l 224 5 l 224 713 l 77 713 z "},"j":{"ha":301,"x_min":0,"x_max":0,"o":"m 224 713 l 77 713 l 77 -33 b -22 -132 77 -105 50 -132 b -43 -132 -25 -132 -41 -132 l -43 -247 b -9 -248 -39 -248 -16 -248 b 224 -34 149 -248 224 -179 z m 151 818 b 236 901 198 818 236 855 b 151 985 236 948 198 985 b 66 901 104 985 66 948 b 151 818 66 855 104 818 z "},"ĵ":{"ha":301,"x_min":0,"x_max":0,"o":"m 224 713 l 77 713 l 77 -33 b -22 -132 77 -105 50 -132 b -43 -132 -25 -132 -41 -132 l -43 -247 b -9 -248 -39 -248 -16 -248 b 224 -34 149 -248 224 -179 z m 206 1021 l 94 1021 l -89 812 l 37 812 l 148 941 l 152 941 l 263 812 l 389 812 z "},"k":{"ha":701,"x_min":0,"x_max":0,"o":"m 226 408 l 224 408 l 224 979 l 78 979 l 78 0 l 224 0 l 224 256 l 286 317 l 528 0 l 698 0 l 391 406 l 686 713 l 514 713 z "},"ḱ":{"ha":701,"x_min":0,"x_max":0,"o":"m 226 408 l 224 408 l 224 979 l 78 979 l 78 0 l 224 0 l 224 256 l 286 317 l 528 0 l 698 0 l 391 406 l 686 713 l 514 713 z m 218 1057 l 397 1257 l 246 1257 l 96 1057 z "},"ǩ":{"ha":701,"x_min":0,"x_max":0,"o":"m 226 408 l 224 408 l 224 979 l 78 979 l 78 0 l 224 0 l 224 256 l 286 317 l 528 0 l 698 0 l 391 406 l 686 713 l 514 713 z m 95 1049 l 208 1049 l 396 1256 l 270 1256 l 153 1126 l 149 1126 l 33 1256 l -94 1256 z "},"ḳ":{"ha":701,"x_min":0,"x_max":0,"o":"m 226 408 l 224 408 l 224 979 l 78 979 l 78 0 l 224 0 l 224 256 l 286 317 l 528 0 l 698 0 l 391 406 l 686 713 l 514 713 z m 372 -280 b 461 -191 422 -280 461 -240 b 372 -102 461 -142 422 -102 b 283 -191 323 -102 283 -142 b 372 -280 283 -240 323 -280 z "},"ḵ":{"ha":701,"x_min":0,"x_max":0,"o":"m 226 408 l 224 408 l 224 979 l 78 979 l 78 0 l 224 0 l 224 256 l 286 317 l 528 0 l 698 0 l 391 406 l 686 713 l 514 713 z m 594 -151 l 151 -151 l 151 -237 l 594 -237 z "},"ķ":{"ha":701,"x_min":0,"x_max":0,"o":"m 226 408 l 224 408 l 224 979 l 78 979 l 78 0 l 224 0 l 224 256 l 286 317 l 528 0 l 698 0 l 391 406 l 686 713 l 514 713 z m 353 -326 l 453 -87 l 324 -87 l 245 -326 z "},"l":{"ha":302,"x_min":0,"x_max":0,"o":"m 78 0 l 224 0 l 224 979 l 78 979 z "},"ĺ":{"ha":302,"x_min":0,"x_max":0,"o":"m 78 0 l 224 0 l 224 979 l 78 979 z m 218 1057 l 397 1257 l 246 1257 l 96 1057 z "},"ḽ":{"ha":302,"x_min":0,"x_max":0,"o":"m 78 0 l 224 0 l 224 979 l 78 979 z m 95 -90 l -94 -296 l 33 -296 l 149 -166 l 153 -166 l 270 -296 l 396 -296 l 208 -90 z "},"ḷ":{"ha":302,"x_min":0,"x_max":0,"o":"m 78 0 l 224 0 l 224 979 l 78 979 z m 151 -280 b 240 -191 201 -280 240 -240 b 151 -102 240 -142 201 -102 b 62 -191 102 -102 62 -142 b 151 -280 62 -240 102 -280 z "},"ḹ":{"ha":302,"x_min":0,"x_max":0,"o":"m 78 0 l 224 0 l 224 979 l 78 979 z m 151 -280 b 240 -191 201 -280 240 -240 b 151 -102 240 -142 201 -102 b 62 -191 102 -102 62 -142 b 151 -280 62 -240 102 -280 z m 373 1191 l -71 1191 l -71 1105 l 373 1105 z "},"ḻ":{"ha":302,"x_min":0,"x_max":0,"o":"m 78 0 l 224 0 l 224 979 l 78 979 z m 373 -151 l -71 -151 l -71 -237 l 373 -237 z "},"ļ":{"ha":302,"x_min":0,"x_max":0,"o":"m 78 0 l 224 0 l 224 979 l 78 979 z m 132 -326 l 232 -87 l 103 -87 l 24 -326 z "},"ľ":{"ha":422,"x_min":0,"x_max":0,"o":"m 324 983 l 324 659 l 414 659 l 437 983 z m 78 0 l 224 0 l 224 979 l 78 979 z "},"ł":{"ha":323,"x_min":0,"x_max":0,"o":"m 313 671 l 235 631 l 235 979 l 88 979 l 88 557 l 10 517 l 10 408 l 88 448 l 88 0 l 235 0 l 235 522 l 313 562 z "},"m":{"ha":1145,"x_min":0,"x_max":0,"o":"m 73 0 l 219 0 l 219 441 b 368 600 219 532 281 600 b 503 466 450 600 503 548 l 503 0 l 646 0 l 646 446 b 793 600 646 536 707 600 b 930 455 880 600 930 547 l 930 0 l 1077 0 l 1077 490 b 844 726 1077 632 985 726 b 621 586 742 726 658 673 l 618 586 b 418 726 589 675 517 726 b 216 593 322 726 248 673 l 212 593 l 212 713 l 73 713 z "},"ḿ":{"ha":1145,"x_min":0,"x_max":0,"o":"m 73 0 l 219 0 l 219 441 b 368 600 219 532 281 600 b 503 466 450 600 503 548 l 503 0 l 646 0 l 646 446 b 793 600 646 536 707 600 b 930 455 880 600 930 547 l 930 0 l 1077 0 l 1077 490 b 844 726 1077 632 985 726 b 621 586 742 726 658 673 l 618 586 b 418 726 589 675 517 726 b 216 593 322 726 248 673 l 212 593 l 212 713 l 73 713 z m 636 815 l 806 1021 l 659 1021 l 513 815 z "},"ṁ":{"ha":1145,"x_min":0,"x_max":0,"o":"m 73 0 l 219 0 l 219 441 b 368 600 219 532 281 600 b 503 466 450 600 503 548 l 503 0 l 646 0 l 646 446 b 793 600 646 536 707 600 b 930 455 880 600 930 547 l 930 0 l 1077 0 l 1077 490 b 844 726 1077 632 985 726 b 621 586 742 726 658 673 l 618 586 b 418 726 589 675 517 726 b 216 593 322 726 248 673 l 212 593 l 212 713 l 73 713 z m 574 820 b 665 910 625 820 665 861 b 574 1000 665 959 625 1000 b 484 910 524 1000 484 959 b 574 820 484 861 524 820 z "},"ṃ":{"ha":1145,"x_min":0,"x_max":0,"o":"m 73 0 l 219 0 l 219 441 b 368 600 219 532 281 600 b 503 466 450 600 503 548 l 503 0 l 646 0 l 646 446 b 793 600 646 536 707 600 b 930 455 880 600 930 547 l 930 0 l 1077 0 l 1077 490 b 844 726 1077 632 985 726 b 621 586 742 726 658 673 l 618 586 b 418 726 589 675 517 726 b 216 593 322 726 248 673 l 212 593 l 212 713 l 73 713 z m 574 -280 b 663 -191 624 -280 663 -240 b 574 -102 663 -142 624 -102 b 486 -191 525 -102 486 -142 b 574 -280 486 -240 525 -280 z "},"n":{"ha":756,"x_min":0,"x_max":0,"o":"m 73 0 l 219 0 l 219 416 b 389 600 219 526 286 600 b 541 433 490 600 541 541 l 541 0 l 688 0 l 688 462 b 440 726 688 625 597 726 b 216 594 330 726 254 675 l 212 594 l 212 713 l 73 713 z "},"ǹ":{"ha":756,"x_min":0,"x_max":0,"o":"m 73 0 l 219 0 l 219 416 b 389 600 219 526 286 600 b 541 433 490 600 541 541 l 541 0 l 688 0 l 688 462 b 440 726 688 625 597 726 b 216 594 330 726 254 675 l 212 594 l 212 713 l 73 713 z m 437 815 l 292 1021 l 144 1021 l 314 815 z "},"ń":{"ha":756,"x_min":0,"x_max":0,"o":"m 73 0 l 219 0 l 219 416 b 389 600 219 526 286 600 b 541 433 490 600 541 541 l 541 0 l 688 0 l 688 462 b 440 726 688 625 597 726 b 216 594 330 726 254 675 l 212 594 l 212 713 l 73 713 z m 441 815 l 611 1021 l 464 1021 l 319 815 z "},"ñ":{"ha":756,"x_min":0,"x_max":0,"o":"m 73 0 l 219 0 l 219 416 b 389 600 219 526 286 600 b 541 433 490 600 541 541 l 541 0 l 688 0 l 688 462 b 440 726 688 625 597 726 b 216 594 330 726 254 675 l 212 594 l 212 713 l 73 713 z m 473 817 b 608 996 551 817 608 884 l 518 996 b 471 903 518 935 500 903 b 294 1002 422 903 390 1002 b 157 825 214 1002 157 939 l 248 825 b 296 916 245 883 264 916 b 473 817 348 916 382 817 z "},"ṇ":{"ha":756,"x_min":0,"x_max":0,"o":"m 73 0 l 219 0 l 219 416 b 389 600 219 526 286 600 b 541 433 490 600 541 541 l 541 0 l 688 0 l 688 462 b 440 726 688 625 597 726 b 216 594 330 726 254 675 l 212 594 l 212 713 l 73 713 z m 385 -280 b 473 -191 434 -280 473 -240 b 385 -102 473 -142 434 -102 b 296 -191 335 -102 296 -142 b 385 -280 296 -240 335 -280 z "},"ṅ":{"ha":756,"x_min":0,"x_max":0,"o":"m 73 0 l 219 0 l 219 416 b 389 600 219 526 286 600 b 541 433 490 600 541 541 l 541 0 l 688 0 l 688 462 b 440 726 688 625 597 726 b 216 594 330 726 254 675 l 212 594 l 212 713 l 73 713 z m 380 820 b 470 910 430 820 470 861 b 380 1000 470 959 430 1000 b 289 910 330 1000 289 959 b 380 820 289 861 330 820 z "},"ň":{"ha":756,"x_min":0,"x_max":0,"o":"m 73 0 l 219 0 l 219 416 b 389 600 219 526 286 600 b 541 433 490 600 541 541 l 541 0 l 688 0 l 688 462 b 440 726 688 625 597 726 b 216 594 330 726 254 675 l 212 594 l 212 713 l 73 713 z m 436 812 l 618 1021 l 493 1021 l 382 890 l 378 890 l 267 1021 l 141 1021 l 323 812 z "},"ṋ":{"ha":756,"x_min":0,"x_max":0,"o":"m 73 0 l 219 0 l 219 416 b 389 600 219 526 286 600 b 541 433 490 600 541 541 l 541 0 l 688 0 l 688 462 b 440 726 688 625 597 726 b 216 594 330 726 254 675 l 212 594 l 212 713 l 73 713 z m 328 -90 l 140 -296 l 266 -296 l 382 -166 l 387 -166 l 503 -296 l 629 -296 l 441 -90 z "},"ṉ":{"ha":756,"x_min":0,"x_max":0,"o":"m 73 0 l 219 0 l 219 416 b 389 600 219 526 286 600 b 541 433 490 600 541 541 l 541 0 l 688 0 l 688 462 b 440 726 688 625 597 726 b 216 594 330 726 254 675 l 212 594 l 212 713 l 73 713 z m 606 -151 l 163 -151 l 163 -237 l 606 -237 z "},"ņ":{"ha":756,"x_min":0,"x_max":0,"o":"m 73 0 l 219 0 l 219 416 b 389 600 219 526 286 600 b 541 433 490 600 541 541 l 541 0 l 688 0 l 688 462 b 440 726 688 625 597 726 b 216 594 330 726 254 675 l 212 594 l 212 713 l 73 713 z m 366 -326 l 465 -87 l 336 -87 l 258 -326 z "},"o":{"ha":758,"x_min":0,"x_max":0,"o":"m 379 -14 b 718 357 583 -14 718 127 b 379 726 718 586 583 726 b 41 357 176 726 41 586 b 379 -14 41 127 175 -14 z m 379 107 b 190 357 264 107 190 198 b 379 606 190 515 264 606 b 568 357 494 606 568 515 b 379 107 568 198 494 107 z "},"ö":{"ha":758,"x_min":0,"x_max":0,"o":"m 379 -14 b 718 357 583 -14 718 127 b 379 726 718 586 583 726 b 41 357 176 726 41 586 b 379 -14 41 127 175 -14 z m 379 107 b 190 357 264 107 190 198 b 379 606 190 515 264 606 b 568 357 494 606 568 515 b 379 107 568 198 494 107 z m 249 820 b 329 899 293 820 329 855 b 249 979 329 943 293 979 b 168 899 204 979 168 943 b 249 820 168 855 204 820 z m 510 820 b 590 899 554 820 590 855 b 510 979 590 943 554 979 b 429 899 465 979 429 943 b 510 820 429 855 465 820 z "},"ø":{"ha":758,"x_min":0,"x_max":0,"o":"m 534 515 b 568 357 556 474 568 421 b 379 107 568 198 494 107 b 283 134 343 107 311 116 z m 227 194 b 190 357 203 235 190 290 b 379 606 190 515 264 606 b 479 576 418 606 451 595 z m 659 707 l 592 747 l 551 685 b 379 726 503 712 444 726 b 41 357 176 726 41 586 b 146 72 41 233 79 136 l 106 11 l 174 -33 l 212 25 b 379 -14 260 0 316 -14 b 718 357 583 -14 718 127 b 614 638 718 478 680 574 z "},"õ":{"ha":758,"x_min":0,"x_max":0,"o":"m 379 -14 b 718 357 583 -14 718 127 b 379 726 718 586 583 726 b 41 357 176 726 41 586 b 379 -14 41 127 175 -14 z m 379 107 b 190 357 264 107 190 198 b 379 606 190 515 264 606 b 568 357 494 606 568 515 b 379 107 568 198 494 107 z m 473 817 b 608 996 550 817 608 884 l 517 996 b 471 903 517 935 500 903 b 293 1002 421 903 389 1002 b 157 825 214 1002 157 939 l 247 825 b 295 916 245 883 264 916 b 473 817 347 916 382 817 z "},"ó":{"ha":758,"x_min":0,"x_max":0,"o":"m 379 -14 b 718 357 583 -14 718 127 b 379 726 718 586 583 726 b 41 357 176 726 41 586 b 379 -14 41 127 175 -14 z m 379 107 b 190 357 264 107 190 198 b 379 606 190 515 264 606 b 568 357 494 606 568 515 b 379 107 568 198 494 107 z m 441 815 l 610 1021 l 463 1021 l 318 815 z "},"ô":{"ha":758,"x_min":0,"x_max":0,"o":"m 379 -14 b 718 357 583 -14 718 127 b 379 726 718 586 583 726 b 41 357 176 726 41 586 b 379 -14 41 127 175 -14 z m 379 107 b 190 357 264 107 190 198 b 379 606 190 515 264 606 b 568 357 494 606 568 515 b 379 107 568 198 494 107 z m 435 1021 l 323 1021 l 140 812 l 266 812 l 377 941 l 381 941 l 492 812 l 618 812 z "},"ò":{"ha":758,"x_min":0,"x_max":0,"o":"m 379 -14 b 718 357 583 -14 718 127 b 379 726 718 586 583 726 b 41 357 176 726 41 586 b 379 -14 41 127 175 -14 z m 379 107 b 190 357 264 107 190 198 b 379 606 190 515 264 606 b 568 357 494 606 568 515 b 379 107 568 198 494 107 z m 436 815 l 291 1021 l 144 1021 l 313 815 z "},"ổ":{"ha":758,"x_min":0,"x_max":0,"o":"m 379 -14 b 718 357 583 -14 718 127 b 379 726 718 586 583 726 b 41 357 176 726 41 586 b 379 -14 41 127 175 -14 z m 379 107 b 190 357 264 107 190 198 b 379 606 190 515 264 606 b 568 357 494 606 568 515 b 379 107 568 198 494 107 z m 446 1142 b 511 1154 467 1150 488 1154 b 571 1106 546 1154 571 1134 b 511 1036 571 1077 549 1050 l 562 983 b 662 1114 627 1005 662 1052 b 523 1231 662 1185 608 1231 b 446 1216 495 1231 463 1225 z m 436 1009 l 322 1009 l 140 812 l 266 812 l 377 933 l 381 933 l 492 812 l 618 812 z "},"ồ":{"ha":758,"x_min":0,"x_max":0,"o":"m 379 -14 b 718 357 583 -14 718 127 b 379 726 718 586 583 726 b 41 357 176 726 41 586 b 379 -14 41 127 175 -14 z m 379 107 b 190 357 264 107 190 198 b 379 606 190 515 264 606 b 568 357 494 606 568 515 b 379 107 568 198 494 107 z m 436 1009 l 322 1009 l 140 812 l 266 812 l 377 933 l 381 933 l 492 812 l 618 812 z m 657 1029 l 517 1227 l 386 1227 l 543 1029 z "},"ọ":{"ha":758,"x_min":0,"x_max":0,"o":"m 379 -14 b 718 357 583 -14 718 127 b 379 726 718 586 583 726 b 41 357 176 726 41 586 b 379 -14 41 127 175 -14 z m 379 107 b 190 357 264 107 190 198 b 379 606 190 515 264 606 b 568 357 494 606 568 515 b 379 107 568 198 494 107 z m 379 -280 b 468 -191 429 -280 468 -240 b 379 -102 468 -142 429 -102 b 290 -191 330 -102 290 -142 b 379 -280 290 -240 330 -280 z "},"ȍ":{"ha":758,"x_min":0,"x_max":0,"o":"m 379 -14 b 718 357 583 -14 718 127 b 379 726 718 586 583 726 b 41 357 176 726 41 586 b 379 -14 41 127 175 -14 z m 379 107 b 190 357 264 107 190 198 b 379 606 190 515 264 606 b 568 357 494 606 568 515 b 379 107 568 198 494 107 z m 322 815 l 191 1021 l 50 1021 l 210 815 z m 549 815 l 418 1021 l 277 1021 l 438 815 z "},"ṍ":{"ha":758,"x_min":0,"x_max":0,"o":"m 379 -14 b 718 357 583 -14 718 127 b 379 726 718 586 583 726 b 41 357 176 726 41 586 b 379 -14 41 127 175 -14 z m 379 107 b 190 357 264 107 190 198 b 379 606 190 515 264 606 b 568 357 494 606 568 515 b 379 107 568 198 494 107 z m 315 1040 l 429 1040 l 578 1227 l 448 1227 z m 473 788 b 608 967 550 788 608 855 l 517 967 b 471 874 517 906 500 874 b 293 973 421 874 389 973 b 157 796 214 973 157 910 l 247 796 b 295 887 245 854 264 887 b 473 788 347 887 382 788 z "},"ṓ":{"ha":758,"x_min":0,"x_max":0,"o":"m 379 -14 b 718 357 583 -14 718 127 b 379 726 718 586 583 726 b 41 357 176 726 41 586 b 379 -14 41 127 175 -14 z m 379 107 b 190 357 264 107 190 198 b 379 606 190 515 264 606 b 568 357 494 606 568 515 b 379 107 568 198 494 107 z m 312 1029 l 426 1029 l 583 1227 l 452 1227 z m 582 914 l 176 914 l 176 827 l 582 827 z "}}}
